<?xml version="1.0" encoding="utf-8" standalone="no"?>
<!DOCTYPE svg PUBLIC "-//W3C//DTD SVG 1.1//EN"
  "http://www.w3.org/Graphics/SVG/1.1/DTD/svg11.dtd">
<svg xmlns:xlink="http://www.w3.org/1999/xlink" width="333.222749pt" height="212.973551pt" viewBox="0 0 333.222749 212.973551" xmlns="http://www.w3.org/2000/svg" version="1.1">
 <metadata>
  <rdf:RDF xmlns:dc="http://purl.org/dc/elements/1.1/" xmlns:cc="http://creativecommons.org/ns#" xmlns:rdf="http://www.w3.org/1999/02/22-rdf-syntax-ns#">
   <cc:Work>
    <dc:type rdf:resource="http://purl.org/dc/dcmitype/StillImage"/>
    <dc:date>2024-04-14T20:18:52.082476</dc:date>
    <dc:format>image/svg+xml</dc:format>
    <dc:creator>
     <cc:Agent>
      <dc:title>Matplotlib v3.7.0, https://matplotlib.org/</dc:title>
     </cc:Agent>
    </dc:creator>
   </cc:Work>
  </rdf:RDF>
 </metadata>
 <defs>
  <style type="text/css">*{stroke-linejoin: round; stroke-linecap: butt}</style>
 </defs>
 <g id="figure_1">
  <g id="patch_1">
   <path d="M 0 212.973551 
L 333.222749 212.973551 
L 333.222749 0 
L 0 0 
z
" style="fill: #ffffff"/>
  </g>
  <g id="axes_1">
   <g id="patch_2">
    <path d="M 43.784417 173.52 
L 322.784417 173.52 
L 322.784417 7.2 
L 43.784417 7.2 
z
" style="fill: #ffffff"/>
   </g>
   <g id="patch_3">
    <path d="M 56.466236 173.52 
L 58.131792 173.52 
L 58.131792 172.142609 
L 56.466236 172.142609 
z
" clip-path="url(#pedc4dc5ba2)" style="fill: #c0c0c0; opacity: 0.7"/>
   </g>
   <g id="patch_4">
    <path d="M 58.131792 173.52 
L 59.797349 173.52 
L 59.797349 166.633043 
L 58.131792 166.633043 
z
" clip-path="url(#pedc4dc5ba2)" style="fill: #c0c0c0; opacity: 0.7"/>
   </g>
   <g id="patch_5">
    <path d="M 59.797349 173.52 
L 61.462906 173.52 
L 61.462906 159.746087 
L 59.797349 159.746087 
z
" clip-path="url(#pedc4dc5ba2)" style="fill: #c0c0c0; opacity: 0.7"/>
   </g>
   <g id="patch_6">
    <path d="M 61.462906 173.52 
L 63.128463 173.52 
L 63.128463 162.50087 
L 61.462906 162.50087 
z
" clip-path="url(#pedc4dc5ba2)" style="fill: #c0c0c0; opacity: 0.7"/>
   </g>
   <g id="patch_7">
    <path d="M 63.128463 173.52 
L 64.79402 173.52 
L 64.79402 151.481739 
L 63.128463 151.481739 
z
" clip-path="url(#pedc4dc5ba2)" style="fill: #c0c0c0; opacity: 0.7"/>
   </g>
   <g id="patch_8">
    <path d="M 64.79402 173.52 
L 66.459577 173.52 
L 66.459577 140.462609 
L 64.79402 140.462609 
z
" clip-path="url(#pedc4dc5ba2)" style="fill: #c0c0c0; opacity: 0.7"/>
   </g>
   <g id="patch_9">
    <path d="M 66.459577 173.52 
L 68.125134 173.52 
L 68.125134 119.801739 
L 66.459577 119.801739 
z
" clip-path="url(#pedc4dc5ba2)" style="fill: #c0c0c0; opacity: 0.7"/>
   </g>
   <g id="patch_10">
    <path d="M 68.125134 173.52 
L 69.79069 173.52 
L 69.79069 88.121739 
L 68.125134 88.121739 
z
" clip-path="url(#pedc4dc5ba2)" style="fill: #c0c0c0; opacity: 0.7"/>
   </g>
   <g id="patch_11">
    <path d="M 69.79069 173.52 
L 71.456247 173.52 
L 71.456247 57.81913 
L 69.79069 57.81913 
z
" clip-path="url(#pedc4dc5ba2)" style="fill: #c0c0c0; opacity: 0.7"/>
   </g>
   <g id="patch_12">
    <path d="M 71.456247 173.52 
L 73.121804 173.52 
L 73.121804 59.196522 
L 71.456247 59.196522 
z
" clip-path="url(#pedc4dc5ba2)" style="fill: #c0c0c0; opacity: 0.7"/>
   </g>
   <g id="patch_13">
    <path d="M 73.121804 173.52 
L 74.787361 173.52 
L 74.787361 44.045217 
L 73.121804 44.045217 
z
" clip-path="url(#pedc4dc5ba2)" style="fill: #c0c0c0; opacity: 0.7"/>
   </g>
   <g id="patch_14">
    <path d="M 74.787361 173.52 
L 76.452918 173.52 
L 76.452918 15.12 
L 74.787361 15.12 
z
" clip-path="url(#pedc4dc5ba2)" style="fill: #c0c0c0; opacity: 0.7"/>
   </g>
   <g id="patch_15">
    <path d="M 76.452918 173.52 
L 78.118475 173.52 
L 78.118475 19.252174 
L 76.452918 19.252174 
z
" clip-path="url(#pedc4dc5ba2)" style="fill: #c0c0c0; opacity: 0.7"/>
   </g>
   <g id="patch_16">
    <path d="M 78.118475 173.52 
L 79.784032 173.52 
L 79.784032 49.554783 
L 78.118475 49.554783 
z
" clip-path="url(#pedc4dc5ba2)" style="fill: #c0c0c0; opacity: 0.7"/>
   </g>
   <g id="patch_17">
    <path d="M 79.784032 173.52 
L 81.449588 173.52 
L 81.449588 64.706087 
L 79.784032 64.706087 
z
" clip-path="url(#pedc4dc5ba2)" style="fill: #c0c0c0; opacity: 0.7"/>
   </g>
   <g id="patch_18">
    <path d="M 81.449588 173.52 
L 83.115145 173.52 
L 83.115145 90.876522 
L 81.449588 90.876522 
z
" clip-path="url(#pedc4dc5ba2)" style="fill: #c0c0c0; opacity: 0.7"/>
   </g>
   <g id="patch_19">
    <path d="M 83.115145 173.52 
L 84.780702 173.52 
L 84.780702 104.650435 
L 83.115145 104.650435 
z
" clip-path="url(#pedc4dc5ba2)" style="fill: #c0c0c0; opacity: 0.7"/>
   </g>
   <g id="patch_20">
    <path d="M 84.780702 173.52 
L 86.446259 173.52 
L 86.446259 128.066087 
L 84.780702 128.066087 
z
" clip-path="url(#pedc4dc5ba2)" style="fill: #c0c0c0; opacity: 0.7"/>
   </g>
   <g id="patch_21">
    <path d="M 86.446259 173.52 
L 88.111816 173.52 
L 88.111816 154.236522 
L 86.446259 154.236522 
z
" clip-path="url(#pedc4dc5ba2)" style="fill: #c0c0c0; opacity: 0.7"/>
   </g>
   <g id="patch_22">
    <path d="M 88.111816 173.52 
L 89.777373 173.52 
L 89.777373 156.991304 
L 88.111816 156.991304 
z
" clip-path="url(#pedc4dc5ba2)" style="fill: #c0c0c0; opacity: 0.7"/>
   </g>
   <g id="patch_23">
    <path d="M 89.777373 173.52 
L 91.44293 173.52 
L 91.44293 165.255652 
L 89.777373 165.255652 
z
" clip-path="url(#pedc4dc5ba2)" style="fill: #c0c0c0; opacity: 0.7"/>
   </g>
   <g id="patch_24">
    <path d="M 91.44293 173.52 
L 93.108486 173.52 
L 93.108486 169.387826 
L 91.44293 169.387826 
z
" clip-path="url(#pedc4dc5ba2)" style="fill: #c0c0c0; opacity: 0.7"/>
   </g>
   <g id="patch_25">
    <path d="M 135.006009 173.52 
L 141.740494 173.52 
L 141.740494 173.179347 
L 135.006009 173.179347 
z
" clip-path="url(#pedc4dc5ba2)" style="fill: #ff0000; opacity: 0.7"/>
   </g>
   <g id="patch_26">
    <path d="M 141.740494 173.52 
L 148.474978 173.52 
L 148.474978 172.838694 
L 141.740494 172.838694 
z
" clip-path="url(#pedc4dc5ba2)" style="fill: #ff0000; opacity: 0.7"/>
   </g>
   <g id="patch_27">
    <path d="M 148.474978 173.52 
L 155.209462 173.52 
L 155.209462 170.794774 
L 148.474978 170.794774 
z
" clip-path="url(#pedc4dc5ba2)" style="fill: #ff0000; opacity: 0.7"/>
   </g>
   <g id="patch_28">
    <path d="M 155.209462 173.52 
L 161.943946 173.52 
L 161.943946 165.684977 
L 155.209462 165.684977 
z
" clip-path="url(#pedc4dc5ba2)" style="fill: #ff0000; opacity: 0.7"/>
   </g>
   <g id="patch_29">
    <path d="M 161.943946 173.52 
L 168.678431 173.52 
L 168.678431 162.278445 
L 161.943946 162.278445 
z
" clip-path="url(#pedc4dc5ba2)" style="fill: #ff0000; opacity: 0.7"/>
   </g>
   <g id="patch_30">
    <path d="M 168.678431 173.52 
L 175.412915 173.52 
L 175.412915 164.322364 
L 168.678431 164.322364 
z
" clip-path="url(#pedc4dc5ba2)" style="fill: #ff0000; opacity: 0.7"/>
   </g>
   <g id="patch_31">
    <path d="M 175.412915 173.52 
L 182.147399 173.52 
L 182.147399 154.102768 
L 175.412915 154.102768 
z
" clip-path="url(#pedc4dc5ba2)" style="fill: #ff0000; opacity: 0.7"/>
   </g>
   <g id="patch_32">
    <path d="M 182.147399 173.52 
L 188.881883 173.52 
L 188.881883 144.564479 
L 182.147399 144.564479 
z
" clip-path="url(#pedc4dc5ba2)" style="fill: #ff0000; opacity: 0.7"/>
   </g>
   <g id="patch_33">
    <path d="M 188.881883 173.52 
L 195.616367 173.52 
L 195.616367 141.4986 
L 188.881883 141.4986 
z
" clip-path="url(#pedc4dc5ba2)" style="fill: #ff0000; opacity: 0.7"/>
   </g>
   <g id="patch_34">
    <path d="M 195.616367 173.52 
L 202.350852 173.52 
L 202.350852 129.575738 
L 195.616367 129.575738 
z
" clip-path="url(#pedc4dc5ba2)" style="fill: #ff0000; opacity: 0.7"/>
   </g>
   <g id="patch_35">
    <path d="M 202.350852 173.52 
L 209.085336 173.52 
L 209.085336 137.070109 
L 202.350852 137.070109 
z
" clip-path="url(#pedc4dc5ba2)" style="fill: #ff0000; opacity: 0.7"/>
   </g>
   <g id="patch_36">
    <path d="M 209.085336 173.52 
L 215.81982 173.52 
L 215.81982 148.311664 
L 209.085336 148.311664 
z
" clip-path="url(#pedc4dc5ba2)" style="fill: #ff0000; opacity: 0.7"/>
   </g>
   <g id="patch_37">
    <path d="M 215.81982 173.52 
L 222.554304 173.52 
L 222.554304 142.861213 
L 215.81982 142.861213 
z
" clip-path="url(#pedc4dc5ba2)" style="fill: #ff0000; opacity: 0.7"/>
   </g>
   <g id="patch_38">
    <path d="M 222.554304 173.52 
L 229.288789 173.52 
L 229.288789 148.652317 
L 222.554304 148.652317 
z
" clip-path="url(#pedc4dc5ba2)" style="fill: #ff0000; opacity: 0.7"/>
   </g>
   <g id="patch_39">
    <path d="M 229.288789 173.52 
L 236.023273 173.52 
L 236.023273 155.806034 
L 229.288789 155.806034 
z
" clip-path="url(#pedc4dc5ba2)" style="fill: #ff0000; opacity: 0.7"/>
   </g>
   <g id="patch_40">
    <path d="M 236.023273 173.52 
L 242.757757 173.52 
L 242.757757 161.937792 
L 236.023273 161.937792 
z
" clip-path="url(#pedc4dc5ba2)" style="fill: #ff0000; opacity: 0.7"/>
   </g>
   <g id="patch_41">
    <path d="M 242.757757 173.52 
L 249.492241 173.52 
L 249.492241 160.234526 
L 242.757757 160.234526 
z
" clip-path="url(#pedc4dc5ba2)" style="fill: #ff0000; opacity: 0.7"/>
   </g>
   <g id="patch_42">
    <path d="M 249.492241 173.52 
L 256.226725 173.52 
L 256.226725 166.706936 
L 249.492241 166.706936 
z
" clip-path="url(#pedc4dc5ba2)" style="fill: #ff0000; opacity: 0.7"/>
   </g>
   <g id="patch_43">
    <path d="M 256.226725 173.52 
L 262.96121 173.52 
L 262.96121 168.069549 
L 256.226725 168.069549 
z
" clip-path="url(#pedc4dc5ba2)" style="fill: #ff0000; opacity: 0.7"/>
   </g>
   <g id="patch_44">
    <path d="M 262.96121 173.52 
L 269.695694 173.52 
L 269.695694 169.432162 
L 262.96121 169.432162 
z
" clip-path="url(#pedc4dc5ba2)" style="fill: #ff0000; opacity: 0.7"/>
   </g>
   <g id="patch_45">
    <path d="M 269.695694 173.52 
L 276.430178 173.52 
L 276.430178 171.476081 
L 269.695694 171.476081 
z
" clip-path="url(#pedc4dc5ba2)" style="fill: #ff0000; opacity: 0.7"/>
   </g>
   <g id="patch_46">
    <path d="M 276.430178 173.52 
L 283.164662 173.52 
L 283.164662 170.794774 
L 276.430178 170.794774 
z
" clip-path="url(#pedc4dc5ba2)" style="fill: #ff0000; opacity: 0.7"/>
   </g>
   <g id="patch_47">
    <path d="M 283.164662 173.52 
L 289.899146 173.52 
L 289.899146 171.476081 
L 283.164662 171.476081 
z
" clip-path="url(#pedc4dc5ba2)" style="fill: #ff0000; opacity: 0.7"/>
   </g>
   <g id="patch_48">
    <path d="M 289.899146 173.52 
L 296.633631 173.52 
L 296.633631 173.179347 
L 289.899146 173.179347 
z
" clip-path="url(#pedc4dc5ba2)" style="fill: #ff0000; opacity: 0.7"/>
   </g>
   <g id="patch_49">
    <path d="M 296.633631 173.52 
L 303.368115 173.52 
L 303.368115 172.838694 
L 296.633631 172.838694 
z
" clip-path="url(#pedc4dc5ba2)" style="fill: #ff0000; opacity: 0.7"/>
   </g>
   <g id="patch_50">
    <path d="M 303.368115 173.52 
L 310.102599 173.52 
L 310.102599 173.179347 
L 303.368115 173.179347 
z
" clip-path="url(#pedc4dc5ba2)" style="fill: #ff0000; opacity: 0.7"/>
   </g>
   <g id="matplotlib.axis_1">
    <g id="xtick_1">
     <g id="line2d_1">
      <defs>
       <path id="m9f029e4ae1" d="M 0 0 
L 0 3.5 
" style="stroke: #000000; stroke-width: 0.8"/>
      </defs>
      <g>
       <use xlink:href="#m9f029e4ae1" x="68.492511" y="173.52" style="stroke: #000000; stroke-width: 0.8"/>
      </g>
     </g>
     <g id="text_1">
      <!-- $\mathdefault{2.5}$ -->
      <g transform="translate(61.01369 188.82218) scale(0.12 -0.12)">
       <defs>
        <path id="CMR17-32" d="M 2669 989 
L 2554 989 
C 2490 536 2438 459 2413 420 
C 2381 369 1920 369 1830 369 
L 602 369 
C 832 619 1280 1072 1824 1597 
C 2214 1967 2669 2402 2669 3035 
C 2669 3790 2067 4224 1395 4224 
C 691 4224 262 3604 262 3030 
C 262 2780 448 2748 525 2748 
C 589 2748 781 2787 781 3010 
C 781 3207 614 3264 525 3264 
C 486 3264 448 3258 422 3245 
C 544 3790 915 4058 1306 4058 
C 1862 4058 2227 3617 2227 3035 
C 2227 2479 1901 2000 1536 1584 
L 262 146 
L 262 0 
L 2515 0 
L 2669 989 
z
" transform="scale(0.015625)"/>
        <path id="CMMI12-3a" d="M 1178 307 
C 1178 492 1024 619 870 619 
C 685 619 557 466 557 313 
C 557 128 710 0 864 0 
C 1050 0 1178 153 1178 307 
z
" transform="scale(0.015625)"/>
        <path id="CMR17-35" d="M 730 3692 
C 794 3666 1056 3584 1325 3584 
C 1920 3584 2246 3911 2432 4100 
C 2432 4157 2432 4192 2394 4192 
C 2387 4192 2374 4192 2323 4163 
C 2099 4058 1837 3973 1517 3973 
C 1325 3973 1037 3999 723 4139 
C 653 4171 640 4171 634 4171 
C 602 4171 595 4164 595 4037 
L 595 2203 
C 595 2089 595 2057 659 2057 
C 691 2057 704 2070 736 2114 
C 941 2401 1222 2522 1542 2522 
C 1766 2522 2246 2382 2246 1289 
C 2246 1085 2246 715 2054 421 
C 1894 159 1645 25 1370 25 
C 947 25 518 320 403 814 
C 429 807 480 795 506 795 
C 589 795 749 840 749 1038 
C 749 1210 627 1280 506 1280 
C 358 1280 262 1190 262 1011 
C 262 454 704 -128 1382 -128 
C 2042 -128 2669 440 2669 1264 
C 2669 2030 2170 2624 1549 2624 
C 1222 2624 947 2503 730 2274 
L 730 3692 
z
" transform="scale(0.015625)"/>
       </defs>
       <use xlink:href="#CMR17-32" transform="scale(0.996264)"/>
       <use xlink:href="#CMMI12-3a" transform="translate(45.690477 0) scale(0.996264)"/>
       <use xlink:href="#CMR17-35" transform="translate(72.787654 0) scale(0.996264)"/>
      </g>
     </g>
    </g>
    <g id="xtick_2">
     <g id="line2d_2">
      <g>
       <use xlink:href="#m9f029e4ae1" x="109.679998" y="173.52" style="stroke: #000000; stroke-width: 0.8"/>
      </g>
     </g>
     <g id="text_2">
      <!-- $\mathdefault{5.0}$ -->
      <g transform="translate(102.201177 188.82218) scale(0.12 -0.12)">
       <defs>
        <path id="CMR17-30" d="M 2688 2025 
C 2688 2416 2682 3080 2413 3591 
C 2176 4039 1798 4198 1466 4198 
C 1158 4198 768 4058 525 3597 
C 269 3118 243 2524 243 2025 
C 243 1661 250 1106 448 619 
C 723 -39 1216 -128 1466 -128 
C 1760 -128 2208 -7 2470 600 
C 2662 1042 2688 1559 2688 2025 
z
M 1466 -26 
C 1056 -26 813 325 723 812 
C 653 1188 653 1738 653 2096 
C 653 2588 653 2997 736 3387 
C 858 3929 1216 4096 1466 4096 
C 1728 4096 2067 3923 2189 3400 
C 2272 3036 2278 2607 2278 2096 
C 2278 1680 2278 1169 2202 792 
C 2067 95 1690 -26 1466 -26 
z
" transform="scale(0.015625)"/>
       </defs>
       <use xlink:href="#CMR17-35" transform="scale(0.996264)"/>
       <use xlink:href="#CMMI12-3a" transform="translate(45.690477 0) scale(0.996264)"/>
       <use xlink:href="#CMR17-30" transform="translate(72.787654 0) scale(0.996264)"/>
      </g>
     </g>
    </g>
    <g id="xtick_3">
     <g id="line2d_3">
      <g>
       <use xlink:href="#m9f029e4ae1" x="150.867485" y="173.52" style="stroke: #000000; stroke-width: 0.8"/>
      </g>
     </g>
     <g id="text_3">
      <!-- $\mathdefault{7.5}$ -->
      <g transform="translate(143.388664 188.82218) scale(0.12 -0.12)">
       <defs>
        <path id="CMR17-37" d="M 2886 3941 
L 2886 4081 
L 1382 4081 
C 634 4081 621 4165 595 4288 
L 480 4288 
L 294 3094 
L 410 3094 
C 429 3215 474 3540 550 3661 
C 589 3712 1062 3712 1171 3712 
L 2579 3712 
L 1869 2661 
C 1395 1954 1069 999 1069 165 
C 1069 89 1069 -128 1299 -128 
C 1530 -128 1530 89 1530 171 
L 1530 465 
C 1530 1508 1709 2196 2003 2636 
L 2886 3941 
z
" transform="scale(0.015625)"/>
       </defs>
       <use xlink:href="#CMR17-37" transform="scale(0.996264)"/>
       <use xlink:href="#CMMI12-3a" transform="translate(45.690477 0) scale(0.996264)"/>
       <use xlink:href="#CMR17-35" transform="translate(72.787654 0) scale(0.996264)"/>
      </g>
     </g>
    </g>
    <g id="xtick_4">
     <g id="line2d_4">
      <g>
       <use xlink:href="#m9f029e4ae1" x="192.054972" y="173.52" style="stroke: #000000; stroke-width: 0.8"/>
      </g>
     </g>
     <g id="text_4">
      <!-- $\mathdefault{10.0}$ -->
      <g transform="translate(181.649656 188.82218) scale(0.12 -0.12)">
       <defs>
        <path id="CMR17-31" d="M 1702 4058 
C 1702 4192 1696 4192 1606 4192 
C 1357 3916 979 3827 621 3827 
C 602 3827 570 3827 563 3808 
C 557 3795 557 3782 557 3648 
C 755 3648 1088 3686 1344 3839 
L 1344 461 
C 1344 236 1331 160 781 160 
L 589 160 
L 589 0 
C 896 0 1216 0 1523 0 
C 1830 0 2150 0 2458 0 
L 2458 160 
L 2266 160 
C 1715 160 1702 230 1702 458 
L 1702 4058 
z
" transform="scale(0.015625)"/>
       </defs>
       <use xlink:href="#CMR17-31" transform="scale(0.996264)"/>
       <use xlink:href="#CMR17-30" transform="translate(45.690477 0) scale(0.996264)"/>
       <use xlink:href="#CMMI12-3a" transform="translate(91.380954 0) scale(0.996264)"/>
       <use xlink:href="#CMR17-30" transform="translate(118.478131 0) scale(0.996264)"/>
      </g>
     </g>
    </g>
    <g id="xtick_5">
     <g id="line2d_5">
      <g>
       <use xlink:href="#m9f029e4ae1" x="233.242459" y="173.52" style="stroke: #000000; stroke-width: 0.8"/>
      </g>
     </g>
     <g id="text_5">
      <!-- $\mathdefault{12.5}$ -->
      <g transform="translate(222.837143 188.82218) scale(0.12 -0.12)">
       <use xlink:href="#CMR17-31" transform="scale(0.996264)"/>
       <use xlink:href="#CMR17-32" transform="translate(45.690477 0) scale(0.996264)"/>
       <use xlink:href="#CMMI12-3a" transform="translate(91.380954 0) scale(0.996264)"/>
       <use xlink:href="#CMR17-35" transform="translate(118.478131 0) scale(0.996264)"/>
      </g>
     </g>
    </g>
    <g id="xtick_6">
     <g id="line2d_6">
      <g>
       <use xlink:href="#m9f029e4ae1" x="274.429946" y="173.52" style="stroke: #000000; stroke-width: 0.8"/>
      </g>
     </g>
     <g id="text_6">
      <!-- $\mathdefault{15.0}$ -->
      <g transform="translate(264.02463 188.82218) scale(0.12 -0.12)">
       <use xlink:href="#CMR17-31" transform="scale(0.996264)"/>
       <use xlink:href="#CMR17-35" transform="translate(45.690477 0) scale(0.996264)"/>
       <use xlink:href="#CMMI12-3a" transform="translate(91.380954 0) scale(0.996264)"/>
       <use xlink:href="#CMR17-30" transform="translate(118.478131 0) scale(0.996264)"/>
      </g>
     </g>
    </g>
    <g id="xtick_7">
     <g id="line2d_7">
      <g>
       <use xlink:href="#m9f029e4ae1" x="315.617433" y="173.52" style="stroke: #000000; stroke-width: 0.8"/>
      </g>
     </g>
     <g id="text_7">
      <!-- $\mathdefault{17.5}$ -->
      <g transform="translate(305.212117 188.82218) scale(0.12 -0.12)">
       <use xlink:href="#CMR17-31" transform="scale(0.996264)"/>
       <use xlink:href="#CMR17-37" transform="translate(45.690477 0) scale(0.996264)"/>
       <use xlink:href="#CMMI12-3a" transform="translate(91.380954 0) scale(0.996264)"/>
       <use xlink:href="#CMR17-35" transform="translate(118.478131 0) scale(0.996264)"/>
      </g>
     </g>
    </g>
    <g id="text_8">
     <!-- $\overline{\mathbb{E}} - \mathbb{E}$ -->
     <g transform="translate(168.008382 203.448955) scale(0.12 -0.12)">
      <defs>
       <path id="MSBM10-45" d="M 1658 2176 
C 1818 2176 2125 2176 2349 2046 
C 2656 1853 2682 1517 2682 1480 
C 2688 1393 2688 1312 2797 1312 
C 2906 1312 2906 1401 2906 1517 
L 2906 3251 
C 2906 3353 2906 3456 2797 3456 
C 2688 3456 2682 3355 2682 3301 
C 2643 2432 1990 2432 1658 2432 
L 1658 3772 
C 1658 4198 1779 4198 1933 4198 
L 2240 4198 
C 3104 4198 3533 3759 3571 3320 
C 3578 3269 3584 3174 3686 3174 
C 3795 3174 3795 3276 3795 3385 
L 3795 4218 
C 3795 4416 3782 4416 3584 4416 
L 307 4416 
C 192 4416 90 4416 90 4304 
C 90 4198 211 4198 262 4198 
C 627 4198 653 4147 653 3832 
L 653 622 
C 653 320 634 256 294 256 
C 198 256 90 256 90 147 
C 90 32 192 32 307 32 
L 3699 32 
C 3821 32 3885 32 3904 123 
C 3910 129 4090 1213 4090 1245 
C 4090 1316 4032 1362 3981 1362 
C 3891 1362 3866 1278 3866 1271 
C 3827 1102 3763 828 3296 549 
C 2963 347 2637 256 2285 256 
L 1933 256 
C 1779 256 1658 256 1658 684 
L 1658 2176 
z
M 3571 4198 
L 3571 3896 
C 3462 4015 3341 4116 3206 4198 
L 3571 4198 
z
M 2323 2315 
C 2426 2360 2566 2456 2682 2590 
L 2682 2052 
C 2528 2225 2330 2308 2323 2308 
L 2323 2315 
z
M 877 3845 
C 877 3923 877 4083 826 4198 
L 1504 4198 
C 1434 4051 1434 3839 1434 3781 
L 1434 673 
C 1434 442 1478 314 1504 256 
L 826 256 
C 877 371 877 531 877 609 
L 877 3845 
z
M 3258 256 
L 3258 262 
C 3462 367 3635 504 3763 621 
C 3757 596 3712 308 3706 256 
L 3258 256 
z
" transform="scale(0.015625)"/>
       <path id="CMSY10-0" d="M 4218 1472 
C 4326 1472 4442 1472 4442 1600 
C 4442 1728 4326 1728 4218 1728 
L 755 1728 
C 646 1728 531 1728 531 1600 
C 531 1472 646 1472 755 1472 
L 4218 1472 
z
" transform="scale(0.015625)"/>
      </defs>
      <use xlink:href="#MSBM10-45" transform="scale(0.996264)"/>
      <use xlink:href="#CMSY10-0" transform="translate(88.557026 0) scale(0.996264)"/>
      <use xlink:href="#MSBM10-45" transform="translate(188.1837 0) scale(0.996264)"/>
      <path d="M 0 80.586336 
L 66.417819 80.586336 
L 66.417819 84.571285 
L 0 84.571285 
L 0 80.586336 
z
"/>
     </g>
    </g>
   </g>
   <g id="matplotlib.axis_2">
    <g id="ytick_1">
     <g id="line2d_8">
      <defs>
       <path id="mc2a5bfb244" d="M 0 0 
L -3.5 0 
" style="stroke: #000000; stroke-width: 0.8"/>
      </defs>
      <g>
       <use xlink:href="#mc2a5bfb244" x="43.784417" y="173.52" style="stroke: #000000; stroke-width: 0.8"/>
      </g>
     </g>
     <g id="text_9">
      <!-- $\mathdefault{0.0}$ -->
      <g transform="translate(21.826776 177.67109) scale(0.12 -0.12)">
       <use xlink:href="#CMR17-30" transform="scale(0.996264)"/>
       <use xlink:href="#CMMI12-3a" transform="translate(45.690477 0) scale(0.996264)"/>
       <use xlink:href="#CMR17-30" transform="translate(72.787654 0) scale(0.996264)"/>
      </g>
     </g>
    </g>
    <g id="ytick_2">
     <g id="line2d_9">
      <g>
       <use xlink:href="#mc2a5bfb244" x="43.784417" y="145.670237" style="stroke: #000000; stroke-width: 0.8"/>
      </g>
     </g>
     <g id="text_10">
      <!-- $\mathdefault{0.2}$ -->
      <g transform="translate(21.826776 149.821326) scale(0.12 -0.12)">
       <use xlink:href="#CMR17-30" transform="scale(0.996264)"/>
       <use xlink:href="#CMMI12-3a" transform="translate(45.690477 0) scale(0.996264)"/>
       <use xlink:href="#CMR17-32" transform="translate(72.787654 0) scale(0.996264)"/>
      </g>
     </g>
    </g>
    <g id="ytick_3">
     <g id="line2d_10">
      <g>
       <use xlink:href="#mc2a5bfb244" x="43.784417" y="117.820473" style="stroke: #000000; stroke-width: 0.8"/>
      </g>
     </g>
     <g id="text_11">
      <!-- $\mathdefault{0.4}$ -->
      <g transform="translate(21.826776 121.971563) scale(0.12 -0.12)">
       <defs>
        <path id="CMR17-34" d="M 2150 4122 
C 2150 4256 2144 4256 2029 4256 
L 128 1254 
L 128 1088 
L 1779 1088 
L 1779 457 
C 1779 224 1766 160 1318 160 
L 1197 160 
L 1197 0 
C 1402 0 1747 0 1965 0 
C 2182 0 2528 0 2733 0 
L 2733 160 
L 2611 160 
C 2163 160 2150 224 2150 457 
L 2150 1088 
L 2803 1088 
L 2803 1254 
L 2150 1254 
L 2150 4122 
z
M 1798 3703 
L 1798 1254 
L 256 1254 
L 1798 3703 
z
" transform="scale(0.015625)"/>
       </defs>
       <use xlink:href="#CMR17-30" transform="scale(0.996264)"/>
       <use xlink:href="#CMMI12-3a" transform="translate(45.690477 0) scale(0.996264)"/>
       <use xlink:href="#CMR17-34" transform="translate(72.787654 0) scale(0.996264)"/>
      </g>
     </g>
    </g>
    <g id="ytick_4">
     <g id="line2d_11">
      <g>
       <use xlink:href="#mc2a5bfb244" x="43.784417" y="89.97071" style="stroke: #000000; stroke-width: 0.8"/>
      </g>
     </g>
     <g id="text_12">
      <!-- $\mathdefault{0.6}$ -->
      <g transform="translate(21.826776 94.1218) scale(0.12 -0.12)">
       <defs>
        <path id="CMR17-36" d="M 678 2176 
C 678 3690 1395 4032 1811 4032 
C 1946 4032 2272 4009 2400 3776 
C 2298 3776 2106 3776 2106 3553 
C 2106 3381 2246 3323 2336 3323 
C 2394 3323 2566 3348 2566 3560 
C 2566 3954 2246 4179 1805 4179 
C 1043 4179 243 3390 243 1984 
C 243 253 966 -128 1478 -128 
C 2099 -128 2688 427 2688 1283 
C 2688 2081 2170 2662 1517 2662 
C 1126 2662 838 2407 678 1960 
L 678 2176 
z
M 1478 25 
C 691 25 691 1200 691 1436 
C 691 1896 909 2560 1504 2560 
C 1613 2560 1926 2560 2138 2120 
C 2253 1870 2253 1609 2253 1289 
C 2253 944 2253 690 2118 434 
C 1978 171 1773 25 1478 25 
z
" transform="scale(0.015625)"/>
       </defs>
       <use xlink:href="#CMR17-30" transform="scale(0.996264)"/>
       <use xlink:href="#CMMI12-3a" transform="translate(45.690477 0) scale(0.996264)"/>
       <use xlink:href="#CMR17-36" transform="translate(72.787654 0) scale(0.996264)"/>
      </g>
     </g>
    </g>
    <g id="ytick_5">
     <g id="line2d_12">
      <g>
       <use xlink:href="#mc2a5bfb244" x="43.784417" y="62.120946" style="stroke: #000000; stroke-width: 0.8"/>
      </g>
     </g>
     <g id="text_13">
      <!-- $\mathdefault{0.8}$ -->
      <g transform="translate(21.826776 66.272036) scale(0.12 -0.12)">
       <defs>
        <path id="CMR17-38" d="M 1741 2264 
C 2144 2467 2554 2773 2554 3263 
C 2554 3841 1990 4179 1472 4179 
C 890 4179 378 3759 378 3180 
C 378 3021 416 2747 666 2505 
C 730 2442 998 2251 1171 2130 
C 883 1983 211 1634 211 934 
C 211 279 838 -128 1459 -128 
C 2144 -128 2720 362 2720 1010 
C 2720 1590 2330 1857 2074 2029 
L 1741 2264 
z
M 902 2822 
C 851 2854 595 3051 595 3351 
C 595 3739 998 4032 1459 4032 
C 1965 4032 2336 3676 2336 3262 
C 2336 2669 1670 2331 1638 2331 
C 1632 2331 1626 2331 1574 2370 
L 902 2822 
z
M 2080 1519 
C 2176 1449 2483 1240 2483 851 
C 2483 381 2010 25 1472 25 
C 890 25 448 438 448 940 
C 448 1443 838 1862 1280 2060 
L 2080 1519 
z
" transform="scale(0.015625)"/>
       </defs>
       <use xlink:href="#CMR17-30" transform="scale(0.996264)"/>
       <use xlink:href="#CMMI12-3a" transform="translate(45.690477 0) scale(0.996264)"/>
       <use xlink:href="#CMR17-38" transform="translate(72.787654 0) scale(0.996264)"/>
      </g>
     </g>
    </g>
    <g id="ytick_6">
     <g id="line2d_13">
      <g>
       <use xlink:href="#mc2a5bfb244" x="43.784417" y="34.271183" style="stroke: #000000; stroke-width: 0.8"/>
      </g>
     </g>
     <g id="text_14">
      <!-- $\mathdefault{1.0}$ -->
      <g transform="translate(21.826776 38.422273) scale(0.12 -0.12)">
       <use xlink:href="#CMR17-31" transform="scale(0.996264)"/>
       <use xlink:href="#CMMI12-3a" transform="translate(45.690477 0) scale(0.996264)"/>
       <use xlink:href="#CMR17-30" transform="translate(72.787654 0) scale(0.996264)"/>
      </g>
     </g>
    </g>
    <g id="text_15">
     <!-- Empirical Density -->
     <g transform="translate(15.50218 133.014073) rotate(-90) scale(0.12 -0.12)">
      <defs>
       <path id="CMSS17-45" d="M 1958 433 
C 1446 433 1216 433 1101 433 
L 1101 2107 
L 3085 2107 
L 3085 2496 
L 1101 2496 
L 1101 4009 
L 1926 4009 
C 2003 4009 2080 4009 2157 4009 
L 3251 4009 
L 3251 4416 
L 563 4416 
L 563 0 
L 3334 0 
L 3334 433 
L 1958 433 
z
" transform="scale(0.015625)"/>
       <path id="CMSS17-6d" d="M 4288 1877 
C 4288 2308 4179 2816 3462 2816 
C 2982 2816 2694 2516 2566 2331 
C 2451 2670 2182 2816 1798 2816 
C 1363 2816 1088 2568 941 2389 
L 941 2758 
L 474 2758 
L 474 0 
L 960 0 
L 960 1559 
C 960 1939 1101 2428 1555 2428 
C 2138 2428 2138 2016 2138 1829 
L 2138 0 
L 2624 0 
L 2624 1559 
C 2624 1939 2765 2428 3219 2428 
C 3802 2428 3802 2016 3802 1829 
L 3802 0 
L 4288 0 
L 4288 1877 
z
" transform="scale(0.015625)"/>
       <path id="CMSS17-70" d="M 966 333 
C 1178 129 1466 -5 1773 -5 
C 2368 -5 2880 603 2880 1412 
C 2880 2159 2496 2816 1946 2816 
C 1626 2816 1242 2702 954 2472 
L 954 2765 
L 480 2765 
L 480 -1216 
L 966 -1216 
L 966 333 
z
M 966 2100 
C 1018 2176 1235 2415 1587 2415 
C 2035 2415 2394 1960 2394 1412 
C 2394 787 1958 384 1530 384 
C 1402 384 1267 415 1139 523 
C 966 674 966 768 966 857 
L 966 2100 
z
" transform="scale(0.015625)"/>
       <path id="CMSS17-69" d="M 979 4183 
L 442 4183 
L 442 3648 
L 979 3648 
L 979 4183 
z
M 947 2739 
L 474 2739 
L 474 0 
L 947 0 
L 947 2739 
z
" transform="scale(0.015625)"/>
       <path id="CMSS17-72" d="M 954 1363 
C 954 1965 1395 2368 1958 2368 
L 1958 2789 
C 1549 2789 1165 2585 934 2253 
L 934 2758 
L 480 2758 
L 480 0 
L 954 0 
L 954 1363 
z
" transform="scale(0.015625)"/>
       <path id="CMSS17-63" d="M 2464 2541 
C 2464 2585 2170 2714 2093 2739 
C 1882 2816 1613 2816 1542 2816 
C 710 2816 211 2093 211 1363 
C 211 595 768 -64 1517 -64 
C 1946 -64 2253 76 2502 242 
L 2464 664 
C 2189 453 1869 337 1523 337 
C 1024 337 698 774 698 1369 
C 698 1831 909 2414 1549 2414 
C 1901 2414 2099 2343 2394 2145 
L 2464 2541 
z
" transform="scale(0.015625)"/>
       <path id="CMSS17-61" d="M 2406 1791 
C 2406 2392 1978 2808 1402 2808 
C 1120 2808 813 2757 461 2553 
L 499 2135 
C 659 2248 934 2432 1395 2432 
C 1722 2432 1920 2180 1920 1782 
L 1920 1536 
C 896 1536 256 1238 256 726 
C 256 461 416 -64 947 -64 
C 1043 -64 1562 -64 1933 217 
L 1933 -19 
L 2406 -19 
L 2406 1791 
z
M 1920 816 
C 1920 701 1920 548 1728 434 
C 1562 325 1350 325 1261 325 
C 941 325 723 511 723 744 
C 723 1211 1722 1211 1920 1211 
L 1920 816 
z
" transform="scale(0.015625)"/>
       <path id="CMSS17-6c" d="M 947 4416 
L 474 4416 
L 474 0 
L 947 0 
L 947 4416 
z
" transform="scale(0.015625)"/>
       <path id="CMSS17-44" d="M 570 4416 
L 570 0 
L 2144 0 
C 3194 0 4000 980 4000 2170 
C 4000 3398 3194 4416 2144 4416 
L 570 4416 
z
M 1094 357 
L 1094 4059 
L 2003 4059 
C 2861 4059 3475 3277 3475 2170 
C 3475 1107 2867 357 2003 357 
L 1094 357 
z
" transform="scale(0.015625)"/>
       <path id="CMSS17-65" d="M 2502 1377 
C 2502 1590 2490 2003 2285 2345 
C 2061 2713 1696 2816 1421 2816 
C 755 2816 192 2188 192 1375 
C 192 582 774 -64 1510 -64 
C 1798 -64 2150 19 2470 248 
C 2470 274 2458 414 2451 420 
C 2451 433 2432 630 2432 656 
C 2125 407 1773 325 1517 325 
C 1107 325 666 667 646 1377 
L 2502 1377 
z
M 698 1728 
C 781 2084 1062 2421 1421 2421 
C 1517 2421 1965 2421 2080 1728 
L 698 1728 
z
" transform="scale(0.015625)"/>
       <path id="CMSS17-6e" d="M 2618 1877 
C 2618 2283 2522 2816 1798 2816 
C 1389 2816 1120 2606 941 2389 
L 941 2758 
L 474 2758 
L 474 0 
L 960 0 
L 960 1559 
C 960 1964 1114 2428 1549 2428 
C 2112 2428 2131 2048 2131 1829 
L 2131 0 
L 2618 0 
L 2618 1877 
z
" transform="scale(0.015625)"/>
       <path id="CMSS17-73" d="M 2061 2627 
C 1683 2807 1389 2807 1197 2807 
C 742 2807 198 2648 198 2003 
C 198 1359 902 1218 1094 1179 
C 1389 1122 1715 1058 1715 740 
C 1715 337 1254 337 1171 337 
C 915 337 563 407 243 638 
L 166 210 
C 531 0 883 -64 1178 -64 
C 1965 -64 2163 416 2163 781 
C 2163 1094 1984 1305 1862 1401 
C 1651 1568 1574 1587 1050 1696 
C 960 1709 646 1779 646 2066 
C 646 2432 1050 2432 1139 2432 
C 1555 2432 1811 2303 1984 2208 
L 2061 2627 
z
" transform="scale(0.015625)"/>
       <path id="CMSS17-74" d="M 1069 2368 
L 1901 2368 
L 1901 2737 
L 1069 2737 
L 1069 3520 
L 614 3520 
L 614 2737 
L 109 2737 
L 109 2368 
L 602 2368 
L 602 749 
C 602 384 685 -64 1107 -64 
C 1427 -64 1722 25 2003 172 
L 1901 548 
C 1747 414 1562 337 1363 337 
C 1082 337 1069 696 1069 856 
L 1069 2368 
z
" transform="scale(0.015625)"/>
       <path id="CMSS17-79" d="M 2675 2752 
L 2176 2752 
C 1632 1294 1446 702 1434 383 
L 1427 383 
C 1408 696 1126 1460 902 2007 
L 602 2752 
L 83 2752 
L 1216 13 
C 1146 -178 1043 -465 1011 -529 
C 870 -885 774 -885 672 -885 
C 646 -885 442 -885 211 -809 
L 250 -1229 
C 410 -1261 570 -1280 685 -1280 
C 845 -1280 1165 -1280 1459 -497 
L 2675 2752 
z
" transform="scale(0.015625)"/>
      </defs>
      <use xlink:href="#CMSS17-45" transform="scale(0.996264)"/>
      <use xlink:href="#CMSS17-6d" transform="translate(55.892013 0) scale(0.996264)"/>
      <use xlink:href="#CMSS17-70" transform="translate(130.121268 0) scale(0.996264)"/>
      <use xlink:href="#CMSS17-69" transform="translate(178.326211 0) scale(0.996264)"/>
      <use xlink:href="#CMSS17-72" transform="translate(200.506934 0) scale(0.996264)"/>
      <use xlink:href="#CMSS17-69" transform="translate(232.416706 0) scale(0.996264)"/>
      <use xlink:href="#CMSS17-63" transform="translate(254.597429 0) scale(0.996264)"/>
      <use xlink:href="#CMSS17-61" transform="translate(296.236252 0) scale(0.996264)"/>
      <use xlink:href="#CMSS17-6c" transform="translate(341.158172 0) scale(0.996264)"/>
      <use xlink:href="#CMSS17-44" transform="translate(394.568008 0) scale(0.996264)"/>
      <use xlink:href="#CMSS17-65" transform="translate(462.11085 0) scale(0.996264)"/>
      <use xlink:href="#CMSS17-6e" transform="translate(503.749672 0) scale(0.996264)"/>
      <use xlink:href="#CMSS17-73" transform="translate(551.954615 0) scale(0.996264)"/>
      <use xlink:href="#CMSS17-69" transform="translate(587.868157 0) scale(0.996264)"/>
      <use xlink:href="#CMSS17-74" transform="translate(610.04888 0) scale(0.996264)"/>
      <use xlink:href="#CMSS17-79" transform="translate(641.277993 0) scale(0.996264)"/>
     </g>
    </g>
   </g>
   <g id="line2d_14">
    <path d="M 70.480729 173.52 
L 70.480729 7.2 
" clip-path="url(#pedc4dc5ba2)" style="fill: none; stroke-dasharray: 5.55,2.4; stroke-dashoffset: 0; stroke: #696969; stroke-width: 1.5"/>
   </g>
   <g id="line2d_15">
    <path d="M 186.281048 173.52 
L 186.281048 7.2 
" clip-path="url(#pedc4dc5ba2)" style="fill: none; stroke-dasharray: 5.55,2.4; stroke-dashoffset: 0; stroke: #b22222; stroke-width: 1.5"/>
   </g>
   <g id="patch_51">
    <path d="M 43.784417 173.52 
L 43.784417 7.2 
" style="fill: none; stroke: #000000; stroke-width: 0.8; stroke-linejoin: miter; stroke-linecap: square"/>
   </g>
   <g id="patch_52">
    <path d="M 322.784417 173.52 
L 322.784417 7.2 
" style="fill: none; stroke: #000000; stroke-width: 0.8; stroke-linejoin: miter; stroke-linecap: square"/>
   </g>
   <g id="patch_53">
    <path d="M 43.784417 173.52 
L 322.784417 173.52 
" style="fill: none; stroke: #000000; stroke-width: 0.8; stroke-linejoin: miter; stroke-linecap: square"/>
   </g>
   <g id="patch_54">
    <path d="M 43.784417 7.2 
L 322.784417 7.2 
" style="fill: none; stroke: #000000; stroke-width: 0.8; stroke-linejoin: miter; stroke-linecap: square"/>
   </g>
   <g id="legend_1">
    <g id="patch_55">
     <path d="M 52.884417 55.169744 
L 119.514562 55.169744 
Q 122.114562 55.169744 122.114562 52.569744 
L 122.114562 16.3 
Q 122.114562 13.7 119.514562 13.7 
L 52.884417 13.7 
Q 50.284417 13.7 50.284417 16.3 
L 50.284417 52.569744 
Q 50.284417 55.169744 52.884417 55.169744 
z
" style="fill: #ffffff; opacity: 0.8; stroke: #cccccc; stroke-linejoin: miter"/>
    </g>
    <g id="patch_56">
     <path d="M 55.484417 28 
L 81.484417 28 
L 81.484417 18.9 
L 55.484417 18.9 
z
" style="fill: #c0c0c0; opacity: 0.7"/>
    </g>
    <g id="text_16">
     <!-- Ours -->
     <g transform="translate(91.884417 28) scale(0.13 -0.13)">
      <defs>
       <path id="CMSS17-4f" d="M 4096 2178 
C 4096 3503 3219 4497 2214 4497 
C 1210 4497 333 3497 333 2178 
C 333 847 1222 -128 2214 -128 
C 3206 -128 4096 847 4096 2178 
z
M 2214 273 
C 1510 273 870 1057 870 2261 
C 870 3433 1549 4096 2214 4096 
C 2880 4096 3558 3433 3558 2261 
C 3558 1051 2912 273 2214 273 
z
" transform="scale(0.015625)"/>
       <path id="CMSS17-75" d="M 2618 2739 
L 2131 2739 
L 2131 972 
C 2131 498 1786 306 1421 306 
C 998 306 960 447 960 709 
L 960 2739 
L 474 2739 
L 474 678 
C 474 179 646 -64 1088 -64 
C 1306 -64 1798 -13 2144 306 
L 2144 0 
L 2618 0 
L 2618 2739 
z
" transform="scale(0.015625)"/>
      </defs>
      <use xlink:href="#CMSS17-4f" transform="scale(0.996264)"/>
      <use xlink:href="#CMSS17-75" transform="translate(69.024255 0) scale(0.996264)"/>
      <use xlink:href="#CMSS17-72" transform="translate(117.229198 0) scale(0.996264)"/>
      <use xlink:href="#CMSS17-73" transform="translate(149.138971 0) scale(0.996264)"/>
     </g>
    </g>
    <g id="patch_57">
     <path d="M 55.484417 46.731886 
L 81.484417 46.731886 
L 81.484417 37.631886 
L 55.484417 37.631886 
z
" style="fill: #ff0000; opacity: 0.7"/>
    </g>
    <g id="text_17">
     <!-- [9] -->
     <g transform="translate(91.884417 46.731886) scale(0.13 -0.13)">
      <defs>
       <path id="CMSS17-5b" d="M 1613 -1600 
L 1613 -1212 
L 1062 -1212 
L 1062 4352 
L 1613 4352 
L 1613 4741 
L 595 4741 
L 595 -1600 
L 1613 -1600 
z
" transform="scale(0.015625)"/>
       <path id="CMSS17-39" d="M 435 174 
C 614 21 845 -128 1235 -128 
C 2010 -128 2752 721 2752 2095 
C 2752 3932 1952 4229 1523 4229 
C 1094 4229 819 4041 582 3741 
C 301 3397 250 3090 250 2733 
C 250 2307 326 2045 506 1745 
C 749 1357 973 1275 1222 1275 
C 1600 1275 1978 1459 2234 1776 
C 2189 902 1798 267 1235 267 
C 1005 267 819 339 634 516 
L 435 174 
z
M 2214 2746 
C 2221 2703 2221 2622 2221 2596 
C 2221 2074 1914 1664 1466 1664 
C 1171 1664 1018 1813 902 2006 
C 762 2249 755 2485 755 2733 
C 755 2976 755 3244 934 3511 
C 1069 3703 1235 3840 1523 3840 
C 2112 3840 2208 3000 2214 2746 
z
" transform="scale(0.015625)"/>
       <path id="CMSS17-5d" d="M 1146 4741 
L 128 4741 
L 128 4352 
L 678 4352 
L 678 -1212 
L 128 -1212 
L 128 -1600 
L 1146 -1600 
L 1146 4741 
z
" transform="scale(0.015625)"/>
      </defs>
      <use xlink:href="#CMSS17-5b" transform="scale(0.996264)"/>
      <use xlink:href="#CMSS17-39" transform="translate(27.185439 0) scale(0.996264)"/>
      <use xlink:href="#CMSS17-5d" transform="translate(74.029062 0) scale(0.996264)"/>
     </g>
    </g>
   </g>
  </g>
 </g>
 <defs>
  <clipPath id="pedc4dc5ba2">
   <rect x="43.784417" y="7.2" width="279" height="166.32"/>
  </clipPath>
 </defs>
</svg>
