<?xml version="1.0" encoding="utf-8" standalone="no"?>
<!DOCTYPE svg PUBLIC "-//W3C//DTD SVG 1.1//EN"
  "http://www.w3.org/Graphics/SVG/1.1/DTD/svg11.dtd">
<svg xmlns:xlink="http://www.w3.org/1999/xlink" width="325.165934pt" height="214.354968pt" viewBox="0 0 325.165934 214.354968" xmlns="http://www.w3.org/2000/svg" version="1.1">
 <metadata>
  <rdf:RDF xmlns:dc="http://purl.org/dc/elements/1.1/" xmlns:cc="http://creativecommons.org/ns#" xmlns:rdf="http://www.w3.org/1999/02/22-rdf-syntax-ns#">
   <cc:Work>
    <dc:type rdf:resource="http://purl.org/dc/dcmitype/StillImage"/>
    <dc:date>2024-05-22T22:29:00.129986</dc:date>
    <dc:format>image/svg+xml</dc:format>
    <dc:creator>
     <cc:Agent>
      <dc:title>Matplotlib v3.7.0, https://matplotlib.org/</dc:title>
     </cc:Agent>
    </dc:creator>
   </cc:Work>
  </rdf:RDF>
 </metadata>
 <defs>
  <style type="text/css">*{stroke-linejoin: round; stroke-linecap: butt}</style>
 </defs>
 <g id="figure_1">
  <g id="patch_1">
   <path d="M 0 214.354968 
L 325.165934 214.354968 
L 325.165934 0 
L 0 0 
z
" style="fill: #ffffff"/>
  </g>
  <g id="axes_1">
   <g id="patch_2">
    <path d="M 34.679766 173.52 
L 313.679766 173.52 
L 313.679766 7.2 
L 34.679766 7.2 
z
" style="fill: #ffffff"/>
   </g>
   <g id="patch_3">
    <path d="M 47.361584 173.52 
L 52.287649 173.52 
L 52.287649 169.2 
L 47.361584 169.2 
z
" clip-path="url(#p01fef00c6f)" style="fill: #c0c0c0; opacity: 0.7"/>
   </g>
   <g id="patch_4">
    <path d="M 52.287649 173.52 
L 57.213715 173.52 
L 57.213715 169.2 
L 52.287649 169.2 
z
" clip-path="url(#p01fef00c6f)" style="fill: #c0c0c0; opacity: 0.7"/>
   </g>
   <g id="patch_5">
    <path d="M 57.213715 173.52 
L 62.13978 173.52 
L 62.13978 163.44 
L 57.213715 163.44 
z
" clip-path="url(#p01fef00c6f)" style="fill: #c0c0c0; opacity: 0.7"/>
   </g>
   <g id="patch_6">
    <path d="M 62.13978 173.52 
L 67.065846 173.52 
L 67.065846 150.48 
L 62.13978 150.48 
z
" clip-path="url(#p01fef00c6f)" style="fill: #c0c0c0; opacity: 0.7"/>
   </g>
   <g id="patch_7">
    <path d="M 67.065846 173.52 
L 71.991911 173.52 
L 71.991911 138.96 
L 67.065846 138.96 
z
" clip-path="url(#p01fef00c6f)" style="fill: #c0c0c0; opacity: 0.7"/>
   </g>
   <g id="patch_8">
    <path d="M 71.991911 173.52 
L 76.917977 173.52 
L 76.917977 117.36 
L 71.991911 117.36 
z
" clip-path="url(#p01fef00c6f)" style="fill: #c0c0c0; opacity: 0.7"/>
   </g>
   <g id="patch_9">
    <path d="M 76.917977 173.52 
L 81.844042 173.52 
L 81.844042 91.44 
L 76.917977 91.44 
z
" clip-path="url(#p01fef00c6f)" style="fill: #c0c0c0; opacity: 0.7"/>
   </g>
   <g id="patch_10">
    <path d="M 81.844042 173.52 
L 86.770108 173.52 
L 86.770108 74.16 
L 81.844042 74.16 
z
" clip-path="url(#p01fef00c6f)" style="fill: #c0c0c0; opacity: 0.7"/>
   </g>
   <g id="patch_11">
    <path d="M 86.770108 173.52 
L 91.696173 173.52 
L 91.696173 58.32 
L 86.770108 58.32 
z
" clip-path="url(#p01fef00c6f)" style="fill: #c0c0c0; opacity: 0.7"/>
   </g>
   <g id="patch_12">
    <path d="M 91.696173 173.52 
L 96.622239 173.52 
L 96.622239 46.8 
L 91.696173 46.8 
z
" clip-path="url(#p01fef00c6f)" style="fill: #c0c0c0; opacity: 0.7"/>
   </g>
   <g id="patch_13">
    <path d="M 96.622239 173.52 
L 101.548304 173.52 
L 101.548304 26.64 
L 96.622239 26.64 
z
" clip-path="url(#p01fef00c6f)" style="fill: #c0c0c0; opacity: 0.7"/>
   </g>
   <g id="patch_14">
    <path d="M 101.548304 173.52 
L 106.47437 173.52 
L 106.47437 18 
L 101.548304 18 
z
" clip-path="url(#p01fef00c6f)" style="fill: #c0c0c0; opacity: 0.7"/>
   </g>
   <g id="patch_15">
    <path d="M 106.47437 173.52 
L 111.400435 173.52 
L 111.400435 15.12 
L 106.47437 15.12 
z
" clip-path="url(#p01fef00c6f)" style="fill: #c0c0c0; opacity: 0.7"/>
   </g>
   <g id="patch_16">
    <path d="M 111.400435 173.52 
L 116.326501 173.52 
L 116.326501 55.44 
L 111.400435 55.44 
z
" clip-path="url(#p01fef00c6f)" style="fill: #c0c0c0; opacity: 0.7"/>
   </g>
   <g id="patch_17">
    <path d="M 116.326501 173.52 
L 121.252566 173.52 
L 121.252566 66.96 
L 116.326501 66.96 
z
" clip-path="url(#p01fef00c6f)" style="fill: #c0c0c0; opacity: 0.7"/>
   </g>
   <g id="patch_18">
    <path d="M 121.252566 173.52 
L 126.178632 173.52 
L 126.178632 114.48 
L 121.252566 114.48 
z
" clip-path="url(#p01fef00c6f)" style="fill: #c0c0c0; opacity: 0.7"/>
   </g>
   <g id="patch_19">
    <path d="M 126.178632 173.52 
L 131.104697 173.52 
L 131.104697 114.48 
L 126.178632 114.48 
z
" clip-path="url(#p01fef00c6f)" style="fill: #c0c0c0; opacity: 0.7"/>
   </g>
   <g id="patch_20">
    <path d="M 131.104697 173.52 
L 136.030763 173.52 
L 136.030763 147.6 
L 131.104697 147.6 
z
" clip-path="url(#p01fef00c6f)" style="fill: #c0c0c0; opacity: 0.7"/>
   </g>
   <g id="patch_21">
    <path d="M 136.030763 173.52 
L 140.956828 173.52 
L 140.956828 149.04 
L 136.030763 149.04 
z
" clip-path="url(#p01fef00c6f)" style="fill: #c0c0c0; opacity: 0.7"/>
   </g>
   <g id="patch_22">
    <path d="M 140.956828 173.52 
L 145.882893 173.52 
L 145.882893 160.56 
L 140.956828 160.56 
z
" clip-path="url(#p01fef00c6f)" style="fill: #c0c0c0; opacity: 0.7"/>
   </g>
   <g id="patch_23">
    <path d="M 145.882893 173.52 
L 150.808959 173.52 
L 150.808959 164.88 
L 145.882893 164.88 
z
" clip-path="url(#p01fef00c6f)" style="fill: #c0c0c0; opacity: 0.7"/>
   </g>
   <g id="patch_24">
    <path d="M 150.808959 173.52 
L 155.735024 173.52 
L 155.735024 167.76 
L 150.808959 167.76 
z
" clip-path="url(#p01fef00c6f)" style="fill: #c0c0c0; opacity: 0.7"/>
   </g>
   <g id="patch_25">
    <path d="M 155.735024 173.52 
L 160.66109 173.52 
L 160.66109 170.64 
L 155.735024 170.64 
z
" clip-path="url(#p01fef00c6f)" style="fill: #c0c0c0; opacity: 0.7"/>
   </g>
   <g id="patch_26">
    <path d="M 125.596928 173.52 
L 131.530304 173.52 
L 131.530304 172.324469 
L 125.596928 172.324469 
z
" clip-path="url(#p01fef00c6f)" style="fill: #ff0000; opacity: 0.7"/>
   </g>
   <g id="patch_27">
    <path d="M 131.530304 173.52 
L 137.463681 173.52 
L 137.463681 169.933408 
L 131.530304 169.933408 
z
" clip-path="url(#p01fef00c6f)" style="fill: #ff0000; opacity: 0.7"/>
   </g>
   <g id="patch_28">
    <path d="M 137.463681 173.52 
L 143.397058 173.52 
L 143.397058 167.542346 
L 137.463681 167.542346 
z
" clip-path="url(#p01fef00c6f)" style="fill: #ff0000; opacity: 0.7"/>
   </g>
   <g id="patch_29">
    <path d="M 143.397058 173.52 
L 149.330434 173.52 
L 149.330434 161.564693 
L 143.397058 161.564693 
z
" clip-path="url(#p01fef00c6f)" style="fill: #ff0000; opacity: 0.7"/>
   </g>
   <g id="patch_30">
    <path d="M 149.330434 173.52 
L 155.263811 173.52 
L 155.263811 159.173631 
L 149.330434 159.173631 
z
" clip-path="url(#p01fef00c6f)" style="fill: #ff0000; opacity: 0.7"/>
   </g>
   <g id="patch_31">
    <path d="M 155.263811 173.52 
L 161.197188 173.52 
L 161.197188 146.022793 
L 155.263811 146.022793 
z
" clip-path="url(#p01fef00c6f)" style="fill: #ff0000; opacity: 0.7"/>
   </g>
   <g id="patch_32">
    <path d="M 161.197188 173.52 
L 167.130565 173.52 
L 167.130565 122.112178 
L 161.197188 122.112178 
z
" clip-path="url(#p01fef00c6f)" style="fill: #ff0000; opacity: 0.7"/>
   </g>
   <g id="patch_33">
    <path d="M 167.130565 173.52 
L 173.063941 173.52 
L 173.063941 100.592625 
L 167.130565 100.592625 
z
" clip-path="url(#p01fef00c6f)" style="fill: #ff0000; opacity: 0.7"/>
   </g>
   <g id="patch_34">
    <path d="M 173.063941 173.52 
L 178.997318 173.52 
L 178.997318 87.441786 
L 173.063941 87.441786 
z
" clip-path="url(#p01fef00c6f)" style="fill: #ff0000; opacity: 0.7"/>
   </g>
   <g id="patch_35">
    <path d="M 178.997318 173.52 
L 184.930695 173.52 
L 184.930695 82.659663 
L 178.997318 82.659663 
z
" clip-path="url(#p01fef00c6f)" style="fill: #ff0000; opacity: 0.7"/>
   </g>
   <g id="patch_36">
    <path d="M 184.930695 173.52 
L 190.864071 173.52 
L 190.864071 53.966926 
L 184.930695 53.966926 
z
" clip-path="url(#p01fef00c6f)" style="fill: #ff0000; opacity: 0.7"/>
   </g>
   <g id="patch_37">
    <path d="M 190.864071 173.52 
L 196.797448 173.52 
L 196.797448 27.665249 
L 190.864071 27.665249 
z
" clip-path="url(#p01fef00c6f)" style="fill: #ff0000; opacity: 0.7"/>
   </g>
   <g id="patch_38">
    <path d="M 196.797448 173.52 
L 202.730825 173.52 
L 202.730825 69.508825 
L 196.797448 69.508825 
z
" clip-path="url(#p01fef00c6f)" style="fill: #ff0000; opacity: 0.7"/>
   </g>
   <g id="patch_39">
    <path d="M 202.730825 173.52 
L 208.664202 173.52 
L 208.664202 62.335641 
L 202.730825 62.335641 
z
" clip-path="url(#p01fef00c6f)" style="fill: #ff0000; opacity: 0.7"/>
   </g>
   <g id="patch_40">
    <path d="M 208.664202 173.52 
L 214.597578 173.52 
L 214.597578 77.87754 
L 208.664202 77.87754 
z
" clip-path="url(#p01fef00c6f)" style="fill: #ff0000; opacity: 0.7"/>
   </g>
   <g id="patch_41">
    <path d="M 214.597578 173.52 
L 220.530955 173.52 
L 220.530955 93.41944 
L 214.597578 93.41944 
z
" clip-path="url(#p01fef00c6f)" style="fill: #ff0000; opacity: 0.7"/>
   </g>
   <g id="patch_42">
    <path d="M 220.530955 173.52 
L 226.464332 173.52 
L 226.464332 123.307709 
L 220.530955 123.307709 
z
" clip-path="url(#p01fef00c6f)" style="fill: #ff0000; opacity: 0.7"/>
   </g>
   <g id="patch_43">
    <path d="M 226.464332 173.52 
L 232.397708 173.52 
L 232.397708 134.067485 
L 226.464332 134.067485 
z
" clip-path="url(#p01fef00c6f)" style="fill: #ff0000; opacity: 0.7"/>
   </g>
   <g id="patch_44">
    <path d="M 232.397708 173.52 
L 238.331085 173.52 
L 238.331085 141.24067 
L 232.397708 141.24067 
z
" clip-path="url(#p01fef00c6f)" style="fill: #ff0000; opacity: 0.7"/>
   </g>
   <g id="patch_45">
    <path d="M 238.331085 173.52 
L 244.264462 173.52 
L 244.264462 148.413854 
L 238.331085 148.413854 
z
" clip-path="url(#p01fef00c6f)" style="fill: #ff0000; opacity: 0.7"/>
   </g>
   <g id="patch_46">
    <path d="M 244.264462 173.52 
L 250.197839 173.52 
L 250.197839 162.760223 
L 244.264462 162.760223 
z
" clip-path="url(#p01fef00c6f)" style="fill: #ff0000; opacity: 0.7"/>
   </g>
   <g id="patch_47">
    <path d="M 250.197839 173.52 
L 256.131215 173.52 
L 256.131215 166.346816 
L 250.197839 166.346816 
z
" clip-path="url(#p01fef00c6f)" style="fill: #ff0000; opacity: 0.7"/>
   </g>
   <g id="patch_48">
    <path d="M 256.131215 173.52 
L 262.064592 173.52 
L 262.064592 167.542346 
L 256.131215 167.542346 
z
" clip-path="url(#p01fef00c6f)" style="fill: #ff0000; opacity: 0.7"/>
   </g>
   <g id="patch_49">
    <path d="M 262.064592 173.52 
L 267.997969 173.52 
L 267.997969 171.128939 
L 262.064592 171.128939 
z
" clip-path="url(#p01fef00c6f)" style="fill: #ff0000; opacity: 0.7"/>
   </g>
   <g id="patch_50">
    <path d="M 149.036811 173.52 
L 155.944135 173.52 
L 155.944135 169.412167 
L 149.036811 169.412167 
z
" clip-path="url(#p01fef00c6f)" style="fill: #0000ff; opacity: 0.7"/>
   </g>
   <g id="patch_51">
    <path d="M 155.944135 173.52 
L 162.85146 173.52 
L 162.85146 173.52 
L 155.944135 173.52 
z
" clip-path="url(#p01fef00c6f)" style="fill: #0000ff; opacity: 0.7"/>
   </g>
   <g id="patch_52">
    <path d="M 162.85146 173.52 
L 169.758784 173.52 
L 169.758784 168.385208 
L 162.85146 168.385208 
z
" clip-path="url(#p01fef00c6f)" style="fill: #0000ff; opacity: 0.7"/>
   </g>
   <g id="patch_53">
    <path d="M 169.758784 173.52 
L 176.666109 173.52 
L 176.666109 161.1965 
L 169.758784 161.1965 
z
" clip-path="url(#p01fef00c6f)" style="fill: #0000ff; opacity: 0.7"/>
   </g>
   <g id="patch_54">
    <path d="M 176.666109 173.52 
L 183.573433 173.52 
L 183.573433 148.873 
L 176.666109 148.873 
z
" clip-path="url(#p01fef00c6f)" style="fill: #0000ff; opacity: 0.7"/>
   </g>
   <g id="patch_55">
    <path d="M 183.573433 173.52 
L 190.480757 173.52 
L 190.480757 136.5495 
L 183.573433 136.5495 
z
" clip-path="url(#p01fef00c6f)" style="fill: #0000ff; opacity: 0.7"/>
   </g>
   <g id="patch_56">
    <path d="M 190.480757 173.52 
L 197.388082 173.52 
L 197.388082 116.010334 
L 190.480757 116.010334 
z
" clip-path="url(#p01fef00c6f)" style="fill: #0000ff; opacity: 0.7"/>
   </g>
   <g id="patch_57">
    <path d="M 197.388082 173.52 
L 204.295406 173.52 
L 204.295406 114.983375 
L 197.388082 114.983375 
z
" clip-path="url(#p01fef00c6f)" style="fill: #0000ff; opacity: 0.7"/>
   </g>
   <g id="patch_58">
    <path d="M 204.295406 173.52 
L 211.202731 173.52 
L 211.202731 80.066792 
L 204.295406 80.066792 
z
" clip-path="url(#p01fef00c6f)" style="fill: #0000ff; opacity: 0.7"/>
   </g>
   <g id="patch_59">
    <path d="M 211.202731 173.52 
L 218.110055 173.52 
L 218.110055 67.743293 
L 211.202731 67.743293 
z
" clip-path="url(#p01fef00c6f)" style="fill: #0000ff; opacity: 0.7"/>
   </g>
   <g id="patch_60">
    <path d="M 218.110055 173.52 
L 225.017379 173.52 
L 225.017379 56.446751 
L 218.110055 56.446751 
z
" clip-path="url(#p01fef00c6f)" style="fill: #0000ff; opacity: 0.7"/>
   </g>
   <g id="patch_61">
    <path d="M 225.017379 173.52 
L 231.924704 173.52 
L 231.924704 57.473709 
L 225.017379 57.473709 
z
" clip-path="url(#p01fef00c6f)" style="fill: #0000ff; opacity: 0.7"/>
   </g>
   <g id="patch_62">
    <path d="M 231.924704 173.52 
L 238.832028 173.52 
L 238.832028 81.093751 
L 231.924704 81.093751 
z
" clip-path="url(#p01fef00c6f)" style="fill: #0000ff; opacity: 0.7"/>
   </g>
   <g id="patch_63">
    <path d="M 238.832028 173.52 
L 245.739353 173.52 
L 245.739353 107.794667 
L 238.832028 107.794667 
z
" clip-path="url(#p01fef00c6f)" style="fill: #0000ff; opacity: 0.7"/>
   </g>
   <g id="patch_64">
    <path d="M 245.739353 173.52 
L 252.646677 173.52 
L 252.646677 93.417251 
L 245.739353 93.417251 
z
" clip-path="url(#p01fef00c6f)" style="fill: #0000ff; opacity: 0.7"/>
   </g>
   <g id="patch_65">
    <path d="M 252.646677 173.52 
L 259.554001 173.52 
L 259.554001 112.929459 
L 252.646677 112.929459 
z
" clip-path="url(#p01fef00c6f)" style="fill: #0000ff; opacity: 0.7"/>
   </g>
   <g id="patch_66">
    <path d="M 259.554001 173.52 
L 266.461326 173.52 
L 266.461326 133.468625 
L 259.554001 133.468625 
z
" clip-path="url(#p01fef00c6f)" style="fill: #0000ff; opacity: 0.7"/>
   </g>
   <g id="patch_67">
    <path d="M 266.461326 173.52 
L 273.36865 173.52 
L 273.36865 154.007792 
L 266.461326 154.007792 
z
" clip-path="url(#p01fef00c6f)" style="fill: #0000ff; opacity: 0.7"/>
   </g>
   <g id="patch_68">
    <path d="M 273.36865 173.52 
L 280.275974 173.52 
L 280.275974 158.115625 
L 273.36865 158.115625 
z
" clip-path="url(#p01fef00c6f)" style="fill: #0000ff; opacity: 0.7"/>
   </g>
   <g id="patch_69">
    <path d="M 280.275974 173.52 
L 287.183299 173.52 
L 287.183299 161.1965 
L 280.275974 161.1965 
z
" clip-path="url(#p01fef00c6f)" style="fill: #0000ff; opacity: 0.7"/>
   </g>
   <g id="patch_70">
    <path d="M 287.183299 173.52 
L 294.090623 173.52 
L 294.090623 169.412167 
L 287.183299 169.412167 
z
" clip-path="url(#p01fef00c6f)" style="fill: #0000ff; opacity: 0.7"/>
   </g>
   <g id="patch_71">
    <path d="M 294.090623 173.52 
L 300.997948 173.52 
L 300.997948 168.385208 
L 294.090623 168.385208 
z
" clip-path="url(#p01fef00c6f)" style="fill: #0000ff; opacity: 0.7"/>
   </g>
   <g id="matplotlib.axis_1">
    <g id="xtick_1">
     <g id="line2d_1">
      <defs>
       <path id="m1d272fe141" d="M 0 0 
L 0 3.5 
" style="stroke: #000000; stroke-width: 0.8"/>
      </defs>
      <g>
       <use xlink:href="#m1d272fe141" x="83.309644" y="173.52" style="stroke: #000000; stroke-width: 0.8"/>
      </g>
     </g>
     <g id="text_1">
      <!-- $\mathdefault{0.0}$ -->
      <g transform="translate(75.830823 188.82218) scale(0.12 -0.12)">
       <defs>
        <path id="CMR17-30" d="M 2688 2025 
C 2688 2416 2682 3080 2413 3591 
C 2176 4039 1798 4198 1466 4198 
C 1158 4198 768 4058 525 3597 
C 269 3118 243 2524 243 2025 
C 243 1661 250 1106 448 619 
C 723 -39 1216 -128 1466 -128 
C 1760 -128 2208 -7 2470 600 
C 2662 1042 2688 1559 2688 2025 
z
M 1466 -26 
C 1056 -26 813 325 723 812 
C 653 1188 653 1738 653 2096 
C 653 2588 653 2997 736 3387 
C 858 3929 1216 4096 1466 4096 
C 1728 4096 2067 3923 2189 3400 
C 2272 3036 2278 2607 2278 2096 
C 2278 1680 2278 1169 2202 792 
C 2067 95 1690 -26 1466 -26 
z
" transform="scale(0.015625)"/>
        <path id="CMMI12-3a" d="M 1178 307 
C 1178 492 1024 619 870 619 
C 685 619 557 466 557 313 
C 557 128 710 0 864 0 
C 1050 0 1178 153 1178 307 
z
" transform="scale(0.015625)"/>
       </defs>
       <use xlink:href="#CMR17-30" transform="scale(0.996264)"/>
       <use xlink:href="#CMMI12-3a" transform="translate(45.690477 0) scale(0.996264)"/>
       <use xlink:href="#CMR17-30" transform="translate(72.787654 0) scale(0.996264)"/>
      </g>
     </g>
    </g>
    <g id="xtick_2">
     <g id="line2d_2">
      <g>
       <use xlink:href="#m1d272fe141" x="159.035467" y="173.52" style="stroke: #000000; stroke-width: 0.8"/>
      </g>
     </g>
     <g id="text_2">
      <!-- $\mathdefault{0.5}$ -->
      <g transform="translate(151.556646 188.82218) scale(0.12 -0.12)">
       <defs>
        <path id="CMR17-35" d="M 730 3692 
C 794 3666 1056 3584 1325 3584 
C 1920 3584 2246 3911 2432 4100 
C 2432 4157 2432 4192 2394 4192 
C 2387 4192 2374 4192 2323 4163 
C 2099 4058 1837 3973 1517 3973 
C 1325 3973 1037 3999 723 4139 
C 653 4171 640 4171 634 4171 
C 602 4171 595 4164 595 4037 
L 595 2203 
C 595 2089 595 2057 659 2057 
C 691 2057 704 2070 736 2114 
C 941 2401 1222 2522 1542 2522 
C 1766 2522 2246 2382 2246 1289 
C 2246 1085 2246 715 2054 421 
C 1894 159 1645 25 1370 25 
C 947 25 518 320 403 814 
C 429 807 480 795 506 795 
C 589 795 749 840 749 1038 
C 749 1210 627 1280 506 1280 
C 358 1280 262 1190 262 1011 
C 262 454 704 -128 1382 -128 
C 2042 -128 2669 440 2669 1264 
C 2669 2030 2170 2624 1549 2624 
C 1222 2624 947 2503 730 2274 
L 730 3692 
z
" transform="scale(0.015625)"/>
       </defs>
       <use xlink:href="#CMR17-30" transform="scale(0.996264)"/>
       <use xlink:href="#CMMI12-3a" transform="translate(45.690477 0) scale(0.996264)"/>
       <use xlink:href="#CMR17-35" transform="translate(72.787654 0) scale(0.996264)"/>
      </g>
     </g>
    </g>
    <g id="xtick_3">
     <g id="line2d_3">
      <g>
       <use xlink:href="#m1d272fe141" x="234.76129" y="173.52" style="stroke: #000000; stroke-width: 0.8"/>
      </g>
     </g>
     <g id="text_3">
      <!-- $\mathdefault{1.0}$ -->
      <g transform="translate(227.282469 188.82218) scale(0.12 -0.12)">
       <defs>
        <path id="CMR17-31" d="M 1702 4058 
C 1702 4192 1696 4192 1606 4192 
C 1357 3916 979 3827 621 3827 
C 602 3827 570 3827 563 3808 
C 557 3795 557 3782 557 3648 
C 755 3648 1088 3686 1344 3839 
L 1344 461 
C 1344 236 1331 160 781 160 
L 589 160 
L 589 0 
C 896 0 1216 0 1523 0 
C 1830 0 2150 0 2458 0 
L 2458 160 
L 2266 160 
C 1715 160 1702 230 1702 458 
L 1702 4058 
z
" transform="scale(0.015625)"/>
       </defs>
       <use xlink:href="#CMR17-31" transform="scale(0.996264)"/>
       <use xlink:href="#CMMI12-3a" transform="translate(45.690477 0) scale(0.996264)"/>
       <use xlink:href="#CMR17-30" transform="translate(72.787654 0) scale(0.996264)"/>
      </g>
     </g>
    </g>
    <g id="xtick_4">
     <g id="line2d_4">
      <g>
       <use xlink:href="#m1d272fe141" x="310.487114" y="173.52" style="stroke: #000000; stroke-width: 0.8"/>
      </g>
     </g>
     <g id="text_4">
      <!-- $\mathdefault{1.5}$ -->
      <g transform="translate(303.008293 188.82218) scale(0.12 -0.12)">
       <use xlink:href="#CMR17-31" transform="scale(0.996264)"/>
       <use xlink:href="#CMMI12-3a" transform="translate(45.690477 0) scale(0.996264)"/>
       <use xlink:href="#CMR17-35" transform="translate(72.787654 0) scale(0.996264)"/>
      </g>
     </g>
    </g>
    <g id="text_5">
     <!-- $\overline{\textup{VaR}}_{\tau} - \textup{VaR}_{\tau}$ -->
     <g transform="translate(141.858838 204.830372) scale(0.12 -0.12)">
      <defs>
       <path id="CMSS17-56" d="M 3910 4416 
L 3411 4416 
L 2304 1362 
C 2272 1273 2074 688 2035 484 
L 2029 484 
C 1978 726 1773 1292 1664 1604 
L 922 3672 
L 646 4416 
L 83 4416 
L 1715 0 
L 2278 0 
L 3910 4416 
z
" transform="scale(0.015625)"/>
       <path id="CMSS17-61" d="M 2406 1791 
C 2406 2392 1978 2808 1402 2808 
C 1120 2808 813 2757 461 2553 
L 499 2135 
C 659 2248 934 2432 1395 2432 
C 1722 2432 1920 2180 1920 1782 
L 1920 1536 
C 896 1536 256 1238 256 726 
C 256 461 416 -64 947 -64 
C 1043 -64 1562 -64 1933 217 
L 1933 -19 
L 2406 -19 
L 2406 1791 
z
M 1920 816 
C 1920 701 1920 548 1728 434 
C 1562 325 1350 325 1261 325 
C 941 325 723 511 723 744 
C 723 1211 1722 1211 1920 1211 
L 1920 816 
z
" transform="scale(0.015625)"/>
       <path id="CMSS17-52" d="M 2522 2109 
L 2534 2115 
C 3533 2459 3539 3147 3539 3268 
C 3539 3873 2925 4453 2003 4453 
L 570 4453 
L 570 32 
L 1094 32 
L 1094 2048 
L 2035 2048 
L 3168 32 
L 3706 32 
L 2522 2109 
z
M 1094 2437 
L 1094 4096 
L 1933 4096 
C 2746 4096 3034 3637 3034 3267 
C 3034 2922 2778 2437 1933 2437 
L 1094 2437 
z
" transform="scale(0.015625)"/>
       <path id="CMMI12-1c" d="M 1837 2408 
L 2899 2408 
C 2982 2408 3194 2408 3194 2612 
C 3194 2752 3072 2752 2957 2752 
L 1197 2752 
C 1050 2752 832 2752 538 2440 
C 371 2255 166 1917 166 1879 
C 166 1841 198 1828 237 1828 
C 282 1828 288 1847 320 1885 
C 653 2408 986 2408 1146 2408 
L 1677 2408 
L 1011 223 
C 979 127 979 114 979 95 
C 979 25 1024 -64 1152 -64 
C 1350 -64 1382 108 1402 203 
L 1837 2408 
z
" transform="scale(0.015625)"/>
       <path id="CMSY10-0" d="M 4218 1472 
C 4326 1472 4442 1472 4442 1600 
C 4442 1728 4326 1728 4218 1728 
L 755 1728 
C 646 1728 531 1728 531 1600 
C 531 1472 646 1472 755 1472 
L 4218 1472 
z
" transform="scale(0.015625)"/>
      </defs>
      <use xlink:href="#CMSS17-56" transform="scale(0.996264)"/>
      <use xlink:href="#CMSS17-61" transform="translate(59.615401 0) scale(0.996264)"/>
      <use xlink:href="#CMSS17-52" transform="translate(104.537322 0) scale(0.996264)"/>
      <use xlink:href="#CMMI12-1c" transform="translate(164.953476 -14.943915) scale(0.697382)"/>
      <use xlink:href="#CMSY10-0" transform="translate(225.034462 0) scale(0.996264)"/>
      <use xlink:href="#CMSS17-56" transform="translate(324.661137 0) scale(0.996264)"/>
      <use xlink:href="#CMSS17-61" transform="translate(384.276538 0) scale(0.996264)"/>
      <use xlink:href="#CMSS17-52" transform="translate(429.198459 0) scale(0.996264)"/>
      <use xlink:href="#CMMI12-1c" transform="translate(489.614614 -14.943915) scale(0.697382)"/>
      <path d="M 0 81.139863 
L 164.953476 81.139863 
L 164.953476 85.124813 
L 0 85.124813 
L 0 81.139863 
z
"/>
     </g>
    </g>
   </g>
   <g id="matplotlib.axis_2">
    <g id="ytick_1">
     <g id="line2d_5">
      <defs>
       <path id="mb9dec0b6e0" d="M 0 0 
L -3.5 0 
" style="stroke: #000000; stroke-width: 0.8"/>
      </defs>
      <g>
       <use xlink:href="#mb9dec0b6e0" x="34.679766" y="173.52" style="stroke: #000000; stroke-width: 0.8"/>
      </g>
     </g>
     <g id="text_6">
      <!-- $\mathdefault{0}$ -->
      <g transform="translate(21.826776 177.67109) scale(0.12 -0.12)">
       <use xlink:href="#CMR17-30" transform="scale(0.996264)"/>
      </g>
     </g>
    </g>
    <g id="ytick_2">
     <g id="line2d_6">
      <g>
       <use xlink:href="#mb9dec0b6e0" x="34.679766" y="126.683043" style="stroke: #000000; stroke-width: 0.8"/>
      </g>
     </g>
     <g id="text_7">
      <!-- $\mathdefault{1}$ -->
      <g transform="translate(21.826776 130.834133) scale(0.12 -0.12)">
       <use xlink:href="#CMR17-31" transform="scale(0.996264)"/>
      </g>
     </g>
    </g>
    <g id="ytick_3">
     <g id="line2d_7">
      <g>
       <use xlink:href="#mb9dec0b6e0" x="34.679766" y="79.846086" style="stroke: #000000; stroke-width: 0.8"/>
      </g>
     </g>
     <g id="text_8">
      <!-- $\mathdefault{2}$ -->
      <g transform="translate(21.826776 83.997175) scale(0.12 -0.12)">
       <defs>
        <path id="CMR17-32" d="M 2669 989 
L 2554 989 
C 2490 536 2438 459 2413 420 
C 2381 369 1920 369 1830 369 
L 602 369 
C 832 619 1280 1072 1824 1597 
C 2214 1967 2669 2402 2669 3035 
C 2669 3790 2067 4224 1395 4224 
C 691 4224 262 3604 262 3030 
C 262 2780 448 2748 525 2748 
C 589 2748 781 2787 781 3010 
C 781 3207 614 3264 525 3264 
C 486 3264 448 3258 422 3245 
C 544 3790 915 4058 1306 4058 
C 1862 4058 2227 3617 2227 3035 
C 2227 2479 1901 2000 1536 1584 
L 262 146 
L 262 0 
L 2515 0 
L 2669 989 
z
" transform="scale(0.015625)"/>
       </defs>
       <use xlink:href="#CMR17-32" transform="scale(0.996264)"/>
      </g>
     </g>
    </g>
    <g id="ytick_4">
     <g id="line2d_8">
      <g>
       <use xlink:href="#mb9dec0b6e0" x="34.679766" y="33.009128" style="stroke: #000000; stroke-width: 0.8"/>
      </g>
     </g>
     <g id="text_9">
      <!-- $\mathdefault{3}$ -->
      <g transform="translate(21.826776 37.160218) scale(0.12 -0.12)">
       <defs>
        <path id="CMR17-33" d="M 1414 2157 
C 1984 2157 2234 1662 2234 1090 
C 2234 320 1824 25 1453 25 
C 1114 25 563 194 390 693 
C 422 680 454 680 486 680 
C 640 680 755 782 755 948 
C 755 1133 614 1216 486 1216 
C 378 1216 211 1165 211 926 
C 211 335 787 -128 1466 -128 
C 2176 -128 2720 430 2720 1085 
C 2720 1707 2208 2157 1600 2227 
C 2086 2328 2554 2756 2554 3329 
C 2554 3820 2048 4179 1472 4179 
C 890 4179 378 3829 378 3329 
C 378 3110 544 3072 627 3072 
C 762 3072 877 3155 877 3321 
C 877 3486 762 3569 627 3569 
C 602 3569 570 3569 544 3557 
C 730 3959 1235 4032 1459 4032 
C 1683 4032 2106 3925 2106 3320 
C 2106 3143 2080 2828 1862 2550 
C 1670 2304 1453 2304 1242 2284 
C 1210 2284 1062 2269 1037 2269 
C 992 2263 966 2257 966 2208 
C 966 2163 973 2157 1101 2157 
L 1414 2157 
z
" transform="scale(0.015625)"/>
       </defs>
       <use xlink:href="#CMR17-33" transform="scale(0.996264)"/>
      </g>
     </g>
    </g>
    <g id="text_10">
     <!-- Empirical Density -->
     <g transform="translate(15.50218 133.014073) rotate(-90) scale(0.12 -0.12)">
      <defs>
       <path id="CMSS17-45" d="M 1958 433 
C 1446 433 1216 433 1101 433 
L 1101 2107 
L 3085 2107 
L 3085 2496 
L 1101 2496 
L 1101 4009 
L 1926 4009 
C 2003 4009 2080 4009 2157 4009 
L 3251 4009 
L 3251 4416 
L 563 4416 
L 563 0 
L 3334 0 
L 3334 433 
L 1958 433 
z
" transform="scale(0.015625)"/>
       <path id="CMSS17-6d" d="M 4288 1877 
C 4288 2308 4179 2816 3462 2816 
C 2982 2816 2694 2516 2566 2331 
C 2451 2670 2182 2816 1798 2816 
C 1363 2816 1088 2568 941 2389 
L 941 2758 
L 474 2758 
L 474 0 
L 960 0 
L 960 1559 
C 960 1939 1101 2428 1555 2428 
C 2138 2428 2138 2016 2138 1829 
L 2138 0 
L 2624 0 
L 2624 1559 
C 2624 1939 2765 2428 3219 2428 
C 3802 2428 3802 2016 3802 1829 
L 3802 0 
L 4288 0 
L 4288 1877 
z
" transform="scale(0.015625)"/>
       <path id="CMSS17-70" d="M 966 333 
C 1178 129 1466 -5 1773 -5 
C 2368 -5 2880 603 2880 1412 
C 2880 2159 2496 2816 1946 2816 
C 1626 2816 1242 2702 954 2472 
L 954 2765 
L 480 2765 
L 480 -1216 
L 966 -1216 
L 966 333 
z
M 966 2100 
C 1018 2176 1235 2415 1587 2415 
C 2035 2415 2394 1960 2394 1412 
C 2394 787 1958 384 1530 384 
C 1402 384 1267 415 1139 523 
C 966 674 966 768 966 857 
L 966 2100 
z
" transform="scale(0.015625)"/>
       <path id="CMSS17-69" d="M 979 4183 
L 442 4183 
L 442 3648 
L 979 3648 
L 979 4183 
z
M 947 2739 
L 474 2739 
L 474 0 
L 947 0 
L 947 2739 
z
" transform="scale(0.015625)"/>
       <path id="CMSS17-72" d="M 954 1363 
C 954 1965 1395 2368 1958 2368 
L 1958 2789 
C 1549 2789 1165 2585 934 2253 
L 934 2758 
L 480 2758 
L 480 0 
L 954 0 
L 954 1363 
z
" transform="scale(0.015625)"/>
       <path id="CMSS17-63" d="M 2464 2541 
C 2464 2585 2170 2714 2093 2739 
C 1882 2816 1613 2816 1542 2816 
C 710 2816 211 2093 211 1363 
C 211 595 768 -64 1517 -64 
C 1946 -64 2253 76 2502 242 
L 2464 664 
C 2189 453 1869 337 1523 337 
C 1024 337 698 774 698 1369 
C 698 1831 909 2414 1549 2414 
C 1901 2414 2099 2343 2394 2145 
L 2464 2541 
z
" transform="scale(0.015625)"/>
       <path id="CMSS17-6c" d="M 947 4416 
L 474 4416 
L 474 0 
L 947 0 
L 947 4416 
z
" transform="scale(0.015625)"/>
       <path id="CMSS17-44" d="M 570 4416 
L 570 0 
L 2144 0 
C 3194 0 4000 980 4000 2170 
C 4000 3398 3194 4416 2144 4416 
L 570 4416 
z
M 1094 357 
L 1094 4059 
L 2003 4059 
C 2861 4059 3475 3277 3475 2170 
C 3475 1107 2867 357 2003 357 
L 1094 357 
z
" transform="scale(0.015625)"/>
       <path id="CMSS17-65" d="M 2502 1377 
C 2502 1590 2490 2003 2285 2345 
C 2061 2713 1696 2816 1421 2816 
C 755 2816 192 2188 192 1375 
C 192 582 774 -64 1510 -64 
C 1798 -64 2150 19 2470 248 
C 2470 274 2458 414 2451 420 
C 2451 433 2432 630 2432 656 
C 2125 407 1773 325 1517 325 
C 1107 325 666 667 646 1377 
L 2502 1377 
z
M 698 1728 
C 781 2084 1062 2421 1421 2421 
C 1517 2421 1965 2421 2080 1728 
L 698 1728 
z
" transform="scale(0.015625)"/>
       <path id="CMSS17-6e" d="M 2618 1877 
C 2618 2283 2522 2816 1798 2816 
C 1389 2816 1120 2606 941 2389 
L 941 2758 
L 474 2758 
L 474 0 
L 960 0 
L 960 1559 
C 960 1964 1114 2428 1549 2428 
C 2112 2428 2131 2048 2131 1829 
L 2131 0 
L 2618 0 
L 2618 1877 
z
" transform="scale(0.015625)"/>
       <path id="CMSS17-73" d="M 2061 2627 
C 1683 2807 1389 2807 1197 2807 
C 742 2807 198 2648 198 2003 
C 198 1359 902 1218 1094 1179 
C 1389 1122 1715 1058 1715 740 
C 1715 337 1254 337 1171 337 
C 915 337 563 407 243 638 
L 166 210 
C 531 0 883 -64 1178 -64 
C 1965 -64 2163 416 2163 781 
C 2163 1094 1984 1305 1862 1401 
C 1651 1568 1574 1587 1050 1696 
C 960 1709 646 1779 646 2066 
C 646 2432 1050 2432 1139 2432 
C 1555 2432 1811 2303 1984 2208 
L 2061 2627 
z
" transform="scale(0.015625)"/>
       <path id="CMSS17-74" d="M 1069 2368 
L 1901 2368 
L 1901 2737 
L 1069 2737 
L 1069 3520 
L 614 3520 
L 614 2737 
L 109 2737 
L 109 2368 
L 602 2368 
L 602 749 
C 602 384 685 -64 1107 -64 
C 1427 -64 1722 25 2003 172 
L 1901 548 
C 1747 414 1562 337 1363 337 
C 1082 337 1069 696 1069 856 
L 1069 2368 
z
" transform="scale(0.015625)"/>
       <path id="CMSS17-79" d="M 2675 2752 
L 2176 2752 
C 1632 1294 1446 702 1434 383 
L 1427 383 
C 1408 696 1126 1460 902 2007 
L 602 2752 
L 83 2752 
L 1216 13 
C 1146 -178 1043 -465 1011 -529 
C 870 -885 774 -885 672 -885 
C 646 -885 442 -885 211 -809 
L 250 -1229 
C 410 -1261 570 -1280 685 -1280 
C 845 -1280 1165 -1280 1459 -497 
L 2675 2752 
z
" transform="scale(0.015625)"/>
      </defs>
      <use xlink:href="#CMSS17-45" transform="scale(0.996264)"/>
      <use xlink:href="#CMSS17-6d" transform="translate(55.892013 0) scale(0.996264)"/>
      <use xlink:href="#CMSS17-70" transform="translate(130.121268 0) scale(0.996264)"/>
      <use xlink:href="#CMSS17-69" transform="translate(178.326211 0) scale(0.996264)"/>
      <use xlink:href="#CMSS17-72" transform="translate(200.506934 0) scale(0.996264)"/>
      <use xlink:href="#CMSS17-69" transform="translate(232.416706 0) scale(0.996264)"/>
      <use xlink:href="#CMSS17-63" transform="translate(254.597429 0) scale(0.996264)"/>
      <use xlink:href="#CMSS17-61" transform="translate(296.236252 0) scale(0.996264)"/>
      <use xlink:href="#CMSS17-6c" transform="translate(341.158172 0) scale(0.996264)"/>
      <use xlink:href="#CMSS17-44" transform="translate(394.568008 0) scale(0.996264)"/>
      <use xlink:href="#CMSS17-65" transform="translate(462.11085 0) scale(0.996264)"/>
      <use xlink:href="#CMSS17-6e" transform="translate(503.749672 0) scale(0.996264)"/>
      <use xlink:href="#CMSS17-73" transform="translate(551.954615 0) scale(0.996264)"/>
      <use xlink:href="#CMSS17-69" transform="translate(587.868157 0) scale(0.996264)"/>
      <use xlink:href="#CMSS17-74" transform="translate(610.04888 0) scale(0.996264)"/>
      <use xlink:href="#CMSS17-79" transform="translate(641.277993 0) scale(0.996264)"/>
     </g>
    </g>
   </g>
   <g id="line2d_9">
    <path d="M 85.568913 173.52 
L 85.568913 7.2 
" clip-path="url(#p01fef00c6f)" style="fill: none; stroke-dasharray: 5.55,2.4; stroke-dashoffset: 0; stroke: #696969; stroke-width: 1.5"/>
   </g>
   <g id="line2d_10">
    <path d="M 176.638171 173.52 
L 176.638171 7.2 
" clip-path="url(#p01fef00c6f)" style="fill: none; stroke-dasharray: 5.55,2.4; stroke-dashoffset: 0; stroke: #b22222; stroke-width: 1.5"/>
   </g>
   <g id="line2d_11">
    <path d="M 204.918372 173.52 
L 204.918372 7.2 
" clip-path="url(#p01fef00c6f)" style="fill: none; stroke-dasharray: 5.55,2.4; stroke-dashoffset: 0; stroke: #0000cd; stroke-width: 1.5"/>
   </g>
   <g id="patch_72">
    <path d="M 34.679766 173.52 
L 34.679766 7.2 
" style="fill: none; stroke: #000000; stroke-width: 0.8; stroke-linejoin: miter; stroke-linecap: square"/>
   </g>
   <g id="patch_73">
    <path d="M 313.679766 173.52 
L 313.679766 7.2 
" style="fill: none; stroke: #000000; stroke-width: 0.8; stroke-linejoin: miter; stroke-linecap: square"/>
   </g>
   <g id="patch_74">
    <path d="M 34.679766 173.52 
L 313.679766 173.52 
" style="fill: none; stroke: #000000; stroke-width: 0.8; stroke-linejoin: miter; stroke-linecap: square"/>
   </g>
   <g id="patch_75">
    <path d="M 34.679766 7.2 
L 313.679766 7.2 
" style="fill: none; stroke: #000000; stroke-width: 0.8; stroke-linejoin: miter; stroke-linecap: square"/>
   </g>
   <g id="legend_1">
    <g id="patch_76">
     <path d="M 43.779766 74.621176 
L 110.409911 74.621176 
Q 113.009911 74.621176 113.009911 72.021176 
L 113.009911 16.3 
Q 113.009911 13.7 110.409911 13.7 
L 43.779766 13.7 
Q 41.179766 13.7 41.179766 16.3 
L 41.179766 72.021176 
Q 41.179766 74.621176 43.779766 74.621176 
z
" style="fill: #ffffff; opacity: 0.8; stroke: #cccccc; stroke-linejoin: miter"/>
    </g>
    <g id="patch_77">
     <path d="M 46.379766 28 
L 72.379766 28 
L 72.379766 18.9 
L 46.379766 18.9 
z
" style="fill: #c0c0c0; opacity: 0.7"/>
    </g>
    <g id="text_11">
     <!-- Ours -->
     <g transform="translate(82.779766 28) scale(0.13 -0.13)">
      <defs>
       <path id="CMSS17-4f" d="M 4096 2178 
C 4096 3503 3219 4497 2214 4497 
C 1210 4497 333 3497 333 2178 
C 333 847 1222 -128 2214 -128 
C 3206 -128 4096 847 4096 2178 
z
M 2214 273 
C 1510 273 870 1057 870 2261 
C 870 3433 1549 4096 2214 4096 
C 2880 4096 3558 3433 3558 2261 
C 3558 1051 2912 273 2214 273 
z
" transform="scale(0.015625)"/>
       <path id="CMSS17-75" d="M 2618 2739 
L 2131 2739 
L 2131 972 
C 2131 498 1786 306 1421 306 
C 998 306 960 447 960 709 
L 960 2739 
L 474 2739 
L 474 678 
C 474 179 646 -64 1088 -64 
C 1306 -64 1798 -13 2144 306 
L 2144 0 
L 2618 0 
L 2618 2739 
z
" transform="scale(0.015625)"/>
      </defs>
      <use xlink:href="#CMSS17-4f" transform="scale(0.996264)"/>
      <use xlink:href="#CMSS17-75" transform="translate(69.024255 0) scale(0.996264)"/>
      <use xlink:href="#CMSS17-72" transform="translate(117.229198 0) scale(0.996264)"/>
      <use xlink:href="#CMSS17-73" transform="translate(149.138971 0) scale(0.996264)"/>
     </g>
    </g>
    <g id="patch_78">
     <path d="M 46.379766 46.731886 
L 72.379766 46.731886 
L 72.379766 37.631886 
L 46.379766 37.631886 
z
" style="fill: #ff0000; opacity: 0.7"/>
    </g>
    <g id="text_12">
     <!-- [32] -->
     <g transform="translate(82.779766 46.731886) scale(0.13 -0.13)">
      <defs>
       <path id="CMSS17-5b" d="M 1613 -1600 
L 1613 -1212 
L 1062 -1212 
L 1062 4352 
L 1613 4352 
L 1613 4741 
L 595 4741 
L 595 -1600 
L 1613 -1600 
z
" transform="scale(0.015625)"/>
       <path id="CMSS17-33" d="M 1005 2025 
L 1440 2025 
C 2042 2025 2214 1507 2214 1146 
C 2214 653 1933 267 1472 267 
C 1114 267 608 444 320 912 
C 275 691 275 678 250 526 
C 550 88 1037 -128 1485 -128 
C 2214 -128 2752 473 2752 1138 
C 2752 1638 2400 2057 1920 2215 
C 2304 2424 2586 2816 2586 3273 
C 2586 3805 2093 4229 1491 4229 
C 941 4229 512 3892 333 3530 
C 378 3468 493 3284 550 3189 
C 691 3562 1056 3840 1485 3840 
C 1843 3840 2080 3607 2080 3271 
C 2080 2923 1856 2543 1478 2455 
C 1453 2455 1056 2417 1005 2411 
L 1005 2025 
z
" transform="scale(0.015625)"/>
       <path id="CMSS17-32" d="M 1651 1357 
C 1830 1541 2099 1764 2285 1987 
C 2464 2204 2701 2511 2701 2957 
C 2701 3657 2227 4288 1421 4288 
C 787 4288 422 3893 250 3274 
L 499 2929 
C 640 3510 838 3880 1338 3880 
C 1888 3880 2195 3433 2195 2942 
C 2195 2355 1747 1901 1408 1563 
C 1030 1187 659 804 301 408 
L 301 0 
L 2701 0 
L 2701 433 
L 1613 433 
C 1536 433 1459 433 1382 433 
L 742 433 
L 742 439 
L 1651 1357 
z
" transform="scale(0.015625)"/>
       <path id="CMSS17-5d" d="M 1146 4741 
L 128 4741 
L 128 4352 
L 678 4352 
L 678 -1212 
L 128 -1212 
L 128 -1600 
L 1146 -1600 
L 1146 4741 
z
" transform="scale(0.015625)"/>
      </defs>
      <use xlink:href="#CMSS17-5b" transform="scale(0.996264)"/>
      <use xlink:href="#CMSS17-33" transform="translate(27.185439 0) scale(0.996264)"/>
      <use xlink:href="#CMSS17-32" transform="translate(74.029062 0) scale(0.996264)"/>
      <use xlink:href="#CMSS17-5d" transform="translate(120.872686 0) scale(0.996264)"/>
     </g>
    </g>
    <g id="patch_79">
     <path d="M 46.379766 66.183318 
L 72.379766 66.183318 
L 72.379766 57.083318 
L 46.379766 57.083318 
z
" style="fill: #0000ff; opacity: 0.7"/>
    </g>
    <g id="text_13">
     <!-- [11] -->
     <g transform="translate(82.779766 66.183318) scale(0.13 -0.13)">
      <defs>
       <path id="CMSS17-31" d="M 1818 4288 
L 1696 4288 
C 1350 3940 947 3890 538 3890 
L 538 3520 
C 723 3520 1024 3520 1325 3667 
L 1325 369 
L 570 369 
L 570 0 
L 2573 0 
L 2573 369 
L 1818 369 
L 1818 4288 
z
" transform="scale(0.015625)"/>
      </defs>
      <use xlink:href="#CMSS17-5b" transform="scale(0.996264)"/>
      <use xlink:href="#CMSS17-31" transform="translate(27.185439 0) scale(0.996264)"/>
      <use xlink:href="#CMSS17-31" transform="translate(74.029062 0) scale(0.996264)"/>
      <use xlink:href="#CMSS17-5d" transform="translate(120.872686 0) scale(0.996264)"/>
     </g>
    </g>
   </g>
  </g>
 </g>
 <defs>
  <clipPath id="p01fef00c6f">
   <rect x="34.679766" y="7.2" width="279" height="166.32"/>
  </clipPath>
 </defs>
</svg>
