<?xml version="1.0" encoding="utf-8" standalone="no"?>
<!DOCTYPE svg PUBLIC "-//W3C//DTD SVG 1.1//EN"
  "http://www.w3.org/Graphics/SVG/1.1/DTD/svg11.dtd">
<svg xmlns:xlink="http://www.w3.org/1999/xlink" width="320.879766pt" height="214.354968pt" viewBox="0 0 320.879766 214.354968" xmlns="http://www.w3.org/2000/svg" version="1.1">
 <metadata>
  <rdf:RDF xmlns:dc="http://purl.org/dc/elements/1.1/" xmlns:cc="http://creativecommons.org/ns#" xmlns:rdf="http://www.w3.org/1999/02/22-rdf-syntax-ns#">
   <cc:Work>
    <dc:type rdf:resource="http://purl.org/dc/dcmitype/StillImage"/>
    <dc:date>2024-04-14T20:31:26.314513</dc:date>
    <dc:format>image/svg+xml</dc:format>
    <dc:creator>
     <cc:Agent>
      <dc:title>Matplotlib v3.7.0, https://matplotlib.org/</dc:title>
     </cc:Agent>
    </dc:creator>
   </cc:Work>
  </rdf:RDF>
 </metadata>
 <defs>
  <style type="text/css">*{stroke-linejoin: round; stroke-linecap: butt}</style>
 </defs>
 <g id="figure_1">
  <g id="patch_1">
   <path d="M 0 214.354968 
L 320.879766 214.354968 
L 320.879766 0 
L 0 0 
z
" style="fill: #ffffff"/>
  </g>
  <g id="axes_1">
   <g id="patch_2">
    <path d="M 34.679766 173.52 
L 313.679766 173.52 
L 313.679766 7.2 
L 34.679766 7.2 
z
" style="fill: #ffffff"/>
   </g>
   <g id="patch_3">
    <path d="M 123.750121 173.52 
L 127.665631 173.52 
L 127.665631 172.11823 
L 123.750121 172.11823 
z
" clip-path="url(#p5022617108)" style="fill: #c0c0c0; opacity: 0.7"/>
   </g>
   <g id="patch_4">
    <path d="M 127.665631 173.52 
L 131.581141 173.52 
L 131.581141 172.11823 
L 127.665631 172.11823 
z
" clip-path="url(#p5022617108)" style="fill: #c0c0c0; opacity: 0.7"/>
   </g>
   <g id="patch_5">
    <path d="M 131.581141 173.52 
L 135.49665 173.52 
L 135.49665 169.31469 
L 131.581141 169.31469 
z
" clip-path="url(#p5022617108)" style="fill: #c0c0c0; opacity: 0.7"/>
   </g>
   <g id="patch_6">
    <path d="M 135.49665 173.52 
L 139.41216 173.52 
L 139.41216 170.71646 
L 135.49665 170.71646 
z
" clip-path="url(#p5022617108)" style="fill: #c0c0c0; opacity: 0.7"/>
   </g>
   <g id="patch_7">
    <path d="M 139.41216 173.52 
L 143.32767 173.52 
L 143.32767 162.305841 
L 139.41216 162.305841 
z
" clip-path="url(#p5022617108)" style="fill: #c0c0c0; opacity: 0.7"/>
   </g>
   <g id="patch_8">
    <path d="M 143.32767 173.52 
L 147.243179 173.52 
L 147.243179 163.707611 
L 143.32767 163.707611 
z
" clip-path="url(#p5022617108)" style="fill: #c0c0c0; opacity: 0.7"/>
   </g>
   <g id="patch_9">
    <path d="M 147.243179 173.52 
L 151.158689 173.52 
L 151.158689 152.493451 
L 147.243179 152.493451 
z
" clip-path="url(#p5022617108)" style="fill: #c0c0c0; opacity: 0.7"/>
   </g>
   <g id="patch_10">
    <path d="M 151.158689 173.52 
L 155.074199 173.52 
L 155.074199 121.654513 
L 151.158689 121.654513 
z
" clip-path="url(#p5022617108)" style="fill: #c0c0c0; opacity: 0.7"/>
   </g>
   <g id="patch_11">
    <path d="M 155.074199 173.52 
L 158.989708 173.52 
L 158.989708 102.029735 
L 155.074199 102.029735 
z
" clip-path="url(#p5022617108)" style="fill: #c0c0c0; opacity: 0.7"/>
   </g>
   <g id="patch_12">
    <path d="M 158.989708 173.52 
L 162.905218 173.52 
L 162.905218 62.780177 
L 158.989708 62.780177 
z
" clip-path="url(#p5022617108)" style="fill: #c0c0c0; opacity: 0.7"/>
   </g>
   <g id="patch_13">
    <path d="M 162.905218 173.52 
L 166.820728 173.52 
L 166.820728 51.566018 
L 162.905218 51.566018 
z
" clip-path="url(#p5022617108)" style="fill: #c0c0c0; opacity: 0.7"/>
   </g>
   <g id="patch_14">
    <path d="M 166.820728 173.52 
L 170.736238 173.52 
L 170.736238 38.950088 
L 166.820728 38.950088 
z
" clip-path="url(#p5022617108)" style="fill: #c0c0c0; opacity: 0.7"/>
   </g>
   <g id="patch_15">
    <path d="M 170.736238 173.52 
L 174.651747 173.52 
L 174.651747 15.12 
L 170.736238 15.12 
z
" clip-path="url(#p5022617108)" style="fill: #c0c0c0; opacity: 0.7"/>
   </g>
   <g id="patch_16">
    <path d="M 174.651747 173.52 
L 178.567257 173.52 
L 178.567257 23.530619 
L 174.651747 23.530619 
z
" clip-path="url(#p5022617108)" style="fill: #c0c0c0; opacity: 0.7"/>
   </g>
   <g id="patch_17">
    <path d="M 178.567257 173.52 
L 182.482767 173.52 
L 182.482767 50.164248 
L 178.567257 50.164248 
z
" clip-path="url(#p5022617108)" style="fill: #c0c0c0; opacity: 0.7"/>
   </g>
   <g id="patch_18">
    <path d="M 182.482767 173.52 
L 186.398276 173.52 
L 186.398276 57.173097 
L 182.482767 57.173097 
z
" clip-path="url(#p5022617108)" style="fill: #c0c0c0; opacity: 0.7"/>
   </g>
   <g id="patch_19">
    <path d="M 186.398276 173.52 
L 190.313786 173.52 
L 190.313786 69.789027 
L 186.398276 69.789027 
z
" clip-path="url(#p5022617108)" style="fill: #c0c0c0; opacity: 0.7"/>
   </g>
   <g id="patch_20">
    <path d="M 190.313786 173.52 
L 194.229296 173.52 
L 194.229296 109.038584 
L 190.313786 109.038584 
z
" clip-path="url(#p5022617108)" style="fill: #c0c0c0; opacity: 0.7"/>
   </g>
   <g id="patch_21">
    <path d="M 194.229296 173.52 
L 198.144805 173.52 
L 198.144805 118.850973 
L 194.229296 118.850973 
z
" clip-path="url(#p5022617108)" style="fill: #c0c0c0; opacity: 0.7"/>
   </g>
   <g id="patch_22">
    <path d="M 198.144805 173.52 
L 202.060315 173.52 
L 202.060315 142.681062 
L 198.144805 142.681062 
z
" clip-path="url(#p5022617108)" style="fill: #c0c0c0; opacity: 0.7"/>
   </g>
   <g id="patch_23">
    <path d="M 202.060315 173.52 
L 205.975825 173.52 
L 205.975825 148.288142 
L 202.060315 148.288142 
z
" clip-path="url(#p5022617108)" style="fill: #c0c0c0; opacity: 0.7"/>
   </g>
   <g id="patch_24">
    <path d="M 205.975825 173.52 
L 209.891334 173.52 
L 209.891334 159.502301 
L 205.975825 159.502301 
z
" clip-path="url(#p5022617108)" style="fill: #c0c0c0; opacity: 0.7"/>
   </g>
   <g id="patch_25">
    <path d="M 209.891334 173.52 
L 213.806844 173.52 
L 213.806844 163.707611 
L 209.891334 163.707611 
z
" clip-path="url(#p5022617108)" style="fill: #c0c0c0; opacity: 0.7"/>
   </g>
   <g id="patch_26">
    <path d="M 213.806844 173.52 
L 217.722354 173.52 
L 217.722354 169.31469 
L 213.806844 169.31469 
z
" clip-path="url(#p5022617108)" style="fill: #c0c0c0; opacity: 0.7"/>
   </g>
   <g id="patch_27">
    <path d="M 217.722354 173.52 
L 221.637863 173.52 
L 221.637863 169.31469 
L 217.722354 169.31469 
z
" clip-path="url(#p5022617108)" style="fill: #c0c0c0; opacity: 0.7"/>
   </g>
   <g id="patch_28">
    <path d="M 47.361584 173.52 
L 56.755523 173.52 
L 56.755523 172.935725 
L 47.361584 172.935725 
z
" clip-path="url(#p5022617108)" style="fill: #ff0000; opacity: 0.7"/>
   </g>
   <g id="patch_29">
    <path d="M 56.755523 173.52 
L 66.149463 173.52 
L 66.149463 173.52 
L 56.755523 173.52 
z
" clip-path="url(#p5022617108)" style="fill: #ff0000; opacity: 0.7"/>
   </g>
   <g id="patch_30">
    <path d="M 66.149463 173.52 
L 75.543402 173.52 
L 75.543402 173.52 
L 66.149463 173.52 
z
" clip-path="url(#p5022617108)" style="fill: #ff0000; opacity: 0.7"/>
   </g>
   <g id="patch_31">
    <path d="M 75.543402 173.52 
L 84.937342 173.52 
L 84.937342 173.52 
L 75.543402 173.52 
z
" clip-path="url(#p5022617108)" style="fill: #ff0000; opacity: 0.7"/>
   </g>
   <g id="patch_32">
    <path d="M 84.937342 173.52 
L 94.331281 173.52 
L 94.331281 173.52 
L 84.937342 173.52 
z
" clip-path="url(#p5022617108)" style="fill: #ff0000; opacity: 0.7"/>
   </g>
   <g id="patch_33">
    <path d="M 94.331281 173.52 
L 103.72522 173.52 
L 103.72522 172.935725 
L 94.331281 172.935725 
z
" clip-path="url(#p5022617108)" style="fill: #ff0000; opacity: 0.7"/>
   </g>
   <g id="patch_34">
    <path d="M 103.72522 173.52 
L 113.11916 173.52 
L 113.11916 171.767175 
L 103.72522 171.767175 
z
" clip-path="url(#p5022617108)" style="fill: #ff0000; opacity: 0.7"/>
   </g>
   <g id="patch_35">
    <path d="M 113.11916 173.52 
L 122.513099 173.52 
L 122.513099 170.598625 
L 113.11916 170.598625 
z
" clip-path="url(#p5022617108)" style="fill: #ff0000; opacity: 0.7"/>
   </g>
   <g id="patch_36">
    <path d="M 122.513099 173.52 
L 131.907039 173.52 
L 131.907039 167.67725 
L 122.513099 167.67725 
z
" clip-path="url(#p5022617108)" style="fill: #ff0000; opacity: 0.7"/>
   </g>
   <g id="patch_37">
    <path d="M 131.907039 173.52 
L 141.300978 173.52 
L 141.300978 165.34015 
L 131.907039 165.34015 
z
" clip-path="url(#p5022617108)" style="fill: #ff0000; opacity: 0.7"/>
   </g>
   <g id="patch_38">
    <path d="M 141.300978 173.52 
L 150.694917 173.52 
L 150.694917 152.486101 
L 141.300978 152.486101 
z
" clip-path="url(#p5022617108)" style="fill: #ff0000; opacity: 0.7"/>
   </g>
   <g id="patch_39">
    <path d="M 150.694917 173.52 
L 160.088857 173.52 
L 160.088857 155.991751 
L 150.694917 155.991751 
z
" clip-path="url(#p5022617108)" style="fill: #ff0000; opacity: 0.7"/>
   </g>
   <g id="patch_40">
    <path d="M 160.088857 173.52 
L 169.482796 173.52 
L 169.482796 141.969152 
L 160.088857 141.969152 
z
" clip-path="url(#p5022617108)" style="fill: #ff0000; opacity: 0.7"/>
   </g>
   <g id="patch_41">
    <path d="M 169.482796 173.52 
L 178.876736 173.52 
L 178.876736 123.272352 
L 169.482796 123.272352 
z
" clip-path="url(#p5022617108)" style="fill: #ff0000; opacity: 0.7"/>
   </g>
   <g id="patch_42">
    <path d="M 178.876736 173.52 
L 188.270675 173.52 
L 188.270675 122.103803 
L 178.876736 122.103803 
z
" clip-path="url(#p5022617108)" style="fill: #ff0000; opacity: 0.7"/>
   </g>
   <g id="patch_43">
    <path d="M 188.270675 173.52 
L 197.664614 173.52 
L 197.664614 114.508228 
L 188.270675 114.508228 
z
" clip-path="url(#p5022617108)" style="fill: #ff0000; opacity: 0.7"/>
   </g>
   <g id="patch_44">
    <path d="M 197.664614 173.52 
L 207.058554 173.52 
L 207.058554 109.249753 
L 197.664614 109.249753 
z
" clip-path="url(#p5022617108)" style="fill: #ff0000; opacity: 0.7"/>
   </g>
   <g id="patch_45">
    <path d="M 207.058554 173.52 
L 216.452493 173.52 
L 216.452493 120.935253 
L 207.058554 120.935253 
z
" clip-path="url(#p5022617108)" style="fill: #ff0000; opacity: 0.7"/>
   </g>
   <g id="patch_46">
    <path d="M 216.452493 173.52 
L 225.846432 173.52 
L 225.846432 120.935253 
L 216.452493 120.935253 
z
" clip-path="url(#p5022617108)" style="fill: #ff0000; opacity: 0.7"/>
   </g>
   <g id="patch_47">
    <path d="M 225.846432 173.52 
L 235.240372 173.52 
L 235.240372 117.429603 
L 225.846432 117.429603 
z
" clip-path="url(#p5022617108)" style="fill: #ff0000; opacity: 0.7"/>
   </g>
   <g id="patch_48">
    <path d="M 235.240372 173.52 
L 244.634311 173.52 
L 244.634311 138.463502 
L 235.240372 138.463502 
z
" clip-path="url(#p5022617108)" style="fill: #ff0000; opacity: 0.7"/>
   </g>
   <g id="patch_49">
    <path d="M 244.634311 173.52 
L 254.028251 173.52 
L 254.028251 150.149001 
L 244.634311 150.149001 
z
" clip-path="url(#p5022617108)" style="fill: #ff0000; opacity: 0.7"/>
   </g>
   <g id="patch_50">
    <path d="M 254.028251 173.52 
L 263.42219 173.52 
L 263.42219 151.901826 
L 254.028251 151.901826 
z
" clip-path="url(#p5022617108)" style="fill: #ff0000; opacity: 0.7"/>
   </g>
   <g id="patch_51">
    <path d="M 263.42219 173.52 
L 272.816129 173.52 
L 272.816129 165.924425 
L 263.42219 165.924425 
z
" clip-path="url(#p5022617108)" style="fill: #ff0000; opacity: 0.7"/>
   </g>
   <g id="patch_52">
    <path d="M 272.816129 173.52 
L 282.210069 173.52 
L 282.210069 162.418776 
L 272.816129 162.418776 
z
" clip-path="url(#p5022617108)" style="fill: #ff0000; opacity: 0.7"/>
   </g>
   <g id="patch_53">
    <path d="M 282.210069 173.52 
L 291.604008 173.52 
L 291.604008 167.092975 
L 282.210069 167.092975 
z
" clip-path="url(#p5022617108)" style="fill: #ff0000; opacity: 0.7"/>
   </g>
   <g id="patch_54">
    <path d="M 291.604008 173.52 
L 300.997948 173.52 
L 300.997948 170.598625 
L 291.604008 170.598625 
z
" clip-path="url(#p5022617108)" style="fill: #ff0000; opacity: 0.7"/>
   </g>
   <g id="matplotlib.axis_1">
    <g id="xtick_1">
     <g id="line2d_1">
      <defs>
       <path id="m2eebc9f5f9" d="M 0 0 
L 0 3.5 
" style="stroke: #000000; stroke-width: 0.8"/>
      </defs>
      <g>
       <use xlink:href="#m2eebc9f5f9" x="73.498826" y="173.52" style="stroke: #000000; stroke-width: 0.8"/>
      </g>
     </g>
     <g id="text_1">
      <!-- $\mathdefault{0.5}$ -->
      <g transform="translate(66.020005 188.82218) scale(0.12 -0.12)">
       <defs>
        <path id="CMR17-30" d="M 2688 2025 
C 2688 2416 2682 3080 2413 3591 
C 2176 4039 1798 4198 1466 4198 
C 1158 4198 768 4058 525 3597 
C 269 3118 243 2524 243 2025 
C 243 1661 250 1106 448 619 
C 723 -39 1216 -128 1466 -128 
C 1760 -128 2208 -7 2470 600 
C 2662 1042 2688 1559 2688 2025 
z
M 1466 -26 
C 1056 -26 813 325 723 812 
C 653 1188 653 1738 653 2096 
C 653 2588 653 2997 736 3387 
C 858 3929 1216 4096 1466 4096 
C 1728 4096 2067 3923 2189 3400 
C 2272 3036 2278 2607 2278 2096 
C 2278 1680 2278 1169 2202 792 
C 2067 95 1690 -26 1466 -26 
z
" transform="scale(0.015625)"/>
        <path id="CMMI12-3a" d="M 1178 307 
C 1178 492 1024 619 870 619 
C 685 619 557 466 557 313 
C 557 128 710 0 864 0 
C 1050 0 1178 153 1178 307 
z
" transform="scale(0.015625)"/>
        <path id="CMR17-35" d="M 730 3692 
C 794 3666 1056 3584 1325 3584 
C 1920 3584 2246 3911 2432 4100 
C 2432 4157 2432 4192 2394 4192 
C 2387 4192 2374 4192 2323 4163 
C 2099 4058 1837 3973 1517 3973 
C 1325 3973 1037 3999 723 4139 
C 653 4171 640 4171 634 4171 
C 602 4171 595 4164 595 4037 
L 595 2203 
C 595 2089 595 2057 659 2057 
C 691 2057 704 2070 736 2114 
C 941 2401 1222 2522 1542 2522 
C 1766 2522 2246 2382 2246 1289 
C 2246 1085 2246 715 2054 421 
C 1894 159 1645 25 1370 25 
C 947 25 518 320 403 814 
C 429 807 480 795 506 795 
C 589 795 749 840 749 1038 
C 749 1210 627 1280 506 1280 
C 358 1280 262 1190 262 1011 
C 262 454 704 -128 1382 -128 
C 2042 -128 2669 440 2669 1264 
C 2669 2030 2170 2624 1549 2624 
C 1222 2624 947 2503 730 2274 
L 730 3692 
z
" transform="scale(0.015625)"/>
       </defs>
       <use xlink:href="#CMR17-30" transform="scale(0.996264)"/>
       <use xlink:href="#CMMI12-3a" transform="translate(45.690477 0) scale(0.996264)"/>
       <use xlink:href="#CMR17-35" transform="translate(72.787654 0) scale(0.996264)"/>
      </g>
     </g>
    </g>
    <g id="xtick_2">
     <g id="line2d_2">
      <g>
       <use xlink:href="#m2eebc9f5f9" x="130.624974" y="173.52" style="stroke: #000000; stroke-width: 0.8"/>
      </g>
     </g>
     <g id="text_2">
      <!-- $\mathdefault{1.0}$ -->
      <g transform="translate(123.146153 188.82218) scale(0.12 -0.12)">
       <defs>
        <path id="CMR17-31" d="M 1702 4058 
C 1702 4192 1696 4192 1606 4192 
C 1357 3916 979 3827 621 3827 
C 602 3827 570 3827 563 3808 
C 557 3795 557 3782 557 3648 
C 755 3648 1088 3686 1344 3839 
L 1344 461 
C 1344 236 1331 160 781 160 
L 589 160 
L 589 0 
C 896 0 1216 0 1523 0 
C 1830 0 2150 0 2458 0 
L 2458 160 
L 2266 160 
C 1715 160 1702 230 1702 458 
L 1702 4058 
z
" transform="scale(0.015625)"/>
       </defs>
       <use xlink:href="#CMR17-31" transform="scale(0.996264)"/>
       <use xlink:href="#CMMI12-3a" transform="translate(45.690477 0) scale(0.996264)"/>
       <use xlink:href="#CMR17-30" transform="translate(72.787654 0) scale(0.996264)"/>
      </g>
     </g>
    </g>
    <g id="xtick_3">
     <g id="line2d_3">
      <g>
       <use xlink:href="#m2eebc9f5f9" x="187.751122" y="173.52" style="stroke: #000000; stroke-width: 0.8"/>
      </g>
     </g>
     <g id="text_3">
      <!-- $\mathdefault{1.5}$ -->
      <g transform="translate(180.272301 188.82218) scale(0.12 -0.12)">
       <use xlink:href="#CMR17-31" transform="scale(0.996264)"/>
       <use xlink:href="#CMMI12-3a" transform="translate(45.690477 0) scale(0.996264)"/>
       <use xlink:href="#CMR17-35" transform="translate(72.787654 0) scale(0.996264)"/>
      </g>
     </g>
    </g>
    <g id="xtick_4">
     <g id="line2d_4">
      <g>
       <use xlink:href="#m2eebc9f5f9" x="244.87727" y="173.52" style="stroke: #000000; stroke-width: 0.8"/>
      </g>
     </g>
     <g id="text_4">
      <!-- $\mathdefault{2.0}$ -->
      <g transform="translate(237.39845 188.82218) scale(0.12 -0.12)">
       <defs>
        <path id="CMR17-32" d="M 2669 989 
L 2554 989 
C 2490 536 2438 459 2413 420 
C 2381 369 1920 369 1830 369 
L 602 369 
C 832 619 1280 1072 1824 1597 
C 2214 1967 2669 2402 2669 3035 
C 2669 3790 2067 4224 1395 4224 
C 691 4224 262 3604 262 3030 
C 262 2780 448 2748 525 2748 
C 589 2748 781 2787 781 3010 
C 781 3207 614 3264 525 3264 
C 486 3264 448 3258 422 3245 
C 544 3790 915 4058 1306 4058 
C 1862 4058 2227 3617 2227 3035 
C 2227 2479 1901 2000 1536 1584 
L 262 146 
L 262 0 
L 2515 0 
L 2669 989 
z
" transform="scale(0.015625)"/>
       </defs>
       <use xlink:href="#CMR17-32" transform="scale(0.996264)"/>
       <use xlink:href="#CMMI12-3a" transform="translate(45.690477 0) scale(0.996264)"/>
       <use xlink:href="#CMR17-30" transform="translate(72.787654 0) scale(0.996264)"/>
      </g>
     </g>
    </g>
    <g id="xtick_5">
     <g id="line2d_5">
      <g>
       <use xlink:href="#m2eebc9f5f9" x="302.003419" y="173.52" style="stroke: #000000; stroke-width: 0.8"/>
      </g>
     </g>
     <g id="text_5">
      <!-- $\mathdefault{2.5}$ -->
      <g transform="translate(294.524598 188.82218) scale(0.12 -0.12)">
       <use xlink:href="#CMR17-32" transform="scale(0.996264)"/>
       <use xlink:href="#CMMI12-3a" transform="translate(45.690477 0) scale(0.996264)"/>
       <use xlink:href="#CMR17-35" transform="translate(72.787654 0) scale(0.996264)"/>
      </g>
     </g>
    </g>
    <g id="text_6">
     <!-- $\overline{\textup{CVaR}}_{\tau} - \textup{CVaR}_{\tau}$ -->
     <g transform="translate(134.380017 204.830372) scale(0.12 -0.12)">
      <defs>
       <path id="CMSS17-43" d="M 3501 714 
C 3072 427 2874 344 2355 344 
C 1459 344 934 1303 934 2179 
C 934 3112 1472 4032 2381 4032 
C 2790 4032 3059 3918 3386 3715 
L 3475 4217 
C 3168 4370 2778 4440 2387 4440 
C 1158 4440 397 3316 397 2179 
C 397 927 1299 -64 2323 -64 
C 2874 -64 3066 -19 3539 280 
L 3501 714 
z
" transform="scale(0.015625)"/>
       <path id="CMSS17-56" d="M 3910 4416 
L 3411 4416 
L 2304 1362 
C 2272 1273 2074 688 2035 484 
L 2029 484 
C 1978 726 1773 1292 1664 1604 
L 922 3672 
L 646 4416 
L 83 4416 
L 1715 0 
L 2278 0 
L 3910 4416 
z
" transform="scale(0.015625)"/>
       <path id="CMSS17-61" d="M 2406 1791 
C 2406 2392 1978 2808 1402 2808 
C 1120 2808 813 2757 461 2553 
L 499 2135 
C 659 2248 934 2432 1395 2432 
C 1722 2432 1920 2180 1920 1782 
L 1920 1536 
C 896 1536 256 1238 256 726 
C 256 461 416 -64 947 -64 
C 1043 -64 1562 -64 1933 217 
L 1933 -19 
L 2406 -19 
L 2406 1791 
z
M 1920 816 
C 1920 701 1920 548 1728 434 
C 1562 325 1350 325 1261 325 
C 941 325 723 511 723 744 
C 723 1211 1722 1211 1920 1211 
L 1920 816 
z
" transform="scale(0.015625)"/>
       <path id="CMSS17-52" d="M 2522 2109 
L 2534 2115 
C 3533 2459 3539 3147 3539 3268 
C 3539 3873 2925 4453 2003 4453 
L 570 4453 
L 570 32 
L 1094 32 
L 1094 2048 
L 2035 2048 
L 3168 32 
L 3706 32 
L 2522 2109 
z
M 1094 2437 
L 1094 4096 
L 1933 4096 
C 2746 4096 3034 3637 3034 3267 
C 3034 2922 2778 2437 1933 2437 
L 1094 2437 
z
" transform="scale(0.015625)"/>
       <path id="CMMI12-1c" d="M 1837 2408 
L 2899 2408 
C 2982 2408 3194 2408 3194 2612 
C 3194 2752 3072 2752 2957 2752 
L 1197 2752 
C 1050 2752 832 2752 538 2440 
C 371 2255 166 1917 166 1879 
C 166 1841 198 1828 237 1828 
C 282 1828 288 1847 320 1885 
C 653 2408 986 2408 1146 2408 
L 1677 2408 
L 1011 223 
C 979 127 979 114 979 95 
C 979 25 1024 -64 1152 -64 
C 1350 -64 1382 108 1402 203 
L 1837 2408 
z
" transform="scale(0.015625)"/>
       <path id="CMSY10-0" d="M 4218 1472 
C 4326 1472 4442 1472 4442 1600 
C 4442 1728 4326 1728 4218 1728 
L 755 1728 
C 646 1728 531 1728 531 1600 
C 531 1472 646 1472 755 1472 
L 4218 1472 
z
" transform="scale(0.015625)"/>
      </defs>
      <use xlink:href="#CMSS17-43" transform="scale(0.996264)"/>
      <use xlink:href="#CMSS17-56" transform="translate(59.855772 0) scale(0.996264)"/>
      <use xlink:href="#CMSS17-61" transform="translate(119.471173 0) scale(0.996264)"/>
      <use xlink:href="#CMSS17-52" transform="translate(164.393093 0) scale(0.996264)"/>
      <use xlink:href="#CMMI12-1c" transform="translate(224.809248 -14.943915) scale(0.697382)"/>
      <use xlink:href="#CMSY10-0" transform="translate(284.890234 0) scale(0.996264)"/>
      <use xlink:href="#CMSS17-43" transform="translate(384.516909 0) scale(0.996264)"/>
      <use xlink:href="#CMSS17-56" transform="translate(444.37268 0) scale(0.996264)"/>
      <use xlink:href="#CMSS17-61" transform="translate(503.988081 0) scale(0.996264)"/>
      <use xlink:href="#CMSS17-52" transform="translate(548.910002 0) scale(0.996264)"/>
      <use xlink:href="#CMMI12-1c" transform="translate(609.326157 -14.943915) scale(0.697382)"/>
      <path d="M 0 81.139863 
L 224.809248 81.139863 
L 224.809248 85.124813 
L 0 85.124813 
L 0 81.139863 
z
"/>
     </g>
    </g>
   </g>
   <g id="matplotlib.axis_2">
    <g id="ytick_1">
     <g id="line2d_6">
      <defs>
       <path id="mcec0f80632" d="M 0 0 
L -3.5 0 
" style="stroke: #000000; stroke-width: 0.8"/>
      </defs>
      <g>
       <use xlink:href="#mcec0f80632" x="34.679766" y="173.52" style="stroke: #000000; stroke-width: 0.8"/>
      </g>
     </g>
     <g id="text_7">
      <!-- $\mathdefault{0}$ -->
      <g transform="translate(21.826776 177.67109) scale(0.12 -0.12)">
       <use xlink:href="#CMR17-30" transform="scale(0.996264)"/>
      </g>
     </g>
    </g>
    <g id="ytick_2">
     <g id="line2d_7">
      <g>
       <use xlink:href="#mcec0f80632" x="34.679766" y="125.480321" style="stroke: #000000; stroke-width: 0.8"/>
      </g>
     </g>
     <g id="text_8">
      <!-- $\mathdefault{1}$ -->
      <g transform="translate(21.826776 129.631411) scale(0.12 -0.12)">
       <use xlink:href="#CMR17-31" transform="scale(0.996264)"/>
      </g>
     </g>
    </g>
    <g id="ytick_3">
     <g id="line2d_8">
      <g>
       <use xlink:href="#mcec0f80632" x="34.679766" y="77.440642" style="stroke: #000000; stroke-width: 0.8"/>
      </g>
     </g>
     <g id="text_9">
      <!-- $\mathdefault{2}$ -->
      <g transform="translate(21.826776 81.591732) scale(0.12 -0.12)">
       <use xlink:href="#CMR17-32" transform="scale(0.996264)"/>
      </g>
     </g>
    </g>
    <g id="ytick_4">
     <g id="line2d_9">
      <g>
       <use xlink:href="#mcec0f80632" x="34.679766" y="29.400962" style="stroke: #000000; stroke-width: 0.8"/>
      </g>
     </g>
     <g id="text_10">
      <!-- $\mathdefault{3}$ -->
      <g transform="translate(21.826776 33.552052) scale(0.12 -0.12)">
       <defs>
        <path id="CMR17-33" d="M 1414 2157 
C 1984 2157 2234 1662 2234 1090 
C 2234 320 1824 25 1453 25 
C 1114 25 563 194 390 693 
C 422 680 454 680 486 680 
C 640 680 755 782 755 948 
C 755 1133 614 1216 486 1216 
C 378 1216 211 1165 211 926 
C 211 335 787 -128 1466 -128 
C 2176 -128 2720 430 2720 1085 
C 2720 1707 2208 2157 1600 2227 
C 2086 2328 2554 2756 2554 3329 
C 2554 3820 2048 4179 1472 4179 
C 890 4179 378 3829 378 3329 
C 378 3110 544 3072 627 3072 
C 762 3072 877 3155 877 3321 
C 877 3486 762 3569 627 3569 
C 602 3569 570 3569 544 3557 
C 730 3959 1235 4032 1459 4032 
C 1683 4032 2106 3925 2106 3320 
C 2106 3143 2080 2828 1862 2550 
C 1670 2304 1453 2304 1242 2284 
C 1210 2284 1062 2269 1037 2269 
C 992 2263 966 2257 966 2208 
C 966 2163 973 2157 1101 2157 
L 1414 2157 
z
" transform="scale(0.015625)"/>
       </defs>
       <use xlink:href="#CMR17-33" transform="scale(0.996264)"/>
      </g>
     </g>
    </g>
    <g id="text_11">
     <!-- Empirical Density -->
     <g transform="translate(15.50218 133.014073) rotate(-90) scale(0.12 -0.12)">
      <defs>
       <path id="CMSS17-45" d="M 1958 433 
C 1446 433 1216 433 1101 433 
L 1101 2107 
L 3085 2107 
L 3085 2496 
L 1101 2496 
L 1101 4009 
L 1926 4009 
C 2003 4009 2080 4009 2157 4009 
L 3251 4009 
L 3251 4416 
L 563 4416 
L 563 0 
L 3334 0 
L 3334 433 
L 1958 433 
z
" transform="scale(0.015625)"/>
       <path id="CMSS17-6d" d="M 4288 1877 
C 4288 2308 4179 2816 3462 2816 
C 2982 2816 2694 2516 2566 2331 
C 2451 2670 2182 2816 1798 2816 
C 1363 2816 1088 2568 941 2389 
L 941 2758 
L 474 2758 
L 474 0 
L 960 0 
L 960 1559 
C 960 1939 1101 2428 1555 2428 
C 2138 2428 2138 2016 2138 1829 
L 2138 0 
L 2624 0 
L 2624 1559 
C 2624 1939 2765 2428 3219 2428 
C 3802 2428 3802 2016 3802 1829 
L 3802 0 
L 4288 0 
L 4288 1877 
z
" transform="scale(0.015625)"/>
       <path id="CMSS17-70" d="M 966 333 
C 1178 129 1466 -5 1773 -5 
C 2368 -5 2880 603 2880 1412 
C 2880 2159 2496 2816 1946 2816 
C 1626 2816 1242 2702 954 2472 
L 954 2765 
L 480 2765 
L 480 -1216 
L 966 -1216 
L 966 333 
z
M 966 2100 
C 1018 2176 1235 2415 1587 2415 
C 2035 2415 2394 1960 2394 1412 
C 2394 787 1958 384 1530 384 
C 1402 384 1267 415 1139 523 
C 966 674 966 768 966 857 
L 966 2100 
z
" transform="scale(0.015625)"/>
       <path id="CMSS17-69" d="M 979 4183 
L 442 4183 
L 442 3648 
L 979 3648 
L 979 4183 
z
M 947 2739 
L 474 2739 
L 474 0 
L 947 0 
L 947 2739 
z
" transform="scale(0.015625)"/>
       <path id="CMSS17-72" d="M 954 1363 
C 954 1965 1395 2368 1958 2368 
L 1958 2789 
C 1549 2789 1165 2585 934 2253 
L 934 2758 
L 480 2758 
L 480 0 
L 954 0 
L 954 1363 
z
" transform="scale(0.015625)"/>
       <path id="CMSS17-63" d="M 2464 2541 
C 2464 2585 2170 2714 2093 2739 
C 1882 2816 1613 2816 1542 2816 
C 710 2816 211 2093 211 1363 
C 211 595 768 -64 1517 -64 
C 1946 -64 2253 76 2502 242 
L 2464 664 
C 2189 453 1869 337 1523 337 
C 1024 337 698 774 698 1369 
C 698 1831 909 2414 1549 2414 
C 1901 2414 2099 2343 2394 2145 
L 2464 2541 
z
" transform="scale(0.015625)"/>
       <path id="CMSS17-6c" d="M 947 4416 
L 474 4416 
L 474 0 
L 947 0 
L 947 4416 
z
" transform="scale(0.015625)"/>
       <path id="CMSS17-44" d="M 570 4416 
L 570 0 
L 2144 0 
C 3194 0 4000 980 4000 2170 
C 4000 3398 3194 4416 2144 4416 
L 570 4416 
z
M 1094 357 
L 1094 4059 
L 2003 4059 
C 2861 4059 3475 3277 3475 2170 
C 3475 1107 2867 357 2003 357 
L 1094 357 
z
" transform="scale(0.015625)"/>
       <path id="CMSS17-65" d="M 2502 1377 
C 2502 1590 2490 2003 2285 2345 
C 2061 2713 1696 2816 1421 2816 
C 755 2816 192 2188 192 1375 
C 192 582 774 -64 1510 -64 
C 1798 -64 2150 19 2470 248 
C 2470 274 2458 414 2451 420 
C 2451 433 2432 630 2432 656 
C 2125 407 1773 325 1517 325 
C 1107 325 666 667 646 1377 
L 2502 1377 
z
M 698 1728 
C 781 2084 1062 2421 1421 2421 
C 1517 2421 1965 2421 2080 1728 
L 698 1728 
z
" transform="scale(0.015625)"/>
       <path id="CMSS17-6e" d="M 2618 1877 
C 2618 2283 2522 2816 1798 2816 
C 1389 2816 1120 2606 941 2389 
L 941 2758 
L 474 2758 
L 474 0 
L 960 0 
L 960 1559 
C 960 1964 1114 2428 1549 2428 
C 2112 2428 2131 2048 2131 1829 
L 2131 0 
L 2618 0 
L 2618 1877 
z
" transform="scale(0.015625)"/>
       <path id="CMSS17-73" d="M 2061 2627 
C 1683 2807 1389 2807 1197 2807 
C 742 2807 198 2648 198 2003 
C 198 1359 902 1218 1094 1179 
C 1389 1122 1715 1058 1715 740 
C 1715 337 1254 337 1171 337 
C 915 337 563 407 243 638 
L 166 210 
C 531 0 883 -64 1178 -64 
C 1965 -64 2163 416 2163 781 
C 2163 1094 1984 1305 1862 1401 
C 1651 1568 1574 1587 1050 1696 
C 960 1709 646 1779 646 2066 
C 646 2432 1050 2432 1139 2432 
C 1555 2432 1811 2303 1984 2208 
L 2061 2627 
z
" transform="scale(0.015625)"/>
       <path id="CMSS17-74" d="M 1069 2368 
L 1901 2368 
L 1901 2737 
L 1069 2737 
L 1069 3520 
L 614 3520 
L 614 2737 
L 109 2737 
L 109 2368 
L 602 2368 
L 602 749 
C 602 384 685 -64 1107 -64 
C 1427 -64 1722 25 2003 172 
L 1901 548 
C 1747 414 1562 337 1363 337 
C 1082 337 1069 696 1069 856 
L 1069 2368 
z
" transform="scale(0.015625)"/>
       <path id="CMSS17-79" d="M 2675 2752 
L 2176 2752 
C 1632 1294 1446 702 1434 383 
L 1427 383 
C 1408 696 1126 1460 902 2007 
L 602 2752 
L 83 2752 
L 1216 13 
C 1146 -178 1043 -465 1011 -529 
C 870 -885 774 -885 672 -885 
C 646 -885 442 -885 211 -809 
L 250 -1229 
C 410 -1261 570 -1280 685 -1280 
C 845 -1280 1165 -1280 1459 -497 
L 2675 2752 
z
" transform="scale(0.015625)"/>
      </defs>
      <use xlink:href="#CMSS17-45" transform="scale(0.996264)"/>
      <use xlink:href="#CMSS17-6d" transform="translate(55.892013 0) scale(0.996264)"/>
      <use xlink:href="#CMSS17-70" transform="translate(130.121268 0) scale(0.996264)"/>
      <use xlink:href="#CMSS17-69" transform="translate(178.326211 0) scale(0.996264)"/>
      <use xlink:href="#CMSS17-72" transform="translate(200.506934 0) scale(0.996264)"/>
      <use xlink:href="#CMSS17-69" transform="translate(232.416706 0) scale(0.996264)"/>
      <use xlink:href="#CMSS17-63" transform="translate(254.597429 0) scale(0.996264)"/>
      <use xlink:href="#CMSS17-61" transform="translate(296.236252 0) scale(0.996264)"/>
      <use xlink:href="#CMSS17-6c" transform="translate(341.158172 0) scale(0.996264)"/>
      <use xlink:href="#CMSS17-44" transform="translate(394.568008 0) scale(0.996264)"/>
      <use xlink:href="#CMSS17-65" transform="translate(462.11085 0) scale(0.996264)"/>
      <use xlink:href="#CMSS17-6e" transform="translate(503.749672 0) scale(0.996264)"/>
      <use xlink:href="#CMSS17-73" transform="translate(551.954615 0) scale(0.996264)"/>
      <use xlink:href="#CMSS17-69" transform="translate(587.868157 0) scale(0.996264)"/>
      <use xlink:href="#CMSS17-74" transform="translate(610.04888 0) scale(0.996264)"/>
      <use xlink:href="#CMSS17-79" transform="translate(641.277993 0) scale(0.996264)"/>
     </g>
    </g>
   </g>
   <g id="line2d_10">
    <path d="M 162.650195 173.52 
L 162.650195 7.2 
" clip-path="url(#p5022617108)" style="fill: none; stroke-dasharray: 5.55,2.4; stroke-dashoffset: 0; stroke: #696969; stroke-width: 1.5"/>
   </g>
   <g id="line2d_11">
    <path d="M 174.836404 173.52 
L 174.836404 7.2 
" clip-path="url(#p5022617108)" style="fill: none; stroke-dasharray: 5.55,2.4; stroke-dashoffset: 0; stroke: #b22222; stroke-width: 1.5"/>
   </g>
   <g id="patch_55">
    <path d="M 34.679766 173.52 
L 34.679766 7.2 
" style="fill: none; stroke: #000000; stroke-width: 0.8; stroke-linejoin: miter; stroke-linecap: square"/>
   </g>
   <g id="patch_56">
    <path d="M 313.679766 173.52 
L 313.679766 7.2 
" style="fill: none; stroke: #000000; stroke-width: 0.8; stroke-linejoin: miter; stroke-linecap: square"/>
   </g>
   <g id="patch_57">
    <path d="M 34.679766 173.52 
L 313.679766 173.52 
" style="fill: none; stroke: #000000; stroke-width: 0.8; stroke-linejoin: miter; stroke-linecap: square"/>
   </g>
   <g id="patch_58">
    <path d="M 34.679766 7.2 
L 313.679766 7.2 
" style="fill: none; stroke: #000000; stroke-width: 0.8; stroke-linejoin: miter; stroke-linecap: square"/>
   </g>
   <g id="legend_1">
    <g id="patch_59">
     <path d="M 43.779766 55.169744 
L 110.409911 55.169744 
Q 113.009911 55.169744 113.009911 52.569744 
L 113.009911 16.3 
Q 113.009911 13.7 110.409911 13.7 
L 43.779766 13.7 
Q 41.179766 13.7 41.179766 16.3 
L 41.179766 52.569744 
Q 41.179766 55.169744 43.779766 55.169744 
z
" style="fill: #ffffff; opacity: 0.8; stroke: #cccccc; stroke-linejoin: miter"/>
    </g>
    <g id="patch_60">
     <path d="M 46.379766 28 
L 72.379766 28 
L 72.379766 18.9 
L 46.379766 18.9 
z
" style="fill: #c0c0c0; opacity: 0.7"/>
    </g>
    <g id="text_12">
     <!-- Ours -->
     <g transform="translate(82.779766 28) scale(0.13 -0.13)">
      <defs>
       <path id="CMSS17-4f" d="M 4096 2178 
C 4096 3503 3219 4497 2214 4497 
C 1210 4497 333 3497 333 2178 
C 333 847 1222 -128 2214 -128 
C 3206 -128 4096 847 4096 2178 
z
M 2214 273 
C 1510 273 870 1057 870 2261 
C 870 3433 1549 4096 2214 4096 
C 2880 4096 3558 3433 3558 2261 
C 3558 1051 2912 273 2214 273 
z
" transform="scale(0.015625)"/>
       <path id="CMSS17-75" d="M 2618 2739 
L 2131 2739 
L 2131 972 
C 2131 498 1786 306 1421 306 
C 998 306 960 447 960 709 
L 960 2739 
L 474 2739 
L 474 678 
C 474 179 646 -64 1088 -64 
C 1306 -64 1798 -13 2144 306 
L 2144 0 
L 2618 0 
L 2618 2739 
z
" transform="scale(0.015625)"/>
      </defs>
      <use xlink:href="#CMSS17-4f" transform="scale(0.996264)"/>
      <use xlink:href="#CMSS17-75" transform="translate(69.024255 0) scale(0.996264)"/>
      <use xlink:href="#CMSS17-72" transform="translate(117.229198 0) scale(0.996264)"/>
      <use xlink:href="#CMSS17-73" transform="translate(149.138971 0) scale(0.996264)"/>
     </g>
    </g>
    <g id="patch_61">
     <path d="M 46.379766 46.731886 
L 72.379766 46.731886 
L 72.379766 37.631886 
L 46.379766 37.631886 
z
" style="fill: #ff0000; opacity: 0.7"/>
    </g>
    <g id="text_13">
     <!-- [9] -->
     <g transform="translate(82.779766 46.731886) scale(0.13 -0.13)">
      <defs>
       <path id="CMSS17-5b" d="M 1613 -1600 
L 1613 -1212 
L 1062 -1212 
L 1062 4352 
L 1613 4352 
L 1613 4741 
L 595 4741 
L 595 -1600 
L 1613 -1600 
z
" transform="scale(0.015625)"/>
       <path id="CMSS17-39" d="M 435 174 
C 614 21 845 -128 1235 -128 
C 2010 -128 2752 721 2752 2095 
C 2752 3932 1952 4229 1523 4229 
C 1094 4229 819 4041 582 3741 
C 301 3397 250 3090 250 2733 
C 250 2307 326 2045 506 1745 
C 749 1357 973 1275 1222 1275 
C 1600 1275 1978 1459 2234 1776 
C 2189 902 1798 267 1235 267 
C 1005 267 819 339 634 516 
L 435 174 
z
M 2214 2746 
C 2221 2703 2221 2622 2221 2596 
C 2221 2074 1914 1664 1466 1664 
C 1171 1664 1018 1813 902 2006 
C 762 2249 755 2485 755 2733 
C 755 2976 755 3244 934 3511 
C 1069 3703 1235 3840 1523 3840 
C 2112 3840 2208 3000 2214 2746 
z
" transform="scale(0.015625)"/>
       <path id="CMSS17-5d" d="M 1146 4741 
L 128 4741 
L 128 4352 
L 678 4352 
L 678 -1212 
L 128 -1212 
L 128 -1600 
L 1146 -1600 
L 1146 4741 
z
" transform="scale(0.015625)"/>
      </defs>
      <use xlink:href="#CMSS17-5b" transform="scale(0.996264)"/>
      <use xlink:href="#CMSS17-39" transform="translate(27.185439 0) scale(0.996264)"/>
      <use xlink:href="#CMSS17-5d" transform="translate(74.029062 0) scale(0.996264)"/>
     </g>
    </g>
   </g>
  </g>
 </g>
 <defs>
  <clipPath id="p5022617108">
   <rect x="34.679766" y="7.2" width="279" height="166.32"/>
  </clipPath>
 </defs>
</svg>
