<?xml version="1.0" encoding="utf-8" standalone="no"?>
<!DOCTYPE svg PUBLIC "-//W3C//DTD SVG 1.1//EN"
  "http://www.w3.org/Graphics/SVG/1.1/DTD/svg11.dtd">
<svg xmlns:xlink="http://www.w3.org/1999/xlink" width="720pt" height="432pt" viewBox="0 0 720 432" xmlns="http://www.w3.org/2000/svg" version="1.1">
 <metadata>
  <rdf:RDF xmlns:dc="http://purl.org/dc/elements/1.1/" xmlns:cc="http://creativecommons.org/ns#" xmlns:rdf="http://www.w3.org/1999/02/22-rdf-syntax-ns#">
   <cc:Work>
    <dc:type rdf:resource="http://purl.org/dc/dcmitype/StillImage"/>
    <dc:date>2023-09-05T15:31:47.033813</dc:date>
    <dc:format>image/svg+xml</dc:format>
    <dc:creator>
     <cc:Agent>
      <dc:title>Matplotlib v3.7.0, https://matplotlib.org/</dc:title>
     </cc:Agent>
    </dc:creator>
   </cc:Work>
  </rdf:RDF>
 </metadata>
 <defs>
  <style type="text/css">*{stroke-linejoin: round; stroke-linecap: butt}</style>
 </defs>
 <g id="figure_1">
  <g id="patch_1">
   <path d="M 0 432 
L 720 432 
L 720 0 
L 0 0 
z
" style="fill: #ffffff"/>
  </g>
  <g id="axes_1">
   <g id="patch_2">
    <path d="M 90 384.48 
L 648 384.48 
L 648 51.84 
L 90 51.84 
z
" style="fill: #ffffff"/>
   </g>
   <g id="PolyCollection_1">
    <defs>
     <path id="m3924b39846" d="M 115.363636 -47.527972 
L 115.363636 -47.52 
L 117.912746 -47.52 
L 120.461855 -47.52 
L 123.010964 -47.52 
L 125.560073 -47.52 
L 128.109182 -47.52 
L 130.658291 -47.52 
L 133.207401 -47.52 
L 135.75651 -47.52 
L 138.305619 -47.52 
L 140.854728 -47.52 
L 143.403837 -47.52 
L 145.952947 -47.52 
L 148.502056 -47.52 
L 151.051165 -47.52 
L 153.600274 -47.52 
L 156.149383 -47.52 
L 158.698492 -47.52 
L 161.247602 -47.52 
L 163.796711 -47.52 
L 166.34582 -47.52 
L 168.894929 -47.52 
L 171.444038 -47.52 
L 173.993148 -47.52 
L 176.542257 -47.52 
L 179.091366 -47.52 
L 181.640475 -47.52 
L 184.189584 -47.52 
L 186.738693 -47.52 
L 189.287803 -47.52 
L 191.836912 -47.52 
L 194.386021 -47.52 
L 196.93513 -47.52 
L 199.484239 -47.52 
L 202.033349 -47.52 
L 204.582458 -47.52 
L 207.131567 -47.52 
L 209.680676 -47.52 
L 212.229785 -47.52 
L 214.778894 -47.52 
L 217.328004 -47.52 
L 219.877113 -47.52 
L 222.426222 -47.52 
L 224.975331 -47.52 
L 227.52444 -47.52 
L 230.07355 -47.52 
L 232.622659 -47.52 
L 235.171768 -47.52 
L 237.720877 -47.52 
L 240.269986 -47.52 
L 242.819095 -47.52 
L 245.368205 -47.52 
L 247.917314 -47.52 
L 250.466423 -47.52 
L 253.015532 -47.52 
L 255.564641 -47.52 
L 258.113751 -47.52 
L 260.66286 -47.52 
L 263.211969 -47.52 
L 265.761078 -47.52 
L 268.310187 -47.52 
L 270.859296 -47.52 
L 273.408406 -47.52 
L 275.957515 -47.52 
L 278.506624 -47.52 
L 281.055733 -47.52 
L 283.604842 -47.52 
L 286.153952 -47.52 
L 288.703061 -47.52 
L 291.25217 -47.52 
L 293.801279 -47.52 
L 296.350388 -47.52 
L 298.899497 -47.52 
L 301.448607 -47.52 
L 303.997716 -47.52 
L 306.546825 -47.52 
L 309.095934 -47.52 
L 311.645043 -47.52 
L 314.194153 -47.52 
L 316.743262 -47.52 
L 319.292371 -47.52 
L 321.84148 -47.52 
L 324.390589 -47.52 
L 326.939698 -47.52 
L 329.488808 -47.52 
L 332.037917 -47.52 
L 334.587026 -47.52 
L 337.136135 -47.52 
L 339.685244 -47.52 
L 342.234354 -47.52 
L 344.783463 -47.52 
L 347.332572 -47.52 
L 349.881681 -47.52 
L 352.43079 -47.52 
L 354.979899 -47.52 
L 357.529009 -47.52 
L 360.078118 -47.52 
L 362.627227 -47.52 
L 365.176336 -47.52 
L 367.725445 -47.52 
L 370.274555 -47.52 
L 372.823664 -47.52 
L 375.372773 -47.52 
L 377.921882 -47.52 
L 380.470991 -47.52 
L 383.020101 -47.52 
L 385.56921 -47.52 
L 388.118319 -47.52 
L 390.667428 -47.52 
L 393.216537 -47.52 
L 395.765646 -47.52 
L 398.314756 -47.52 
L 400.863865 -47.52 
L 403.412974 -47.52 
L 405.962083 -47.52 
L 408.511192 -47.52 
L 411.060302 -47.52 
L 413.609411 -47.52 
L 416.15852 -47.52 
L 418.707629 -47.52 
L 421.256738 -47.52 
L 423.805847 -47.52 
L 426.354957 -47.52 
L 428.904066 -47.52 
L 431.453175 -47.52 
L 434.002284 -47.52 
L 436.551393 -47.52 
L 439.100503 -47.52 
L 441.649612 -47.52 
L 444.198721 -47.52 
L 446.74783 -47.52 
L 449.296939 -47.52 
L 451.846048 -47.52 
L 454.395158 -47.52 
L 456.944267 -47.52 
L 459.493376 -47.52 
L 462.042485 -47.52 
L 464.591594 -47.52 
L 467.140704 -47.52 
L 469.689813 -47.52 
L 472.238922 -47.52 
L 474.788031 -47.52 
L 477.33714 -47.52 
L 479.886249 -47.52 
L 482.435359 -47.52 
L 484.984468 -47.52 
L 487.533577 -47.52 
L 490.082686 -47.52 
L 492.631795 -47.52 
L 495.180905 -47.52 
L 497.730014 -47.52 
L 500.279123 -47.52 
L 502.828232 -47.52 
L 505.377341 -47.52 
L 507.92645 -47.52 
L 510.47556 -47.52 
L 513.024669 -47.52 
L 515.573778 -47.52 
L 518.122887 -47.52 
L 520.671996 -47.52 
L 523.221106 -47.52 
L 525.770215 -47.52 
L 528.319324 -47.52 
L 530.868433 -47.52 
L 533.417542 -47.52 
L 535.966651 -47.52 
L 538.515761 -47.52 
L 541.06487 -47.52 
L 543.613979 -47.52 
L 546.163088 -47.52 
L 548.712197 -47.52 
L 551.261307 -47.52 
L 553.810416 -47.52 
L 556.359525 -47.52 
L 558.908634 -47.52 
L 561.457743 -47.52 
L 564.006852 -47.52 
L 566.555962 -47.52 
L 569.105071 -47.52 
L 571.65418 -47.52 
L 574.203289 -47.52 
L 576.752398 -47.52 
L 579.301508 -47.52 
L 581.850617 -47.52 
L 584.399726 -47.52 
L 586.948835 -47.52 
L 589.497944 -47.52 
L 592.047053 -47.52 
L 594.596163 -47.52 
L 597.145272 -47.52 
L 599.694381 -47.52 
L 602.24349 -47.52 
L 604.792599 -47.52 
L 607.341709 -47.52 
L 609.890818 -47.52 
L 612.439927 -47.52 
L 614.989036 -47.52 
L 617.538145 -47.52 
L 620.087254 -47.52 
L 622.636364 -47.52 
L 622.636364 -47.524649 
L 622.636364 -47.524649 
L 620.087254 -47.527032 
L 617.538145 -47.530439 
L 614.989036 -47.535208 
L 612.439927 -47.541749 
L 609.890818 -47.550534 
L 607.341709 -47.562091 
L 604.792599 -47.576981 
L 602.24349 -47.595775 
L 599.694381 -47.619014 
L 597.145272 -47.647169 
L 594.596163 -47.680602 
L 592.047053 -47.719533 
L 589.497944 -47.76401 
L 586.948835 -47.813909 
L 584.399726 -47.868953 
L 581.850617 -47.928756 
L 579.301508 -47.992892 
L 576.752398 -48.060993 
L 574.203289 -48.132852 
L 571.65418 -48.208536 
L 569.105071 -48.288486 
L 566.555962 -48.373595 
L 564.006852 -48.465254 
L 561.457743 -48.565361 
L 558.908634 -48.676277 
L 556.359525 -48.800758 
L 553.810416 -48.941845 
L 551.261307 -49.102737 
L 548.712197 -49.286667 
L 546.163088 -49.496787 
L 543.613979 -49.736078 
L 541.06487 -50.007301 
L 538.515761 -50.312983 
L 535.966651 -50.655449 
L 533.417542 -51.036885 
L 530.868433 -51.459422 
L 528.319324 -51.925244 
L 525.770215 -52.436687 
L 523.221106 -52.996339 
L 520.671996 -53.607128 
L 518.122887 -54.272393 
L 515.573778 -54.995939 
L 513.024669 -55.782067 
L 510.47556 -56.635585 
L 507.92645 -57.561772 
L 505.377341 -58.5663 
L 502.828232 -59.655083 
L 500.279123 -60.834049 
L 497.730014 -62.108818 
L 495.180905 -63.484288 
L 492.631795 -64.964143 
L 490.082686 -66.550313 
L 487.533577 -68.242437 
L 484.984468 -70.037381 
L 482.435359 -71.928907 
L 479.886249 -73.907536 
L 477.33714 -75.960689 
L 474.788031 -78.073125 
L 472.238922 -80.227689 
L 469.689813 -82.406329 
L 467.140704 -84.591295 
L 464.591594 -86.76642 
L 462.042485 -88.918342 
L 459.493376 -91.037528 
L 456.944267 -93.118988 
L 454.395158 -95.162596 
L 451.846048 -97.172977 
L 449.296939 -99.158985 
L 446.74783 -101.132847 
L 444.198721 -103.109076 
L 441.649612 -105.103291 
L 439.100503 -107.131068 
L 436.551393 -109.206941 
L 434.002284 -111.343618 
L 431.453175 -113.551458 
L 428.904066 -115.838189 
L 426.354957 -118.208831 
L 423.805847 -120.665757 
L 421.256738 -123.208825 
L 418.707629 -125.835521 
L 416.15852 -128.541065 
L 413.609411 -131.31847 
L 411.060302 -134.158551 
L 408.511192 -137.049893 
L 405.962083 -139.978812 
L 403.412974 -142.929309 
L 400.863865 -145.883045 
L 398.314756 -148.819311 
L 395.765646 -151.715011 
L 393.216537 -154.544643 
L 390.667428 -157.280283 
L 388.118319 -159.891621 
L 385.56921 -162.346076 
L 383.020101 -164.609085 
L 380.470991 -166.64464 
L 377.921882 -168.416148 
L 375.372773 -169.887669 
L 372.823664 -171.025537 
L 370.274555 -171.800302 
L 367.725445 -172.188876 
L 365.176336 -172.176685 
L 362.627227 -171.759591 
L 360.078118 -170.945305 
L 357.529009 -169.754053 
L 354.979899 -168.218286 
L 352.43079 -166.38133 
L 349.881681 -164.294997 
L 347.332572 -162.016295 
L 344.783463 -159.603531 
L 342.234354 -157.112183 
L 339.685244 -154.590975 
L 337.136135 -152.078609 
L 334.587026 -149.601503 
L 332.037917 -147.172835 
L 329.488808 -144.79299 
L 326.939698 -142.451369 
L 324.390589 -140.129376 
L 321.84148 -137.804251 
L 319.292371 -135.45337 
L 316.743262 -133.058581 
L 314.194153 -130.610212 
L 311.645043 -128.110412 
L 309.095934 -125.575642 
L 306.546825 -123.038205 
L 303.997716 -120.546839 
L 301.448607 -118.166467 
L 298.899497 -115.977292 
L 296.350388 -114.073385 
L 293.801279 -112.560974 
L 291.25217 -111.556524 
L 288.703061 -111.184672 
L 286.153952 -111.575973 
L 283.604842 -112.864351 
L 281.055733 -115.184072 
L 278.506624 -118.666043 
L 275.957515 -123.433257 
L 273.408406 -129.59524 
L 270.859296 -137.241485 
L 268.310187 -146.433976 
L 265.761078 -157.199076 
L 263.211969 -169.519195 
L 260.66286 -183.324848 
L 258.113751 -198.487789 
L 255.564641 -214.816018 
L 253.015532 -232.051453 
L 250.466423 -249.870972 
L 247.917314 -267.891415 
L 245.368205 -285.678844 
L 242.819095 -302.762082 
L 240.269986 -318.650148 
L 237.720877 -332.852843 
L 235.171768 -344.903342 
L 232.622659 -354.381362 
L 230.07355 -360.93529 
L 227.52444 -364.301594 
L 224.975331 -364.32 
L 222.426222 -360.943164 
L 219.877113 -354.240031 
L 217.328004 -344.392562 
L 214.778894 -331.686071 
L 212.229785 -316.493934 
L 209.680676 -299.257856 
L 207.131567 -280.465191 
L 204.582458 -260.62497 
L 202.033349 -240.244263 
L 199.484239 -219.806388 
L 196.93513 -199.752181 
L 194.386021 -180.465244 
L 191.836912 -162.26169 
L 189.287803 -145.384532 
L 186.738693 -130.002557 
L 184.189584 -116.213189 
L 181.640475 -104.048669 
L 179.091366 -93.484725 
L 176.542257 -84.450839 
L 173.993148 -76.841249 
L 171.444038 -70.525882 
L 168.894929 -65.360558 
L 166.34582 -61.195959 
L 163.796711 -57.885031 
L 161.247602 -55.288674 
L 158.698492 -53.279723 
L 156.149383 -51.745334 
L 153.600274 -50.588027 
L 151.051165 -49.725623 
L 148.502056 -49.090385 
L 145.952947 -48.627642 
L 143.403837 -48.29411 
L 140.854728 -48.056139 
L 138.305619 -47.887999 
L 135.75651 -47.770316 
L 133.207401 -47.688708 
L 130.658291 -47.632636 
L 128.109182 -47.594465 
L 125.560073 -47.568726 
L 123.010964 -47.551542 
L 120.461855 -47.540187 
L 117.912746 -47.532766 
L 115.363636 -47.527972 
z
"/>
    </defs>
    <g clip-path="url(#p41c42b3aba)">
     <use xlink:href="#m3924b39846" x="0" y="432" style="fill: #1f77b4; fill-opacity: 0.25"/>
    </g>
   </g>
   <g id="matplotlib.axis_1">
    <g id="xtick_1">
     <g id="line2d_1">
      <defs>
       <path id="m2ff6acd6c5" d="M 0 0 
L 0 3.5 
" style="stroke: #000000; stroke-width: 0.8"/>
      </defs>
      <g>
       <use xlink:href="#m2ff6acd6c5" x="130.651368" y="384.48" style="stroke: #000000; stroke-width: 0.8"/>
      </g>
     </g>
     <g id="text_1">
      <!-- $\mathdefault{0}$ -->
      <g transform="translate(126.08232 405.316997) scale(0.2 -0.2)">
       <defs>
        <path id="CMR17-30" d="M 2688 2025 
C 2688 2416 2682 3080 2413 3591 
C 2176 4039 1798 4198 1466 4198 
C 1158 4198 768 4058 525 3597 
C 269 3118 243 2524 243 2025 
C 243 1661 250 1106 448 619 
C 723 -39 1216 -128 1466 -128 
C 1760 -128 2208 -7 2470 600 
C 2662 1042 2688 1559 2688 2025 
z
M 1466 -26 
C 1056 -26 813 325 723 812 
C 653 1188 653 1738 653 2096 
C 653 2588 653 2997 736 3387 
C 858 3929 1216 4096 1466 4096 
C 1728 4096 2067 3923 2189 3400 
C 2272 3036 2278 2607 2278 2096 
C 2278 1680 2278 1169 2202 792 
C 2067 95 1690 -26 1466 -26 
z
" transform="scale(0.015625)"/>
       </defs>
       <use xlink:href="#CMR17-30" transform="scale(0.996264)"/>
      </g>
     </g>
    </g>
    <g id="xtick_2">
     <g id="line2d_2">
      <g>
       <use xlink:href="#m2ff6acd6c5" x="209.478194" y="384.48" style="stroke: #000000; stroke-width: 0.8"/>
      </g>
     </g>
     <g id="text_2">
      <!-- $\mathdefault{5}$ -->
      <g transform="translate(204.909147 405.316997) scale(0.2 -0.2)">
       <defs>
        <path id="CMR17-35" d="M 730 3692 
C 794 3666 1056 3584 1325 3584 
C 1920 3584 2246 3911 2432 4100 
C 2432 4157 2432 4192 2394 4192 
C 2387 4192 2374 4192 2323 4163 
C 2099 4058 1837 3973 1517 3973 
C 1325 3973 1037 3999 723 4139 
C 653 4171 640 4171 634 4171 
C 602 4171 595 4164 595 4037 
L 595 2203 
C 595 2089 595 2057 659 2057 
C 691 2057 704 2070 736 2114 
C 941 2401 1222 2522 1542 2522 
C 1766 2522 2246 2382 2246 1289 
C 2246 1085 2246 715 2054 421 
C 1894 159 1645 25 1370 25 
C 947 25 518 320 403 814 
C 429 807 480 795 506 795 
C 589 795 749 840 749 1038 
C 749 1210 627 1280 506 1280 
C 358 1280 262 1190 262 1011 
C 262 454 704 -128 1382 -128 
C 2042 -128 2669 440 2669 1264 
C 2669 2030 2170 2624 1549 2624 
C 1222 2624 947 2503 730 2274 
L 730 3692 
z
" transform="scale(0.015625)"/>
       </defs>
       <use xlink:href="#CMR17-35" transform="scale(0.996264)"/>
      </g>
     </g>
    </g>
    <g id="xtick_3">
     <g id="line2d_3">
      <g>
       <use xlink:href="#m2ff6acd6c5" x="288.305021" y="384.48" style="stroke: #000000; stroke-width: 0.8"/>
      </g>
     </g>
     <g id="text_3">
      <!-- $\mathdefault{10}$ -->
      <g transform="translate(279.166926 405.316997) scale(0.2 -0.2)">
       <defs>
        <path id="CMR17-31" d="M 1702 4058 
C 1702 4192 1696 4192 1606 4192 
C 1357 3916 979 3827 621 3827 
C 602 3827 570 3827 563 3808 
C 557 3795 557 3782 557 3648 
C 755 3648 1088 3686 1344 3839 
L 1344 461 
C 1344 236 1331 160 781 160 
L 589 160 
L 589 0 
C 896 0 1216 0 1523 0 
C 1830 0 2150 0 2458 0 
L 2458 160 
L 2266 160 
C 1715 160 1702 230 1702 458 
L 1702 4058 
z
" transform="scale(0.015625)"/>
       </defs>
       <use xlink:href="#CMR17-31" transform="scale(0.996264)"/>
       <use xlink:href="#CMR17-30" transform="translate(45.690477 0) scale(0.996264)"/>
      </g>
     </g>
    </g>
    <g id="xtick_4">
     <g id="line2d_4">
      <g>
       <use xlink:href="#m2ff6acd6c5" x="367.131848" y="384.48" style="stroke: #000000; stroke-width: 0.8"/>
      </g>
     </g>
     <g id="text_4">
      <!-- $\mathdefault{15}$ -->
      <g transform="translate(357.993752 405.316997) scale(0.2 -0.2)">
       <use xlink:href="#CMR17-31" transform="scale(0.996264)"/>
       <use xlink:href="#CMR17-35" transform="translate(45.690477 0) scale(0.996264)"/>
      </g>
     </g>
    </g>
    <g id="xtick_5">
     <g id="line2d_5">
      <g>
       <use xlink:href="#m2ff6acd6c5" x="445.958674" y="384.48" style="stroke: #000000; stroke-width: 0.8"/>
      </g>
     </g>
     <g id="text_5">
      <!-- $\mathdefault{20}$ -->
      <g transform="translate(436.820579 405.316997) scale(0.2 -0.2)">
       <defs>
        <path id="CMR17-32" d="M 2669 989 
L 2554 989 
C 2490 536 2438 459 2413 420 
C 2381 369 1920 369 1830 369 
L 602 369 
C 832 619 1280 1072 1824 1597 
C 2214 1967 2669 2402 2669 3035 
C 2669 3790 2067 4224 1395 4224 
C 691 4224 262 3604 262 3030 
C 262 2780 448 2748 525 2748 
C 589 2748 781 2787 781 3010 
C 781 3207 614 3264 525 3264 
C 486 3264 448 3258 422 3245 
C 544 3790 915 4058 1306 4058 
C 1862 4058 2227 3617 2227 3035 
C 2227 2479 1901 2000 1536 1584 
L 262 146 
L 262 0 
L 2515 0 
L 2669 989 
z
" transform="scale(0.015625)"/>
       </defs>
       <use xlink:href="#CMR17-32" transform="scale(0.996264)"/>
       <use xlink:href="#CMR17-30" transform="translate(45.690477 0) scale(0.996264)"/>
      </g>
     </g>
    </g>
    <g id="xtick_6">
     <g id="line2d_6">
      <g>
       <use xlink:href="#m2ff6acd6c5" x="524.785501" y="384.48" style="stroke: #000000; stroke-width: 0.8"/>
      </g>
     </g>
     <g id="text_6">
      <!-- $\mathdefault{25}$ -->
      <g transform="translate(515.647406 405.316997) scale(0.2 -0.2)">
       <use xlink:href="#CMR17-32" transform="scale(0.996264)"/>
       <use xlink:href="#CMR17-35" transform="translate(45.690477 0) scale(0.996264)"/>
      </g>
     </g>
    </g>
    <g id="xtick_7">
     <g id="line2d_7">
      <g>
       <use xlink:href="#m2ff6acd6c5" x="603.612328" y="384.48" style="stroke: #000000; stroke-width: 0.8"/>
      </g>
     </g>
     <g id="text_7">
      <!-- $\mathdefault{30}$ -->
      <g transform="translate(594.474232 405.316997) scale(0.2 -0.2)">
       <defs>
        <path id="CMR17-33" d="M 1414 2157 
C 1984 2157 2234 1662 2234 1090 
C 2234 320 1824 25 1453 25 
C 1114 25 563 194 390 693 
C 422 680 454 680 486 680 
C 640 680 755 782 755 948 
C 755 1133 614 1216 486 1216 
C 378 1216 211 1165 211 926 
C 211 335 787 -128 1466 -128 
C 2176 -128 2720 430 2720 1085 
C 2720 1707 2208 2157 1600 2227 
C 2086 2328 2554 2756 2554 3329 
C 2554 3820 2048 4179 1472 4179 
C 890 4179 378 3829 378 3329 
C 378 3110 544 3072 627 3072 
C 762 3072 877 3155 877 3321 
C 877 3486 762 3569 627 3569 
C 602 3569 570 3569 544 3557 
C 730 3959 1235 4032 1459 4032 
C 1683 4032 2106 3925 2106 3320 
C 2106 3143 2080 2828 1862 2550 
C 1670 2304 1453 2304 1242 2284 
C 1210 2284 1062 2269 1037 2269 
C 992 2263 966 2257 966 2208 
C 966 2163 973 2157 1101 2157 
L 1414 2157 
z
" transform="scale(0.015625)"/>
       </defs>
       <use xlink:href="#CMR17-33" transform="scale(0.996264)"/>
       <use xlink:href="#CMR17-30" transform="translate(45.690477 0) scale(0.996264)"/>
      </g>
     </g>
    </g>
    <g id="text_8">
     <!-- $Y$ -->
     <g transform="translate(363.340141 427.029627) scale(0.2 -0.2)">
      <defs>
       <path id="CMMI12-59" d="M 3763 3645 
L 3910 3791 
C 4192 4078 4429 4149 4653 4167 
C 4723 4173 4781 4179 4781 4288 
C 4781 4352 4717 4352 4704 4352 
C 4627 4352 4544 4352 4467 4352 
L 4205 4352 
C 4019 4352 3821 4352 3642 4352 
C 3597 4352 3526 4352 3526 4226 
C 3526 4166 3590 4160 3610 4160 
C 3802 4160 3802 4064 3802 4026 
C 3802 3956 3750 3860 3622 3713 
L 2099 1969 
L 1376 3911 
C 1338 4000 1338 4013 1338 4026 
C 1338 4160 1600 4160 1677 4160 
C 1754 4160 1824 4160 1824 4279 
C 1824 4352 1766 4352 1728 4352 
C 1619 4352 1491 4352 1382 4352 
L 672 4352 
C 557 4352 435 4352 326 4352 
C 282 4352 211 4352 211 4226 
C 211 4160 269 4160 365 4160 
C 678 4160 736 4102 794 3956 
L 1587 1835 
C 1594 1816 1613 1745 1613 1726 
C 1613 1707 1299 452 1280 388 
C 1229 217 1165 185 755 185 
C 646 185 595 185 595 64 
C 595 0 666 0 685 0 
C 800 0 934 0 1056 0 
L 1811 0 
C 1926 0 2061 0 2176 0 
C 2221 0 2298 0 2298 115 
C 2298 185 2253 185 2144 185 
C 1747 185 1747 230 1747 300 
C 1747 345 1798 548 1830 676 
L 2061 1594 
C 2099 1727 2099 1739 2157 1803 
L 3763 3645 
z
" transform="scale(0.015625)"/>
      </defs>
      <use xlink:href="#CMMI12-59" transform="scale(0.996264)"/>
     </g>
    </g>
   </g>
   <g id="matplotlib.axis_2">
    <g id="ytick_1">
     <g id="line2d_8">
      <defs>
       <path id="m4482218ba8" d="M 0 0 
L -3.5 0 
" style="stroke: #000000; stroke-width: 0.8"/>
      </defs>
      <g>
       <use xlink:href="#m4482218ba8" x="90" y="384.48" style="stroke: #000000; stroke-width: 0.8"/>
      </g>
     </g>
     <g id="text_9">
      <!-- $\mathdefault{0.00}$ -->
      <g transform="translate(50.166278 391.398498) scale(0.2 -0.2)">
       <defs>
        <path id="CMMI12-3a" d="M 1178 307 
C 1178 492 1024 619 870 619 
C 685 619 557 466 557 313 
C 557 128 710 0 864 0 
C 1050 0 1178 153 1178 307 
z
" transform="scale(0.015625)"/>
       </defs>
       <use xlink:href="#CMR17-30" transform="scale(0.996264)"/>
       <use xlink:href="#CMMI12-3a" transform="translate(45.690477 0) scale(0.996264)"/>
       <use xlink:href="#CMR17-30" transform="translate(72.787654 0) scale(0.996264)"/>
       <use xlink:href="#CMR17-30" transform="translate(118.478131 0) scale(0.996264)"/>
      </g>
     </g>
    </g>
    <g id="ytick_2">
     <g id="line2d_9">
      <g>
       <use xlink:href="#m4482218ba8" x="90" y="337.32843" style="stroke: #000000; stroke-width: 0.8"/>
      </g>
     </g>
     <g id="text_10">
      <!-- $\mathdefault{0.02}$ -->
      <g transform="translate(50.166278 344.246928) scale(0.2 -0.2)">
       <use xlink:href="#CMR17-30" transform="scale(0.996264)"/>
       <use xlink:href="#CMMI12-3a" transform="translate(45.690477 0) scale(0.996264)"/>
       <use xlink:href="#CMR17-30" transform="translate(72.787654 0) scale(0.996264)"/>
       <use xlink:href="#CMR17-32" transform="translate(118.478131 0) scale(0.996264)"/>
      </g>
     </g>
    </g>
    <g id="ytick_3">
     <g id="line2d_10">
      <g>
       <use xlink:href="#m4482218ba8" x="90" y="290.17686" style="stroke: #000000; stroke-width: 0.8"/>
      </g>
     </g>
     <g id="text_11">
      <!-- $\mathdefault{0.04}$ -->
      <g transform="translate(50.166278 297.095358) scale(0.2 -0.2)">
       <defs>
        <path id="CMR17-34" d="M 2150 4122 
C 2150 4256 2144 4256 2029 4256 
L 128 1254 
L 128 1088 
L 1779 1088 
L 1779 457 
C 1779 224 1766 160 1318 160 
L 1197 160 
L 1197 0 
C 1402 0 1747 0 1965 0 
C 2182 0 2528 0 2733 0 
L 2733 160 
L 2611 160 
C 2163 160 2150 224 2150 457 
L 2150 1088 
L 2803 1088 
L 2803 1254 
L 2150 1254 
L 2150 4122 
z
M 1798 3703 
L 1798 1254 
L 256 1254 
L 1798 3703 
z
" transform="scale(0.015625)"/>
       </defs>
       <use xlink:href="#CMR17-30" transform="scale(0.996264)"/>
       <use xlink:href="#CMMI12-3a" transform="translate(45.690477 0) scale(0.996264)"/>
       <use xlink:href="#CMR17-30" transform="translate(72.787654 0) scale(0.996264)"/>
       <use xlink:href="#CMR17-34" transform="translate(118.478131 0) scale(0.996264)"/>
      </g>
     </g>
    </g>
    <g id="ytick_4">
     <g id="line2d_11">
      <g>
       <use xlink:href="#m4482218ba8" x="90" y="243.025289" style="stroke: #000000; stroke-width: 0.8"/>
      </g>
     </g>
     <g id="text_12">
      <!-- $\mathdefault{0.06}$ -->
      <g transform="translate(50.166278 249.943788) scale(0.2 -0.2)">
       <defs>
        <path id="CMR17-36" d="M 678 2176 
C 678 3690 1395 4032 1811 4032 
C 1946 4032 2272 4009 2400 3776 
C 2298 3776 2106 3776 2106 3553 
C 2106 3381 2246 3323 2336 3323 
C 2394 3323 2566 3348 2566 3560 
C 2566 3954 2246 4179 1805 4179 
C 1043 4179 243 3390 243 1984 
C 243 253 966 -128 1478 -128 
C 2099 -128 2688 427 2688 1283 
C 2688 2081 2170 2662 1517 2662 
C 1126 2662 838 2407 678 1960 
L 678 2176 
z
M 1478 25 
C 691 25 691 1200 691 1436 
C 691 1896 909 2560 1504 2560 
C 1613 2560 1926 2560 2138 2120 
C 2253 1870 2253 1609 2253 1289 
C 2253 944 2253 690 2118 434 
C 1978 171 1773 25 1478 25 
z
" transform="scale(0.015625)"/>
       </defs>
       <use xlink:href="#CMR17-30" transform="scale(0.996264)"/>
       <use xlink:href="#CMMI12-3a" transform="translate(45.690477 0) scale(0.996264)"/>
       <use xlink:href="#CMR17-30" transform="translate(72.787654 0) scale(0.996264)"/>
       <use xlink:href="#CMR17-36" transform="translate(118.478131 0) scale(0.996264)"/>
      </g>
     </g>
    </g>
    <g id="ytick_5">
     <g id="line2d_12">
      <g>
       <use xlink:href="#m4482218ba8" x="90" y="195.873719" style="stroke: #000000; stroke-width: 0.8"/>
      </g>
     </g>
     <g id="text_13">
      <!-- $\mathdefault{0.08}$ -->
      <g transform="translate(50.166278 202.792218) scale(0.2 -0.2)">
       <defs>
        <path id="CMR17-38" d="M 1741 2264 
C 2144 2467 2554 2773 2554 3263 
C 2554 3841 1990 4179 1472 4179 
C 890 4179 378 3759 378 3180 
C 378 3021 416 2747 666 2505 
C 730 2442 998 2251 1171 2130 
C 883 1983 211 1634 211 934 
C 211 279 838 -128 1459 -128 
C 2144 -128 2720 362 2720 1010 
C 2720 1590 2330 1857 2074 2029 
L 1741 2264 
z
M 902 2822 
C 851 2854 595 3051 595 3351 
C 595 3739 998 4032 1459 4032 
C 1965 4032 2336 3676 2336 3262 
C 2336 2669 1670 2331 1638 2331 
C 1632 2331 1626 2331 1574 2370 
L 902 2822 
z
M 2080 1519 
C 2176 1449 2483 1240 2483 851 
C 2483 381 2010 25 1472 25 
C 890 25 448 438 448 940 
C 448 1443 838 1862 1280 2060 
L 2080 1519 
z
" transform="scale(0.015625)"/>
       </defs>
       <use xlink:href="#CMR17-30" transform="scale(0.996264)"/>
       <use xlink:href="#CMMI12-3a" transform="translate(45.690477 0) scale(0.996264)"/>
       <use xlink:href="#CMR17-30" transform="translate(72.787654 0) scale(0.996264)"/>
       <use xlink:href="#CMR17-38" transform="translate(118.478131 0) scale(0.996264)"/>
      </g>
     </g>
    </g>
    <g id="ytick_6">
     <g id="line2d_13">
      <g>
       <use xlink:href="#m4482218ba8" x="90" y="148.722149" style="stroke: #000000; stroke-width: 0.8"/>
      </g>
     </g>
     <g id="text_14">
      <!-- $\mathdefault{0.10}$ -->
      <g transform="translate(50.166278 155.640647) scale(0.2 -0.2)">
       <use xlink:href="#CMR17-30" transform="scale(0.996264)"/>
       <use xlink:href="#CMMI12-3a" transform="translate(45.690477 0) scale(0.996264)"/>
       <use xlink:href="#CMR17-31" transform="translate(72.787654 0) scale(0.996264)"/>
       <use xlink:href="#CMR17-30" transform="translate(118.478131 0) scale(0.996264)"/>
      </g>
     </g>
    </g>
    <g id="ytick_7">
     <g id="line2d_14">
      <g>
       <use xlink:href="#m4482218ba8" x="90" y="101.570579" style="stroke: #000000; stroke-width: 0.8"/>
      </g>
     </g>
     <g id="text_15">
      <!-- $\mathdefault{0.12}$ -->
      <g transform="translate(50.166278 108.489077) scale(0.2 -0.2)">
       <use xlink:href="#CMR17-30" transform="scale(0.996264)"/>
       <use xlink:href="#CMMI12-3a" transform="translate(45.690477 0) scale(0.996264)"/>
       <use xlink:href="#CMR17-31" transform="translate(72.787654 0) scale(0.996264)"/>
       <use xlink:href="#CMR17-32" transform="translate(118.478131 0) scale(0.996264)"/>
      </g>
     </g>
    </g>
    <g id="ytick_8">
     <g id="line2d_15">
      <g>
       <use xlink:href="#m4482218ba8" x="90" y="54.419009" style="stroke: #000000; stroke-width: 0.8"/>
      </g>
     </g>
     <g id="text_16">
      <!-- $\mathdefault{0.14}$ -->
      <g transform="translate(50.166278 61.337507) scale(0.2 -0.2)">
       <use xlink:href="#CMR17-30" transform="scale(0.996264)"/>
       <use xlink:href="#CMMI12-3a" transform="translate(45.690477 0) scale(0.996264)"/>
       <use xlink:href="#CMR17-31" transform="translate(72.787654 0) scale(0.996264)"/>
       <use xlink:href="#CMR17-34" transform="translate(118.478131 0) scale(0.996264)"/>
      </g>
     </g>
    </g>
    <g id="text_17">
     <!-- Density -->
     <g transform="translate(42.290645 247.131002) rotate(-90) scale(0.2 -0.2)">
      <defs>
       <path id="CMSS17-44" d="M 570 4416 
L 570 0 
L 2144 0 
C 3194 0 4000 980 4000 2170 
C 4000 3398 3194 4416 2144 4416 
L 570 4416 
z
M 1094 357 
L 1094 4059 
L 2003 4059 
C 2861 4059 3475 3277 3475 2170 
C 3475 1107 2867 357 2003 357 
L 1094 357 
z
" transform="scale(0.015625)"/>
       <path id="CMSS17-65" d="M 2502 1377 
C 2502 1590 2490 2003 2285 2345 
C 2061 2713 1696 2816 1421 2816 
C 755 2816 192 2188 192 1375 
C 192 582 774 -64 1510 -64 
C 1798 -64 2150 19 2470 248 
C 2470 274 2458 414 2451 420 
C 2451 433 2432 630 2432 656 
C 2125 407 1773 325 1517 325 
C 1107 325 666 667 646 1377 
L 2502 1377 
z
M 698 1728 
C 781 2084 1062 2421 1421 2421 
C 1517 2421 1965 2421 2080 1728 
L 698 1728 
z
" transform="scale(0.015625)"/>
       <path id="CMSS17-6e" d="M 2618 1877 
C 2618 2283 2522 2816 1798 2816 
C 1389 2816 1120 2606 941 2389 
L 941 2758 
L 474 2758 
L 474 0 
L 960 0 
L 960 1559 
C 960 1964 1114 2428 1549 2428 
C 2112 2428 2131 2048 2131 1829 
L 2131 0 
L 2618 0 
L 2618 1877 
z
" transform="scale(0.015625)"/>
       <path id="CMSS17-73" d="M 2061 2627 
C 1683 2807 1389 2807 1197 2807 
C 742 2807 198 2648 198 2003 
C 198 1359 902 1218 1094 1179 
C 1389 1122 1715 1058 1715 740 
C 1715 337 1254 337 1171 337 
C 915 337 563 407 243 638 
L 166 210 
C 531 0 883 -64 1178 -64 
C 1965 -64 2163 416 2163 781 
C 2163 1094 1984 1305 1862 1401 
C 1651 1568 1574 1587 1050 1696 
C 960 1709 646 1779 646 2066 
C 646 2432 1050 2432 1139 2432 
C 1555 2432 1811 2303 1984 2208 
L 2061 2627 
z
" transform="scale(0.015625)"/>
       <path id="CMSS17-69" d="M 979 4183 
L 442 4183 
L 442 3648 
L 979 3648 
L 979 4183 
z
M 947 2739 
L 474 2739 
L 474 0 
L 947 0 
L 947 2739 
z
" transform="scale(0.015625)"/>
       <path id="CMSS17-74" d="M 1069 2368 
L 1901 2368 
L 1901 2737 
L 1069 2737 
L 1069 3520 
L 614 3520 
L 614 2737 
L 109 2737 
L 109 2368 
L 602 2368 
L 602 749 
C 602 384 685 -64 1107 -64 
C 1427 -64 1722 25 2003 172 
L 1901 548 
C 1747 414 1562 337 1363 337 
C 1082 337 1069 696 1069 856 
L 1069 2368 
z
" transform="scale(0.015625)"/>
       <path id="CMSS17-79" d="M 2675 2752 
L 2176 2752 
C 1632 1294 1446 702 1434 383 
L 1427 383 
C 1408 696 1126 1460 902 2007 
L 602 2752 
L 83 2752 
L 1216 13 
C 1146 -178 1043 -465 1011 -529 
C 870 -885 774 -885 672 -885 
C 646 -885 442 -885 211 -809 
L 250 -1229 
C 410 -1261 570 -1280 685 -1280 
C 845 -1280 1165 -1280 1459 -497 
L 2675 2752 
z
" transform="scale(0.015625)"/>
      </defs>
      <use xlink:href="#CMSS17-44" transform="scale(0.996264)"/>
      <use xlink:href="#CMSS17-65" transform="translate(67.542842 0) scale(0.996264)"/>
      <use xlink:href="#CMSS17-6e" transform="translate(109.181664 0) scale(0.996264)"/>
      <use xlink:href="#CMSS17-73" transform="translate(157.386607 0) scale(0.996264)"/>
      <use xlink:href="#CMSS17-69" transform="translate(193.300149 0) scale(0.996264)"/>
      <use xlink:href="#CMSS17-74" transform="translate(215.480872 0) scale(0.996264)"/>
      <use xlink:href="#CMSS17-79" transform="translate(246.709985 0) scale(0.996264)"/>
     </g>
    </g>
   </g>
   <g id="line2d_16">
    <path d="M 297.154477 384.48 
L 297.154477 51.84 
" clip-path="url(#p41c42b3aba)" style="fill: none; stroke: #1f77b4; stroke-width: 1.5; stroke-linecap: square"/>
   </g>
   <g id="line2d_17">
    <path d="M 354.070312 384.48 
L 354.070312 51.84 
" clip-path="url(#p41c42b3aba)" style="fill: none; stroke: #1f77b4; stroke-width: 1.5; stroke-linecap: square"/>
   </g>
   <g id="line2d_18">
    <path d="M 406.335573 384.48 
L 406.335573 51.84 
" clip-path="url(#p41c42b3aba)" style="fill: none; stroke: #1f77b4; stroke-width: 1.5; stroke-linecap: square"/>
   </g>
   <g id="patch_3">
    <path d="M 90 384.48 
L 90 51.84 
" style="fill: none; stroke: #000000; stroke-width: 0.8; stroke-linejoin: miter; stroke-linecap: square"/>
   </g>
   <g id="patch_4">
    <path d="M 648 384.48 
L 648 51.84 
" style="fill: none; stroke: #000000; stroke-width: 0.8; stroke-linejoin: miter; stroke-linecap: square"/>
   </g>
   <g id="patch_5">
    <path d="M 90 384.48 
L 648 384.48 
" style="fill: none; stroke: #000000; stroke-width: 0.8; stroke-linejoin: miter; stroke-linecap: square"/>
   </g>
   <g id="patch_6">
    <path d="M 90 51.84 
L 648 51.84 
" style="fill: none; stroke: #000000; stroke-width: 0.8; stroke-linejoin: miter; stroke-linecap: square"/>
   </g>
   <g id="text_18">
    <!-- $\mathbb{E}[Y]$ -->
    <g transform="translate(303.695657 83.679518) rotate(-270) scale(0.2 -0.2)">
     <defs>
      <path id="MSBM10-45" d="M 1658 2176 
C 1818 2176 2125 2176 2349 2046 
C 2656 1853 2682 1517 2682 1480 
C 2688 1393 2688 1312 2797 1312 
C 2906 1312 2906 1401 2906 1517 
L 2906 3251 
C 2906 3353 2906 3456 2797 3456 
C 2688 3456 2682 3355 2682 3301 
C 2643 2432 1990 2432 1658 2432 
L 1658 3772 
C 1658 4198 1779 4198 1933 4198 
L 2240 4198 
C 3104 4198 3533 3759 3571 3320 
C 3578 3269 3584 3174 3686 3174 
C 3795 3174 3795 3276 3795 3385 
L 3795 4218 
C 3795 4416 3782 4416 3584 4416 
L 307 4416 
C 192 4416 90 4416 90 4304 
C 90 4198 211 4198 262 4198 
C 627 4198 653 4147 653 3832 
L 653 622 
C 653 320 634 256 294 256 
C 198 256 90 256 90 147 
C 90 32 192 32 307 32 
L 3699 32 
C 3821 32 3885 32 3904 123 
C 3910 129 4090 1213 4090 1245 
C 4090 1316 4032 1362 3981 1362 
C 3891 1362 3866 1278 3866 1271 
C 3827 1102 3763 828 3296 549 
C 2963 347 2637 256 2285 256 
L 1933 256 
C 1779 256 1658 256 1658 684 
L 1658 2176 
z
M 3571 4198 
L 3571 3896 
C 3462 4015 3341 4116 3206 4198 
L 3571 4198 
z
M 2323 2315 
C 2426 2360 2566 2456 2682 2590 
L 2682 2052 
C 2528 2225 2330 2308 2323 2308 
L 2323 2315 
z
M 877 3845 
C 877 3923 877 4083 826 4198 
L 1504 4198 
C 1434 4051 1434 3839 1434 3781 
L 1434 673 
C 1434 442 1478 314 1504 256 
L 826 256 
C 877 371 877 531 877 609 
L 877 3845 
z
M 3258 256 
L 3258 262 
C 3462 367 3635 504 3763 621 
C 3757 596 3712 308 3706 256 
L 3258 256 
z
" transform="scale(0.015625)"/>
      <path id="CMR17-5b" d="M 1504 -1600 
L 1504 -1377 
L 902 -1377 
L 902 4544 
L 1504 4544 
L 1504 4767 
L 678 4767 
L 678 -1600 
L 1504 -1600 
z
" transform="scale(0.015625)"/>
      <path id="CMR17-5d" d="M 915 4767 
L 90 4767 
L 90 4544 
L 691 4544 
L 691 -1377 
L 90 -1377 
L 90 -1600 
L 915 -1600 
L 915 4767 
z
" transform="scale(0.015625)"/>
     </defs>
     <use xlink:href="#MSBM10-45" transform="scale(0.996264)"/>
     <use xlink:href="#CMR17-5b" transform="translate(66.417819 0) scale(0.996264)"/>
     <use xlink:href="#CMMI12-59" transform="translate(91.288877 0) scale(0.996264)"/>
     <use xlink:href="#CMR17-5d" transform="translate(169.565226 0) scale(0.996264)"/>
    </g>
   </g>
   <g id="text_19">
    <!-- $\textup{VaR}_{\tau}(Y)$ -->
    <g transform="translate(360.611492 70.918045) rotate(-270) scale(0.2 -0.2)">
     <defs>
      <path id="CMSS17-56" d="M 3910 4416 
L 3411 4416 
L 2304 1362 
C 2272 1273 2074 688 2035 484 
L 2029 484 
C 1978 726 1773 1292 1664 1604 
L 922 3672 
L 646 4416 
L 83 4416 
L 1715 0 
L 2278 0 
L 3910 4416 
z
" transform="scale(0.015625)"/>
      <path id="CMSS17-61" d="M 2406 1791 
C 2406 2392 1978 2808 1402 2808 
C 1120 2808 813 2757 461 2553 
L 499 2135 
C 659 2248 934 2432 1395 2432 
C 1722 2432 1920 2180 1920 1782 
L 1920 1536 
C 896 1536 256 1238 256 726 
C 256 461 416 -64 947 -64 
C 1043 -64 1562 -64 1933 217 
L 1933 -19 
L 2406 -19 
L 2406 1791 
z
M 1920 816 
C 1920 701 1920 548 1728 434 
C 1562 325 1350 325 1261 325 
C 941 325 723 511 723 744 
C 723 1211 1722 1211 1920 1211 
L 1920 816 
z
" transform="scale(0.015625)"/>
      <path id="CMSS17-52" d="M 2522 2109 
L 2534 2115 
C 3533 2459 3539 3147 3539 3268 
C 3539 3873 2925 4453 2003 4453 
L 570 4453 
L 570 32 
L 1094 32 
L 1094 2048 
L 2035 2048 
L 3168 32 
L 3706 32 
L 2522 2109 
z
M 1094 2437 
L 1094 4096 
L 1933 4096 
C 2746 4096 3034 3637 3034 3267 
C 3034 2922 2778 2437 1933 2437 
L 1094 2437 
z
" transform="scale(0.015625)"/>
      <path id="CMMI12-1c" d="M 1837 2408 
L 2899 2408 
C 2982 2408 3194 2408 3194 2612 
C 3194 2752 3072 2752 2957 2752 
L 1197 2752 
C 1050 2752 832 2752 538 2440 
C 371 2255 166 1917 166 1879 
C 166 1841 198 1828 237 1828 
C 282 1828 288 1847 320 1885 
C 653 2408 986 2408 1146 2408 
L 1677 2408 
L 1011 223 
C 979 127 979 114 979 95 
C 979 25 1024 -64 1152 -64 
C 1350 -64 1382 108 1402 203 
L 1837 2408 
z
" transform="scale(0.015625)"/>
      <path id="CMR17-28" d="M 1958 -1561 
C 1958 -1555 1958 -1542 1939 -1523 
C 1645 -1224 858 -407 858 1581 
C 858 3569 1632 4379 1946 4697 
C 1946 4704 1958 4717 1958 4736 
C 1958 4755 1939 4768 1914 4768 
C 1843 4768 1299 4296 986 3594 
C 666 2887 576 2199 576 1588 
C 576 1128 621 351 1005 -471 
C 1312 -1135 1837 -1600 1914 -1600 
C 1946 -1600 1958 -1587 1958 -1561 
z
" transform="scale(0.015625)"/>
      <path id="CMR17-29" d="M 1683 1581 
C 1683 2040 1638 2817 1254 3639 
C 947 4303 422 4768 346 4768 
C 326 4768 301 4761 301 4729 
C 301 4717 307 4710 314 4697 
C 621 4378 1402 3568 1402 1584 
C 1402 -407 627 -1217 314 -1537 
C 307 -1549 301 -1556 301 -1568 
C 301 -1600 326 -1600 346 -1600 
C 416 -1600 960 -1128 1274 -426 
C 1594 281 1683 969 1683 1581 
z
" transform="scale(0.015625)"/>
     </defs>
     <use xlink:href="#CMSS17-56" transform="scale(0.996264)"/>
     <use xlink:href="#CMSS17-61" transform="translate(59.615401 0) scale(0.996264)"/>
     <use xlink:href="#CMSS17-52" transform="translate(104.537322 0) scale(0.996264)"/>
     <use xlink:href="#CMMI12-1c" transform="translate(164.953476 -14.943915) scale(0.697382)"/>
     <use xlink:href="#CMR17-28" transform="translate(202.895255 0) scale(0.996264)"/>
     <use xlink:href="#CMMI12-59" transform="translate(238.176023 0) scale(0.996264)"/>
     <use xlink:href="#CMR17-29" transform="translate(316.452372 0) scale(0.996264)"/>
    </g>
   </g>
   <g id="text_20">
    <!-- $\textup{CVaR}_{\tau}(Y)$ -->
    <g transform="translate(412.876753 70.97055) rotate(-270) scale(0.2 -0.2)">
     <defs>
      <path id="CMSS17-43" d="M 3501 714 
C 3072 427 2874 344 2355 344 
C 1459 344 934 1303 934 2179 
C 934 3112 1472 4032 2381 4032 
C 2790 4032 3059 3918 3386 3715 
L 3475 4217 
C 3168 4370 2778 4440 2387 4440 
C 1158 4440 397 3316 397 2179 
C 397 927 1299 -64 2323 -64 
C 2874 -64 3066 -19 3539 280 
L 3501 714 
z
" transform="scale(0.015625)"/>
     </defs>
     <use xlink:href="#CMSS17-43" transform="scale(0.996264)"/>
     <use xlink:href="#CMSS17-56" transform="translate(59.855772 0) scale(0.996264)"/>
     <use xlink:href="#CMSS17-61" transform="translate(119.471173 0) scale(0.996264)"/>
     <use xlink:href="#CMSS17-52" transform="translate(164.393093 0) scale(0.996264)"/>
     <use xlink:href="#CMMI12-1c" transform="translate(224.809248 -14.943915) scale(0.697382)"/>
     <use xlink:href="#CMR17-28" transform="translate(262.751027 0) scale(0.996264)"/>
     <use xlink:href="#CMMI12-59" transform="translate(298.031795 0) scale(0.996264)"/>
     <use xlink:href="#CMR17-29" transform="translate(376.308144 0) scale(0.996264)"/>
    </g>
   </g>
  </g>
 </g>
 <defs>
  <clipPath id="p41c42b3aba">
   <rect x="90" y="51.84" width="558" height="332.64"/>
  </clipPath>
 </defs>
</svg>
