<?xml version="1.0" encoding="utf-8" standalone="no"?>
<!DOCTYPE svg PUBLIC "-//W3C//DTD SVG 1.1//EN"
  "http://www.w3.org/Graphics/SVG/1.1/DTD/svg11.dtd">
<svg xmlns:xlink="http://www.w3.org/1999/xlink" width="360pt" height="288pt" viewBox="0 0 360 288" xmlns="http://www.w3.org/2000/svg" version="1.1">
 <metadata>
  <rdf:RDF xmlns:dc="http://purl.org/dc/elements/1.1/" xmlns:cc="http://creativecommons.org/ns#" xmlns:rdf="http://www.w3.org/1999/02/22-rdf-syntax-ns#">
   <cc:Work>
    <dc:type rdf:resource="http://purl.org/dc/dcmitype/StillImage"/>
    <dc:date>2024-04-10T14:48:42.445926</dc:date>
    <dc:format>image/svg+xml</dc:format>
    <dc:creator>
     <cc:Agent>
      <dc:title>Matplotlib v3.7.0, https://matplotlib.org/</dc:title>
     </cc:Agent>
    </dc:creator>
   </cc:Work>
  </rdf:RDF>
 </metadata>
 <defs>
  <style type="text/css">*{stroke-linejoin: round; stroke-linecap: butt}</style>
 </defs>
 <g id="figure_1">
  <g id="patch_1">
   <path d="M 0 288 
L 360 288 
L 360 0 
L 0 0 
z
" style="fill: #ffffff"/>
  </g>
  <g id="axes_1">
   <g id="patch_2">
    <path d="M 45 256.32 
L 324 256.32 
L 324 34.56 
L 45 34.56 
z
" style="fill: #ffffff"/>
   </g>
   <g id="matplotlib.axis_1">
    <g id="xtick_1">
     <g id="line2d_1">
      <defs>
       <path id="m8451e3c31c" d="M 0 0 
L 0 3.5 
" style="stroke: #000000; stroke-width: 0.8"/>
      </defs>
      <g>
       <use xlink:href="#m8451e3c31c" x="55.119835" y="256.32" style="stroke: #000000; stroke-width: 0.8"/>
      </g>
     </g>
     <g id="text_1">
      <!-- 0 -->
      <g transform="translate(51.938585 270.918437) scale(0.1 -0.1)">
       <defs>
        <path id="DejaVuSans-30" d="M 2034 4250 
Q 1547 4250 1301 3770 
Q 1056 3291 1056 2328 
Q 1056 1369 1301 889 
Q 1547 409 2034 409 
Q 2525 409 2770 889 
Q 3016 1369 3016 2328 
Q 3016 3291 2770 3770 
Q 2525 4250 2034 4250 
z
M 2034 4750 
Q 2819 4750 3233 4129 
Q 3647 3509 3647 2328 
Q 3647 1150 3233 529 
Q 2819 -91 2034 -91 
Q 1250 -91 836 529 
Q 422 1150 422 2328 
Q 422 3509 836 4129 
Q 1250 4750 2034 4750 
z
" transform="scale(0.015625)"/>
       </defs>
       <use xlink:href="#DejaVuSans-30"/>
      </g>
     </g>
    </g>
    <g id="xtick_2">
     <g id="line2d_2">
      <g>
       <use xlink:href="#m8451e3c31c" x="106.359504" y="256.32" style="stroke: #000000; stroke-width: 0.8"/>
      </g>
     </g>
     <g id="text_2">
      <!-- 20 -->
      <g transform="translate(99.997004 270.918437) scale(0.1 -0.1)">
       <defs>
        <path id="DejaVuSans-32" d="M 1228 531 
L 3431 531 
L 3431 0 
L 469 0 
L 469 531 
Q 828 903 1448 1529 
Q 2069 2156 2228 2338 
Q 2531 2678 2651 2914 
Q 2772 3150 2772 3378 
Q 2772 3750 2511 3984 
Q 2250 4219 1831 4219 
Q 1534 4219 1204 4116 
Q 875 4013 500 3803 
L 500 4441 
Q 881 4594 1212 4672 
Q 1544 4750 1819 4750 
Q 2544 4750 2975 4387 
Q 3406 4025 3406 3419 
Q 3406 3131 3298 2873 
Q 3191 2616 2906 2266 
Q 2828 2175 2409 1742 
Q 1991 1309 1228 531 
z
" transform="scale(0.015625)"/>
       </defs>
       <use xlink:href="#DejaVuSans-32"/>
       <use xlink:href="#DejaVuSans-30" x="63.623047"/>
      </g>
     </g>
    </g>
    <g id="xtick_3">
     <g id="line2d_3">
      <g>
       <use xlink:href="#m8451e3c31c" x="157.599174" y="256.32" style="stroke: #000000; stroke-width: 0.8"/>
      </g>
     </g>
     <g id="text_3">
      <!-- 40 -->
      <g transform="translate(151.236674 270.918437) scale(0.1 -0.1)">
       <defs>
        <path id="DejaVuSans-34" d="M 2419 4116 
L 825 1625 
L 2419 1625 
L 2419 4116 
z
M 2253 4666 
L 3047 4666 
L 3047 1625 
L 3713 1625 
L 3713 1100 
L 3047 1100 
L 3047 0 
L 2419 0 
L 2419 1100 
L 313 1100 
L 313 1709 
L 2253 4666 
z
" transform="scale(0.015625)"/>
       </defs>
       <use xlink:href="#DejaVuSans-34"/>
       <use xlink:href="#DejaVuSans-30" x="63.623047"/>
      </g>
     </g>
    </g>
    <g id="xtick_4">
     <g id="line2d_4">
      <g>
       <use xlink:href="#m8451e3c31c" x="208.838843" y="256.32" style="stroke: #000000; stroke-width: 0.8"/>
      </g>
     </g>
     <g id="text_4">
      <!-- 60 -->
      <g transform="translate(202.476343 270.918437) scale(0.1 -0.1)">
       <defs>
        <path id="DejaVuSans-36" d="M 2113 2584 
Q 1688 2584 1439 2293 
Q 1191 2003 1191 1497 
Q 1191 994 1439 701 
Q 1688 409 2113 409 
Q 2538 409 2786 701 
Q 3034 994 3034 1497 
Q 3034 2003 2786 2293 
Q 2538 2584 2113 2584 
z
M 3366 4563 
L 3366 3988 
Q 3128 4100 2886 4159 
Q 2644 4219 2406 4219 
Q 1781 4219 1451 3797 
Q 1122 3375 1075 2522 
Q 1259 2794 1537 2939 
Q 1816 3084 2150 3084 
Q 2853 3084 3261 2657 
Q 3669 2231 3669 1497 
Q 3669 778 3244 343 
Q 2819 -91 2113 -91 
Q 1303 -91 875 529 
Q 447 1150 447 2328 
Q 447 3434 972 4092 
Q 1497 4750 2381 4750 
Q 2619 4750 2861 4703 
Q 3103 4656 3366 4563 
z
" transform="scale(0.015625)"/>
       </defs>
       <use xlink:href="#DejaVuSans-36"/>
       <use xlink:href="#DejaVuSans-30" x="63.623047"/>
      </g>
     </g>
    </g>
    <g id="xtick_5">
     <g id="line2d_5">
      <g>
       <use xlink:href="#m8451e3c31c" x="260.078512" y="256.32" style="stroke: #000000; stroke-width: 0.8"/>
      </g>
     </g>
     <g id="text_5">
      <!-- 80 -->
      <g transform="translate(253.716012 270.918437) scale(0.1 -0.1)">
       <defs>
        <path id="DejaVuSans-38" d="M 2034 2216 
Q 1584 2216 1326 1975 
Q 1069 1734 1069 1313 
Q 1069 891 1326 650 
Q 1584 409 2034 409 
Q 2484 409 2743 651 
Q 3003 894 3003 1313 
Q 3003 1734 2745 1975 
Q 2488 2216 2034 2216 
z
M 1403 2484 
Q 997 2584 770 2862 
Q 544 3141 544 3541 
Q 544 4100 942 4425 
Q 1341 4750 2034 4750 
Q 2731 4750 3128 4425 
Q 3525 4100 3525 3541 
Q 3525 3141 3298 2862 
Q 3072 2584 2669 2484 
Q 3125 2378 3379 2068 
Q 3634 1759 3634 1313 
Q 3634 634 3220 271 
Q 2806 -91 2034 -91 
Q 1263 -91 848 271 
Q 434 634 434 1313 
Q 434 1759 690 2068 
Q 947 2378 1403 2484 
z
M 1172 3481 
Q 1172 3119 1398 2916 
Q 1625 2713 2034 2713 
Q 2441 2713 2670 2916 
Q 2900 3119 2900 3481 
Q 2900 3844 2670 4047 
Q 2441 4250 2034 4250 
Q 1625 4250 1398 4047 
Q 1172 3844 1172 3481 
z
" transform="scale(0.015625)"/>
       </defs>
       <use xlink:href="#DejaVuSans-38"/>
       <use xlink:href="#DejaVuSans-30" x="63.623047"/>
      </g>
     </g>
    </g>
    <g id="xtick_6">
     <g id="line2d_6">
      <g>
       <use xlink:href="#m8451e3c31c" x="311.318182" y="256.32" style="stroke: #000000; stroke-width: 0.8"/>
      </g>
     </g>
     <g id="text_6">
      <!-- 100 -->
      <g transform="translate(301.774432 270.918437) scale(0.1 -0.1)">
       <defs>
        <path id="DejaVuSans-31" d="M 794 531 
L 1825 531 
L 1825 4091 
L 703 3866 
L 703 4441 
L 1819 4666 
L 2450 4666 
L 2450 531 
L 3481 531 
L 3481 0 
L 794 0 
L 794 531 
z
" transform="scale(0.015625)"/>
       </defs>
       <use xlink:href="#DejaVuSans-31"/>
       <use xlink:href="#DejaVuSans-30" x="63.623047"/>
       <use xlink:href="#DejaVuSans-30" x="127.246094"/>
      </g>
     </g>
    </g>
    <g id="text_7">
     <!-- Sample Size, $n$ -->
     <g transform="translate(147.55 284.598125) scale(0.1 -0.1)">
      <defs>
       <path id="DejaVuSans-53" d="M 3425 4513 
L 3425 3897 
Q 3066 4069 2747 4153 
Q 2428 4238 2131 4238 
Q 1616 4238 1336 4038 
Q 1056 3838 1056 3469 
Q 1056 3159 1242 3001 
Q 1428 2844 1947 2747 
L 2328 2669 
Q 3034 2534 3370 2195 
Q 3706 1856 3706 1288 
Q 3706 609 3251 259 
Q 2797 -91 1919 -91 
Q 1588 -91 1214 -16 
Q 841 59 441 206 
L 441 856 
Q 825 641 1194 531 
Q 1563 422 1919 422 
Q 2459 422 2753 634 
Q 3047 847 3047 1241 
Q 3047 1584 2836 1778 
Q 2625 1972 2144 2069 
L 1759 2144 
Q 1053 2284 737 2584 
Q 422 2884 422 3419 
Q 422 4038 858 4394 
Q 1294 4750 2059 4750 
Q 2388 4750 2728 4690 
Q 3069 4631 3425 4513 
z
" transform="scale(0.015625)"/>
       <path id="DejaVuSans-61" d="M 2194 1759 
Q 1497 1759 1228 1600 
Q 959 1441 959 1056 
Q 959 750 1161 570 
Q 1363 391 1709 391 
Q 2188 391 2477 730 
Q 2766 1069 2766 1631 
L 2766 1759 
L 2194 1759 
z
M 3341 1997 
L 3341 0 
L 2766 0 
L 2766 531 
Q 2569 213 2275 61 
Q 1981 -91 1556 -91 
Q 1019 -91 701 211 
Q 384 513 384 1019 
Q 384 1609 779 1909 
Q 1175 2209 1959 2209 
L 2766 2209 
L 2766 2266 
Q 2766 2663 2505 2880 
Q 2244 3097 1772 3097 
Q 1472 3097 1187 3025 
Q 903 2953 641 2809 
L 641 3341 
Q 956 3463 1253 3523 
Q 1550 3584 1831 3584 
Q 2591 3584 2966 3190 
Q 3341 2797 3341 1997 
z
" transform="scale(0.015625)"/>
       <path id="DejaVuSans-6d" d="M 3328 2828 
Q 3544 3216 3844 3400 
Q 4144 3584 4550 3584 
Q 5097 3584 5394 3201 
Q 5691 2819 5691 2113 
L 5691 0 
L 5113 0 
L 5113 2094 
Q 5113 2597 4934 2840 
Q 4756 3084 4391 3084 
Q 3944 3084 3684 2787 
Q 3425 2491 3425 1978 
L 3425 0 
L 2847 0 
L 2847 2094 
Q 2847 2600 2669 2842 
Q 2491 3084 2119 3084 
Q 1678 3084 1418 2786 
Q 1159 2488 1159 1978 
L 1159 0 
L 581 0 
L 581 3500 
L 1159 3500 
L 1159 2956 
Q 1356 3278 1631 3431 
Q 1906 3584 2284 3584 
Q 2666 3584 2933 3390 
Q 3200 3197 3328 2828 
z
" transform="scale(0.015625)"/>
       <path id="DejaVuSans-70" d="M 1159 525 
L 1159 -1331 
L 581 -1331 
L 581 3500 
L 1159 3500 
L 1159 2969 
Q 1341 3281 1617 3432 
Q 1894 3584 2278 3584 
Q 2916 3584 3314 3078 
Q 3713 2572 3713 1747 
Q 3713 922 3314 415 
Q 2916 -91 2278 -91 
Q 1894 -91 1617 61 
Q 1341 213 1159 525 
z
M 3116 1747 
Q 3116 2381 2855 2742 
Q 2594 3103 2138 3103 
Q 1681 3103 1420 2742 
Q 1159 2381 1159 1747 
Q 1159 1113 1420 752 
Q 1681 391 2138 391 
Q 2594 391 2855 752 
Q 3116 1113 3116 1747 
z
" transform="scale(0.015625)"/>
       <path id="DejaVuSans-6c" d="M 603 4863 
L 1178 4863 
L 1178 0 
L 603 0 
L 603 4863 
z
" transform="scale(0.015625)"/>
       <path id="DejaVuSans-65" d="M 3597 1894 
L 3597 1613 
L 953 1613 
Q 991 1019 1311 708 
Q 1631 397 2203 397 
Q 2534 397 2845 478 
Q 3156 559 3463 722 
L 3463 178 
Q 3153 47 2828 -22 
Q 2503 -91 2169 -91 
Q 1331 -91 842 396 
Q 353 884 353 1716 
Q 353 2575 817 3079 
Q 1281 3584 2069 3584 
Q 2775 3584 3186 3129 
Q 3597 2675 3597 1894 
z
M 3022 2063 
Q 3016 2534 2758 2815 
Q 2500 3097 2075 3097 
Q 1594 3097 1305 2825 
Q 1016 2553 972 2059 
L 3022 2063 
z
" transform="scale(0.015625)"/>
       <path id="DejaVuSans-20" transform="scale(0.015625)"/>
       <path id="DejaVuSans-69" d="M 603 3500 
L 1178 3500 
L 1178 0 
L 603 0 
L 603 3500 
z
M 603 4863 
L 1178 4863 
L 1178 4134 
L 603 4134 
L 603 4863 
z
" transform="scale(0.015625)"/>
       <path id="DejaVuSans-7a" d="M 353 3500 
L 3084 3500 
L 3084 2975 
L 922 459 
L 3084 459 
L 3084 0 
L 275 0 
L 275 525 
L 2438 3041 
L 353 3041 
L 353 3500 
z
" transform="scale(0.015625)"/>
       <path id="DejaVuSans-2c" d="M 750 794 
L 1409 794 
L 1409 256 
L 897 -744 
L 494 -744 
L 750 256 
L 750 794 
z
" transform="scale(0.015625)"/>
       <path id="DejaVuSans-Oblique-6e" d="M 3566 2113 
L 3156 0 
L 2578 0 
L 2988 2091 
Q 3016 2238 3031 2350 
Q 3047 2463 3047 2528 
Q 3047 2791 2881 2937 
Q 2716 3084 2419 3084 
Q 1956 3084 1622 2776 
Q 1288 2469 1184 1941 
L 800 0 
L 225 0 
L 903 3500 
L 1478 3500 
L 1363 2950 
Q 1603 3253 1940 3418 
Q 2278 3584 2650 3584 
Q 3113 3584 3367 3334 
Q 3622 3084 3622 2631 
Q 3622 2519 3608 2391 
Q 3594 2263 3566 2113 
z
" transform="scale(0.015625)"/>
      </defs>
      <use xlink:href="#DejaVuSans-53" transform="translate(0 0.015625)"/>
      <use xlink:href="#DejaVuSans-61" transform="translate(63.476562 0.015625)"/>
      <use xlink:href="#DejaVuSans-6d" transform="translate(124.755859 0.015625)"/>
      <use xlink:href="#DejaVuSans-70" transform="translate(222.167969 0.015625)"/>
      <use xlink:href="#DejaVuSans-6c" transform="translate(285.644531 0.015625)"/>
      <use xlink:href="#DejaVuSans-65" transform="translate(313.427734 0.015625)"/>
      <use xlink:href="#DejaVuSans-20" transform="translate(374.951172 0.015625)"/>
      <use xlink:href="#DejaVuSans-53" transform="translate(406.738281 0.015625)"/>
      <use xlink:href="#DejaVuSans-69" transform="translate(470.214844 0.015625)"/>
      <use xlink:href="#DejaVuSans-7a" transform="translate(497.998047 0.015625)"/>
      <use xlink:href="#DejaVuSans-65" transform="translate(550.488281 0.015625)"/>
      <use xlink:href="#DejaVuSans-2c" transform="translate(612.011719 0.015625)"/>
      <use xlink:href="#DejaVuSans-20" transform="translate(643.798828 0.015625)"/>
      <use xlink:href="#DejaVuSans-Oblique-6e" transform="translate(675.585938 0.015625)"/>
     </g>
    </g>
   </g>
   <g id="matplotlib.axis_2">
    <g id="ytick_1">
     <g id="line2d_7">
      <defs>
       <path id="m441c133804" d="M 0 0 
L -3.5 0 
" style="stroke: #000000; stroke-width: 0.8"/>
      </defs>
      <g>
       <use xlink:href="#m441c133804" x="45" y="246.24" style="stroke: #000000; stroke-width: 0.8"/>
      </g>
     </g>
     <g id="text_8">
      <!-- 0 -->
      <g transform="translate(31.6375 250.039219) scale(0.1 -0.1)">
       <use xlink:href="#DejaVuSans-30"/>
      </g>
     </g>
    </g>
    <g id="ytick_2">
     <g id="line2d_8">
      <g>
       <use xlink:href="#m441c133804" x="45" y="219.713684" style="stroke: #000000; stroke-width: 0.8"/>
      </g>
     </g>
     <g id="text_9">
      <!-- 5 -->
      <g transform="translate(31.6375 223.512903) scale(0.1 -0.1)">
       <defs>
        <path id="DejaVuSans-35" d="M 691 4666 
L 3169 4666 
L 3169 4134 
L 1269 4134 
L 1269 2991 
Q 1406 3038 1543 3061 
Q 1681 3084 1819 3084 
Q 2600 3084 3056 2656 
Q 3513 2228 3513 1497 
Q 3513 744 3044 326 
Q 2575 -91 1722 -91 
Q 1428 -91 1123 -41 
Q 819 9 494 109 
L 494 744 
Q 775 591 1075 516 
Q 1375 441 1709 441 
Q 2250 441 2565 725 
Q 2881 1009 2881 1497 
Q 2881 1984 2565 2268 
Q 2250 2553 1709 2553 
Q 1456 2553 1204 2497 
Q 953 2441 691 2322 
L 691 4666 
z
" transform="scale(0.015625)"/>
       </defs>
       <use xlink:href="#DejaVuSans-35"/>
      </g>
     </g>
    </g>
    <g id="ytick_3">
     <g id="line2d_9">
      <g>
       <use xlink:href="#m441c133804" x="45" y="193.187368" style="stroke: #000000; stroke-width: 0.8"/>
      </g>
     </g>
     <g id="text_10">
      <!-- 10 -->
      <g transform="translate(25.275 196.986587) scale(0.1 -0.1)">
       <use xlink:href="#DejaVuSans-31"/>
       <use xlink:href="#DejaVuSans-30" x="63.623047"/>
      </g>
     </g>
    </g>
    <g id="ytick_4">
     <g id="line2d_10">
      <g>
       <use xlink:href="#m441c133804" x="45" y="166.661053" style="stroke: #000000; stroke-width: 0.8"/>
      </g>
     </g>
     <g id="text_11">
      <!-- 15 -->
      <g transform="translate(25.275 170.460271) scale(0.1 -0.1)">
       <use xlink:href="#DejaVuSans-31"/>
       <use xlink:href="#DejaVuSans-35" x="63.623047"/>
      </g>
     </g>
    </g>
    <g id="ytick_5">
     <g id="line2d_11">
      <g>
       <use xlink:href="#m441c133804" x="45" y="140.134737" style="stroke: #000000; stroke-width: 0.8"/>
      </g>
     </g>
     <g id="text_12">
      <!-- 20 -->
      <g transform="translate(25.275 143.933956) scale(0.1 -0.1)">
       <use xlink:href="#DejaVuSans-32"/>
       <use xlink:href="#DejaVuSans-30" x="63.623047"/>
      </g>
     </g>
    </g>
    <g id="ytick_6">
     <g id="line2d_12">
      <g>
       <use xlink:href="#m441c133804" x="45" y="113.608421" style="stroke: #000000; stroke-width: 0.8"/>
      </g>
     </g>
     <g id="text_13">
      <!-- 25 -->
      <g transform="translate(25.275 117.40764) scale(0.1 -0.1)">
       <use xlink:href="#DejaVuSans-32"/>
       <use xlink:href="#DejaVuSans-35" x="63.623047"/>
      </g>
     </g>
    </g>
    <g id="ytick_7">
     <g id="line2d_13">
      <g>
       <use xlink:href="#m441c133804" x="45" y="87.082105" style="stroke: #000000; stroke-width: 0.8"/>
      </g>
     </g>
     <g id="text_14">
      <!-- 30 -->
      <g transform="translate(25.275 90.881324) scale(0.1 -0.1)">
       <defs>
        <path id="DejaVuSans-33" d="M 2597 2516 
Q 3050 2419 3304 2112 
Q 3559 1806 3559 1356 
Q 3559 666 3084 287 
Q 2609 -91 1734 -91 
Q 1441 -91 1130 -33 
Q 819 25 488 141 
L 488 750 
Q 750 597 1062 519 
Q 1375 441 1716 441 
Q 2309 441 2620 675 
Q 2931 909 2931 1356 
Q 2931 1769 2642 2001 
Q 2353 2234 1838 2234 
L 1294 2234 
L 1294 2753 
L 1863 2753 
Q 2328 2753 2575 2939 
Q 2822 3125 2822 3475 
Q 2822 3834 2567 4026 
Q 2313 4219 1838 4219 
Q 1578 4219 1281 4162 
Q 984 4106 628 3988 
L 628 4550 
Q 988 4650 1302 4700 
Q 1616 4750 1894 4750 
Q 2613 4750 3031 4423 
Q 3450 4097 3450 3541 
Q 3450 3153 3228 2886 
Q 3006 2619 2597 2516 
z
" transform="scale(0.015625)"/>
       </defs>
       <use xlink:href="#DejaVuSans-33"/>
       <use xlink:href="#DejaVuSans-30" x="63.623047"/>
      </g>
     </g>
    </g>
    <g id="ytick_8">
     <g id="line2d_14">
      <g>
       <use xlink:href="#m441c133804" x="45" y="60.555789" style="stroke: #000000; stroke-width: 0.8"/>
      </g>
     </g>
     <g id="text_15">
      <!-- 35 -->
      <g transform="translate(25.275 64.355008) scale(0.1 -0.1)">
       <use xlink:href="#DejaVuSans-33"/>
       <use xlink:href="#DejaVuSans-35" x="63.623047"/>
      </g>
     </g>
    </g>
    <g id="text_16">
     <!-- $k_{others} - k_{ours}$ -->
     <g transform="translate(19.195312 176.44) rotate(-90) scale(0.1 -0.1)">
      <defs>
       <path id="DejaVuSans-Oblique-6b" d="M 1172 4863 
L 1747 4863 
L 1197 2028 
L 3169 3500 
L 3916 3500 
L 1716 1825 
L 3322 0 
L 2625 0 
L 1131 1709 
L 800 0 
L 225 0 
L 1172 4863 
z
" transform="scale(0.015625)"/>
       <path id="DejaVuSans-Oblique-6f" d="M 1625 -91 
Q 1009 -91 651 289 
Q 294 669 294 1325 
Q 294 1706 417 2101 
Q 541 2497 738 2766 
Q 1047 3184 1428 3384 
Q 1809 3584 2291 3584 
Q 2888 3584 3255 3212 
Q 3622 2841 3622 2241 
Q 3622 1825 3500 1412 
Q 3378 1000 3181 728 
Q 2875 309 2494 109 
Q 2113 -91 1625 -91 
z
M 891 1344 
Q 891 869 1089 633 
Q 1288 397 1691 397 
Q 2269 397 2648 901 
Q 3028 1406 3028 2181 
Q 3028 2634 2825 2865 
Q 2622 3097 2228 3097 
Q 1903 3097 1650 2945 
Q 1397 2794 1197 2484 
Q 1050 2253 970 1956 
Q 891 1659 891 1344 
z
" transform="scale(0.015625)"/>
       <path id="DejaVuSans-Oblique-74" d="M 2706 3500 
L 2619 3053 
L 1472 3053 
L 1100 1153 
Q 1081 1047 1072 975 
Q 1063 903 1063 863 
Q 1063 663 1183 572 
Q 1303 481 1569 481 
L 2150 481 
L 2053 0 
L 1503 0 
Q 991 0 739 200 
Q 488 400 488 806 
Q 488 878 497 964 
Q 506 1050 525 1153 
L 897 3053 
L 409 3053 
L 500 3500 
L 978 3500 
L 1172 4494 
L 1747 4494 
L 1556 3500 
L 2706 3500 
z
" transform="scale(0.015625)"/>
       <path id="DejaVuSans-Oblique-68" d="M 3566 2113 
L 3156 0 
L 2578 0 
L 2988 2091 
Q 3016 2238 3031 2350 
Q 3047 2463 3047 2528 
Q 3047 2791 2881 2937 
Q 2716 3084 2419 3084 
Q 1956 3084 1617 2771 
Q 1278 2459 1178 1941 
L 800 0 
L 225 0 
L 1172 4863 
L 1747 4863 
L 1375 2950 
Q 1594 3244 1934 3414 
Q 2275 3584 2650 3584 
Q 3113 3584 3367 3334 
Q 3622 3084 3622 2631 
Q 3622 2519 3608 2391 
Q 3594 2263 3566 2113 
z
" transform="scale(0.015625)"/>
       <path id="DejaVuSans-Oblique-65" d="M 3078 2063 
Q 3088 2113 3092 2166 
Q 3097 2219 3097 2272 
Q 3097 2653 2873 2875 
Q 2650 3097 2266 3097 
Q 1838 3097 1509 2826 
Q 1181 2556 1013 2059 
L 3078 2063 
z
M 3578 1613 
L 903 1613 
Q 884 1494 878 1425 
Q 872 1356 872 1306 
Q 872 872 1139 634 
Q 1406 397 1894 397 
Q 2269 397 2603 481 
Q 2938 566 3225 728 
L 3116 159 
Q 2806 34 2476 -28 
Q 2147 -91 1806 -91 
Q 1078 -91 686 257 
Q 294 606 294 1247 
Q 294 1794 489 2264 
Q 684 2734 1063 3103 
Q 1306 3334 1642 3459 
Q 1978 3584 2356 3584 
Q 2950 3584 3301 3228 
Q 3653 2872 3653 2272 
Q 3653 2128 3634 1964 
Q 3616 1800 3578 1613 
z
" transform="scale(0.015625)"/>
       <path id="DejaVuSans-Oblique-72" d="M 2853 2969 
Q 2766 3016 2653 3041 
Q 2541 3066 2413 3066 
Q 1953 3066 1609 2717 
Q 1266 2369 1153 1784 
L 800 0 
L 225 0 
L 909 3500 
L 1484 3500 
L 1375 2956 
Q 1603 3259 1920 3421 
Q 2238 3584 2597 3584 
Q 2691 3584 2781 3573 
Q 2872 3563 2963 3538 
L 2853 2969 
z
" transform="scale(0.015625)"/>
       <path id="DejaVuSans-Oblique-73" d="M 3200 3397 
L 3091 2853 
Q 2863 2978 2609 3040 
Q 2356 3103 2088 3103 
Q 1634 3103 1373 2948 
Q 1113 2794 1113 2528 
Q 1113 2219 1719 2053 
Q 1766 2041 1788 2034 
L 1972 1978 
Q 2547 1819 2739 1644 
Q 2931 1469 2931 1166 
Q 2931 609 2489 259 
Q 2047 -91 1331 -91 
Q 1053 -91 747 -37 
Q 441 16 72 128 
L 184 722 
Q 500 559 806 475 
Q 1113 391 1394 391 
Q 1816 391 2080 572 
Q 2344 753 2344 1031 
Q 2344 1331 1650 1516 
L 1591 1531 
L 1394 1581 
Q 956 1697 753 1886 
Q 550 2075 550 2369 
Q 550 2928 970 3256 
Q 1391 3584 2113 3584 
Q 2397 3584 2667 3537 
Q 2938 3491 3200 3397 
z
" transform="scale(0.015625)"/>
       <path id="DejaVuSans-2212" d="M 678 2272 
L 4684 2272 
L 4684 1741 
L 678 1741 
L 678 2272 
z
" transform="scale(0.015625)"/>
       <path id="DejaVuSans-Oblique-75" d="M 428 1388 
L 838 3500 
L 1416 3500 
L 1006 1409 
Q 975 1256 961 1147 
Q 947 1038 947 966 
Q 947 700 1109 554 
Q 1272 409 1569 409 
Q 2031 409 2368 721 
Q 2706 1034 2809 1563 
L 3194 3500 
L 3769 3500 
L 3091 0 
L 2516 0 
L 2631 550 
Q 2388 244 2052 76 
Q 1716 -91 1338 -91 
Q 878 -91 622 161 
Q 366 413 366 863 
Q 366 956 381 1097 
Q 397 1238 428 1388 
z
" transform="scale(0.015625)"/>
      </defs>
      <use xlink:href="#DejaVuSans-Oblique-6b" transform="translate(0 0.015625)"/>
      <use xlink:href="#DejaVuSans-Oblique-6f" transform="translate(57.910156 -16.390625) scale(0.7)"/>
      <use xlink:href="#DejaVuSans-Oblique-74" transform="translate(100.737305 -16.390625) scale(0.7)"/>
      <use xlink:href="#DejaVuSans-Oblique-68" transform="translate(128.183594 -16.390625) scale(0.7)"/>
      <use xlink:href="#DejaVuSans-Oblique-65" transform="translate(172.548828 -16.390625) scale(0.7)"/>
      <use xlink:href="#DejaVuSans-Oblique-72" transform="translate(215.615234 -16.390625) scale(0.7)"/>
      <use xlink:href="#DejaVuSans-Oblique-73" transform="translate(244.394531 -16.390625) scale(0.7)"/>
      <use xlink:href="#DejaVuSans-2212" transform="translate(303.081055 0.015625)"/>
      <use xlink:href="#DejaVuSans-Oblique-6b" transform="translate(406.352539 0.015625)"/>
      <use xlink:href="#DejaVuSans-Oblique-6f" transform="translate(464.262695 -16.390625) scale(0.7)"/>
      <use xlink:href="#DejaVuSans-Oblique-75" transform="translate(507.089844 -16.390625) scale(0.7)"/>
      <use xlink:href="#DejaVuSans-Oblique-72" transform="translate(551.455078 -16.390625) scale(0.7)"/>
      <use xlink:href="#DejaVuSans-Oblique-73" transform="translate(580.234375 -16.390625) scale(0.7)"/>
     </g>
    </g>
   </g>
   <g id="line2d_15">
    <path d="M 60.243802 246.24 
L 62.805785 240.934737 
L 65.367769 235.629474 
L 67.929752 230.324211 
L 70.491736 225.018947 
L 73.053719 219.713684 
L 75.615702 214.408421 
L 78.177686 209.103158 
L 80.739669 203.797895 
L 83.301653 198.492632 
L 85.863636 193.187368 
L 88.42562 187.882105 
L 90.987603 182.576842 
L 93.549587 177.271579 
L 96.11157 171.966316 
L 98.673554 166.661053 
L 101.235537 166.661053 
L 103.797521 161.355789 
L 106.359504 161.355789 
L 108.921488 161.355789 
L 111.483471 156.050526 
L 114.045455 156.050526 
L 116.607438 150.745263 
L 119.169421 150.745263 
L 121.731405 150.745263 
L 124.293388 145.44 
L 126.855372 145.44 
L 129.417355 140.134737 
L 131.979339 140.134737 
L 134.541322 140.134737 
L 137.103306 134.829474 
L 139.665289 134.829474 
L 142.227273 134.829474 
L 144.789256 129.524211 
L 147.35124 129.524211 
L 149.913223 129.524211 
L 152.475207 124.218947 
L 155.03719 124.218947 
L 157.599174 124.218947 
L 160.161157 118.913684 
L 162.72314 118.913684 
L 165.285124 118.913684 
L 167.847107 118.913684 
L 170.409091 113.608421 
L 172.971074 118.913684 
L 175.533058 118.913684 
L 178.095041 113.608421 
L 180.657025 113.608421 
L 183.219008 113.608421 
L 185.780992 113.608421 
L 188.342975 108.303158 
L 190.904959 108.303158 
L 193.466942 108.303158 
L 196.028926 102.997895 
L 198.590909 102.997895 
L 201.152893 102.997895 
L 203.714876 102.997895 
L 206.27686 97.692632 
L 208.838843 97.692632 
L 211.400826 97.692632 
L 213.96281 97.692632 
L 216.524793 92.387368 
L 219.086777 92.387368 
L 221.64876 92.387368 
L 224.210744 92.387368 
L 226.772727 87.082105 
L 229.334711 87.082105 
L 231.896694 87.082105 
L 234.458678 87.082105 
L 237.020661 87.082105 
L 239.582645 81.776842 
L 242.144628 81.776842 
L 244.706612 81.776842 
L 247.268595 81.776842 
L 249.830579 76.471579 
L 252.392562 76.471579 
L 254.954545 76.471579 
L 257.516529 76.471579 
L 260.078512 71.166316 
L 262.640496 71.166316 
L 265.202479 71.166316 
L 267.764463 71.166316 
L 270.326446 71.166316 
L 272.88843 65.861053 
L 275.450413 65.861053 
L 278.012397 65.861053 
L 280.57438 65.861053 
L 283.136364 65.861053 
L 285.698347 60.555789 
L 288.260331 60.555789 
L 290.822314 60.555789 
L 293.384298 60.555789 
L 295.946281 60.555789 
L 298.508264 55.250526 
L 301.070248 55.250526 
L 303.632231 55.250526 
L 306.194215 55.250526 
L 308.756198 55.250526 
L 311.318182 49.945263 
" clip-path="url(#p415d537819)" style="fill: none; stroke: #da70d6; stroke-width: 2; stroke-linecap: square"/>
   </g>
   <g id="line2d_16">
    <path d="M 60.243802 246.24 
L 62.805785 240.934737 
L 65.367769 240.934737 
L 67.929752 240.934737 
L 70.491736 240.934737 
L 73.053719 235.629474 
L 75.615702 235.629474 
L 78.177686 235.629474 
L 80.739669 235.629474 
L 83.301653 235.629474 
L 85.863636 230.324211 
L 88.42562 230.324211 
L 90.987603 230.324211 
L 93.549587 230.324211 
L 96.11157 230.324211 
L 98.673554 230.324211 
L 101.235537 225.018947 
L 103.797521 225.018947 
L 106.359504 225.018947 
L 108.921488 225.018947 
L 111.483471 225.018947 
L 114.045455 225.018947 
L 116.607438 225.018947 
L 119.169421 225.018947 
L 121.731405 219.713684 
L 124.293388 219.713684 
L 126.855372 219.713684 
L 129.417355 219.713684 
L 131.979339 219.713684 
L 134.541322 219.713684 
L 137.103306 219.713684 
L 139.665289 219.713684 
L 142.227273 219.713684 
L 144.789256 214.408421 
L 147.35124 214.408421 
L 149.913223 214.408421 
L 152.475207 214.408421 
L 155.03719 214.408421 
L 157.599174 214.408421 
L 160.161157 214.408421 
L 162.72314 214.408421 
L 165.285124 214.408421 
L 167.847107 214.408421 
L 170.409091 214.408421 
L 172.971074 209.103158 
L 175.533058 209.103158 
L 178.095041 209.103158 
L 180.657025 209.103158 
L 183.219008 209.103158 
L 185.780992 209.103158 
L 188.342975 209.103158 
L 190.904959 209.103158 
L 193.466942 209.103158 
L 196.028926 209.103158 
L 198.590909 209.103158 
L 201.152893 209.103158 
L 203.714876 203.797895 
L 206.27686 203.797895 
L 208.838843 203.797895 
L 211.400826 203.797895 
L 213.96281 203.797895 
L 216.524793 203.797895 
L 219.086777 203.797895 
L 221.64876 203.797895 
L 224.210744 203.797895 
L 226.772727 203.797895 
L 229.334711 203.797895 
L 231.896694 203.797895 
L 234.458678 203.797895 
L 237.020661 203.797895 
L 239.582645 198.492632 
L 242.144628 198.492632 
L 244.706612 198.492632 
L 247.268595 198.492632 
L 249.830579 198.492632 
L 252.392562 198.492632 
L 254.954545 198.492632 
L 257.516529 198.492632 
L 260.078512 198.492632 
L 262.640496 198.492632 
L 265.202479 198.492632 
L 267.764463 198.492632 
L 270.326446 198.492632 
L 272.88843 198.492632 
L 275.450413 193.187368 
L 278.012397 193.187368 
L 280.57438 193.187368 
L 283.136364 193.187368 
L 285.698347 193.187368 
L 288.260331 193.187368 
L 290.822314 193.187368 
L 293.384298 193.187368 
L 295.946281 193.187368 
L 298.508264 193.187368 
L 301.070248 193.187368 
L 303.632231 193.187368 
L 306.194215 193.187368 
L 308.756198 193.187368 
L 311.318182 193.187368 
" clip-path="url(#p415d537819)" style="fill: none; stroke-dasharray: 7.4,3.2; stroke-dashoffset: 0; stroke: #da70d6; stroke-width: 2"/>
   </g>
   <g id="line2d_17">
    <path d="M 57.681818 246.24 
L 60.243802 246.24 
L 62.805785 240.934737 
L 65.367769 235.629474 
L 67.929752 230.324211 
L 70.491736 225.018947 
L 73.053719 219.713684 
L 75.615702 214.408421 
L 78.177686 209.103158 
L 80.739669 203.797895 
L 83.301653 198.492632 
L 85.863636 193.187368 
L 88.42562 187.882105 
L 90.987603 182.576842 
L 93.549587 177.271579 
L 96.11157 177.271579 
L 98.673554 171.966316 
L 101.235537 171.966316 
L 103.797521 166.661053 
L 106.359504 166.661053 
L 108.921488 161.355789 
L 111.483471 161.355789 
L 114.045455 156.050526 
L 116.607438 156.050526 
L 119.169421 156.050526 
L 121.731405 150.745263 
L 124.293388 150.745263 
L 126.855372 145.44 
L 129.417355 145.44 
L 131.979339 145.44 
L 134.541322 140.134737 
L 137.103306 140.134737 
L 139.665289 140.134737 
L 142.227273 134.829474 
L 144.789256 134.829474 
L 147.35124 134.829474 
L 149.913223 129.524211 
L 152.475207 129.524211 
L 155.03719 129.524211 
L 157.599174 124.218947 
L 160.161157 124.218947 
L 162.72314 124.218947 
L 165.285124 118.913684 
L 167.847107 118.913684 
L 170.409091 118.913684 
L 172.971074 113.608421 
L 175.533058 113.608421 
L 178.095041 113.608421 
L 180.657025 108.303158 
L 183.219008 108.303158 
L 185.780992 108.303158 
L 188.342975 108.303158 
L 190.904959 102.997895 
L 193.466942 102.997895 
L 196.028926 102.997895 
L 198.590909 97.692632 
L 201.152893 97.692632 
L 203.714876 97.692632 
L 206.27686 97.692632 
L 208.838843 92.387368 
L 211.400826 92.387368 
L 213.96281 92.387368 
L 216.524793 92.387368 
L 219.086777 87.082105 
L 221.64876 87.082105 
L 224.210744 87.082105 
L 226.772727 87.082105 
L 229.334711 81.776842 
L 231.896694 81.776842 
L 234.458678 81.776842 
L 237.020661 81.776842 
L 239.582645 76.471579 
L 242.144628 76.471579 
L 244.706612 76.471579 
L 247.268595 76.471579 
L 249.830579 71.166316 
L 252.392562 71.166316 
L 254.954545 71.166316 
L 257.516529 71.166316 
L 260.078512 65.861053 
L 262.640496 65.861053 
L 265.202479 65.861053 
L 267.764463 65.861053 
L 270.326446 60.555789 
L 272.88843 60.555789 
L 275.450413 60.555789 
L 278.012397 60.555789 
L 280.57438 55.250526 
L 283.136364 55.250526 
L 285.698347 55.250526 
L 288.260331 55.250526 
L 290.822314 55.250526 
L 293.384298 49.945263 
L 295.946281 49.945263 
L 298.508264 49.945263 
L 301.070248 49.945263 
L 303.632231 44.64 
L 306.194215 44.64 
L 308.756198 44.64 
L 311.318182 44.64 
" clip-path="url(#p415d537819)" style="fill: none; stroke: #0000cd; stroke-width: 2; stroke-linecap: square"/>
   </g>
   <g id="line2d_18">
    <path d="M 57.681818 246.24 
L 60.243802 246.24 
L 62.805785 240.934737 
L 65.367769 240.934737 
L 67.929752 235.629474 
L 70.491736 235.629474 
L 73.053719 235.629474 
L 75.615702 235.629474 
L 78.177686 235.629474 
L 80.739669 230.324211 
L 83.301653 230.324211 
L 85.863636 230.324211 
L 88.42562 230.324211 
L 90.987603 230.324211 
L 93.549587 230.324211 
L 96.11157 230.324211 
L 98.673554 225.018947 
L 101.235537 225.018947 
L 103.797521 225.018947 
L 106.359504 225.018947 
L 108.921488 225.018947 
L 111.483471 225.018947 
L 114.045455 219.713684 
L 116.607438 219.713684 
L 119.169421 219.713684 
L 121.731405 219.713684 
L 124.293388 219.713684 
L 126.855372 219.713684 
L 129.417355 219.713684 
L 131.979339 214.408421 
L 134.541322 214.408421 
L 137.103306 214.408421 
L 139.665289 214.408421 
L 142.227273 214.408421 
L 144.789256 214.408421 
L 147.35124 214.408421 
L 149.913223 209.103158 
L 152.475207 209.103158 
L 155.03719 209.103158 
L 157.599174 209.103158 
L 160.161157 209.103158 
L 162.72314 209.103158 
L 165.285124 209.103158 
L 167.847107 209.103158 
L 170.409091 203.797895 
L 172.971074 203.797895 
L 175.533058 203.797895 
L 178.095041 203.797895 
L 180.657025 203.797895 
L 183.219008 203.797895 
L 185.780992 203.797895 
L 188.342975 203.797895 
L 190.904959 203.797895 
L 193.466942 198.492632 
L 196.028926 198.492632 
L 198.590909 198.492632 
L 201.152893 198.492632 
L 203.714876 198.492632 
L 206.27686 198.492632 
L 208.838843 198.492632 
L 211.400826 198.492632 
L 213.96281 198.492632 
L 216.524793 193.187368 
L 219.086777 193.187368 
L 221.64876 193.187368 
L 224.210744 193.187368 
L 226.772727 193.187368 
L 229.334711 193.187368 
L 231.896694 193.187368 
L 234.458678 193.187368 
L 237.020661 193.187368 
L 239.582645 193.187368 
L 242.144628 187.882105 
L 244.706612 187.882105 
L 247.268595 187.882105 
L 249.830579 187.882105 
L 252.392562 187.882105 
L 254.954545 187.882105 
L 257.516529 187.882105 
L 260.078512 187.882105 
L 262.640496 187.882105 
L 265.202479 187.882105 
L 267.764463 182.576842 
L 270.326446 182.576842 
L 272.88843 182.576842 
L 275.450413 182.576842 
L 278.012397 182.576842 
L 280.57438 182.576842 
L 283.136364 182.576842 
L 285.698347 182.576842 
L 288.260331 182.576842 
L 290.822314 182.576842 
L 293.384298 182.576842 
L 295.946281 177.271579 
L 298.508264 177.271579 
L 301.070248 177.271579 
L 303.632231 177.271579 
L 306.194215 177.271579 
L 308.756198 177.271579 
L 311.318182 177.271579 
" clip-path="url(#p415d537819)" style="fill: none; stroke-dasharray: 7.4,3.2; stroke-dashoffset: 0; stroke: #0000cd; stroke-width: 2"/>
   </g>
   <g id="patch_3">
    <path d="M 45 256.32 
L 45 34.56 
" style="fill: none; stroke: #000000; stroke-width: 0.8; stroke-linejoin: miter; stroke-linecap: square"/>
   </g>
   <g id="patch_4">
    <path d="M 324 256.32 
L 324 34.56 
" style="fill: none; stroke: #000000; stroke-width: 0.8; stroke-linejoin: miter; stroke-linecap: square"/>
   </g>
   <g id="patch_5">
    <path d="M 45 256.32 
L 324 256.32 
" style="fill: none; stroke: #000000; stroke-width: 0.8; stroke-linejoin: miter; stroke-linecap: square"/>
   </g>
   <g id="patch_6">
    <path d="M 45 34.56 
L 324 34.56 
" style="fill: none; stroke: #000000; stroke-width: 0.8; stroke-linejoin: miter; stroke-linecap: square"/>
   </g>
   <g id="legend_1">
    <g id="patch_7">
     <path d="M 51.3 94.60125 
L 141.105937 94.60125 
Q 142.905937 94.60125 142.905937 92.80125 
L 142.905937 40.86 
Q 142.905937 39.06 141.105937 39.06 
L 51.3 39.06 
Q 49.5 39.06 49.5 40.86 
L 49.5 92.80125 
Q 49.5 94.60125 51.3 94.60125 
z
" style="fill: #ffffff; opacity: 0.8; stroke: #cccccc; stroke-linejoin: miter"/>
    </g>
    <g id="line2d_19">
     <path d="M 53.1 46.348594 
L 62.1 46.348594 
L 71.1 46.348594 
" style="fill: none; stroke: #da70d6; stroke-width: 2; stroke-linecap: square"/>
    </g>
    <g id="text_17">
     <!-- Max Gap [6] -->
     <g transform="translate(78.3 49.498594) scale(0.09 -0.09)">
      <defs>
       <path id="DejaVuSans-4d" d="M 628 4666 
L 1569 4666 
L 2759 1491 
L 3956 4666 
L 4897 4666 
L 4897 0 
L 4281 0 
L 4281 4097 
L 3078 897 
L 2444 897 
L 1241 4097 
L 1241 0 
L 628 0 
L 628 4666 
z
" transform="scale(0.015625)"/>
       <path id="DejaVuSans-78" d="M 3513 3500 
L 2247 1797 
L 3578 0 
L 2900 0 
L 1881 1375 
L 863 0 
L 184 0 
L 1544 1831 
L 300 3500 
L 978 3500 
L 1906 2253 
L 2834 3500 
L 3513 3500 
z
" transform="scale(0.015625)"/>
       <path id="DejaVuSans-47" d="M 3809 666 
L 3809 1919 
L 2778 1919 
L 2778 2438 
L 4434 2438 
L 4434 434 
Q 4069 175 3628 42 
Q 3188 -91 2688 -91 
Q 1594 -91 976 548 
Q 359 1188 359 2328 
Q 359 3472 976 4111 
Q 1594 4750 2688 4750 
Q 3144 4750 3555 4637 
Q 3966 4525 4313 4306 
L 4313 3634 
Q 3963 3931 3569 4081 
Q 3175 4231 2741 4231 
Q 1884 4231 1454 3753 
Q 1025 3275 1025 2328 
Q 1025 1384 1454 906 
Q 1884 428 2741 428 
Q 3075 428 3337 486 
Q 3600 544 3809 666 
z
" transform="scale(0.015625)"/>
       <path id="DejaVuSans-5b" d="M 550 4863 
L 1875 4863 
L 1875 4416 
L 1125 4416 
L 1125 -397 
L 1875 -397 
L 1875 -844 
L 550 -844 
L 550 4863 
z
" transform="scale(0.015625)"/>
       <path id="DejaVuSans-5d" d="M 1947 4863 
L 1947 -844 
L 622 -844 
L 622 -397 
L 1369 -397 
L 1369 4416 
L 622 4416 
L 622 4863 
L 1947 4863 
z
" transform="scale(0.015625)"/>
      </defs>
      <use xlink:href="#DejaVuSans-4d"/>
      <use xlink:href="#DejaVuSans-61" x="86.279297"/>
      <use xlink:href="#DejaVuSans-78" x="147.558594"/>
      <use xlink:href="#DejaVuSans-20" x="206.738281"/>
      <use xlink:href="#DejaVuSans-47" x="238.525391"/>
      <use xlink:href="#DejaVuSans-61" x="316.015625"/>
      <use xlink:href="#DejaVuSans-70" x="377.294922"/>
      <use xlink:href="#DejaVuSans-20" x="440.771484"/>
      <use xlink:href="#DejaVuSans-5b" x="472.558594"/>
      <use xlink:href="#DejaVuSans-36" x="511.572266"/>
      <use xlink:href="#DejaVuSans-5d" x="575.195312"/>
     </g>
    </g>
    <g id="line2d_20">
     <path d="M 53.1 59.558906 
L 62.1 59.558906 
L 71.1 59.558906 
" style="fill: none; stroke-dasharray: 7.4,3.2; stroke-dashoffset: 0; stroke: #da70d6; stroke-width: 2"/>
    </g>
    <g id="text_18">
     <!-- Min Gap [6] -->
     <g transform="translate(78.3 62.708906) scale(0.09 -0.09)">
      <defs>
       <path id="DejaVuSans-6e" d="M 3513 2113 
L 3513 0 
L 2938 0 
L 2938 2094 
Q 2938 2591 2744 2837 
Q 2550 3084 2163 3084 
Q 1697 3084 1428 2787 
Q 1159 2491 1159 1978 
L 1159 0 
L 581 0 
L 581 3500 
L 1159 3500 
L 1159 2956 
Q 1366 3272 1645 3428 
Q 1925 3584 2291 3584 
Q 2894 3584 3203 3211 
Q 3513 2838 3513 2113 
z
" transform="scale(0.015625)"/>
      </defs>
      <use xlink:href="#DejaVuSans-4d"/>
      <use xlink:href="#DejaVuSans-69" x="86.279297"/>
      <use xlink:href="#DejaVuSans-6e" x="114.0625"/>
      <use xlink:href="#DejaVuSans-20" x="177.441406"/>
      <use xlink:href="#DejaVuSans-47" x="209.228516"/>
      <use xlink:href="#DejaVuSans-61" x="286.71875"/>
      <use xlink:href="#DejaVuSans-70" x="347.998047"/>
      <use xlink:href="#DejaVuSans-20" x="411.474609"/>
      <use xlink:href="#DejaVuSans-5b" x="443.261719"/>
      <use xlink:href="#DejaVuSans-36" x="482.275391"/>
      <use xlink:href="#DejaVuSans-5d" x="545.898438"/>
     </g>
    </g>
    <g id="line2d_21">
     <path d="M 53.1 72.769219 
L 62.1 72.769219 
L 71.1 72.769219 
" style="fill: none; stroke: #0000cd; stroke-width: 2; stroke-linecap: square"/>
    </g>
    <g id="text_19">
     <!-- Max Gap [11] -->
     <g transform="translate(78.3 75.919219) scale(0.09 -0.09)">
      <use xlink:href="#DejaVuSans-4d"/>
      <use xlink:href="#DejaVuSans-61" x="86.279297"/>
      <use xlink:href="#DejaVuSans-78" x="147.558594"/>
      <use xlink:href="#DejaVuSans-20" x="206.738281"/>
      <use xlink:href="#DejaVuSans-47" x="238.525391"/>
      <use xlink:href="#DejaVuSans-61" x="316.015625"/>
      <use xlink:href="#DejaVuSans-70" x="377.294922"/>
      <use xlink:href="#DejaVuSans-20" x="440.771484"/>
      <use xlink:href="#DejaVuSans-5b" x="472.558594"/>
      <use xlink:href="#DejaVuSans-31" x="511.572266"/>
      <use xlink:href="#DejaVuSans-31" x="575.195312"/>
      <use xlink:href="#DejaVuSans-5d" x="638.818359"/>
     </g>
    </g>
    <g id="line2d_22">
     <path d="M 53.1 85.979531 
L 62.1 85.979531 
L 71.1 85.979531 
" style="fill: none; stroke-dasharray: 7.4,3.2; stroke-dashoffset: 0; stroke: #0000cd; stroke-width: 2"/>
    </g>
    <g id="text_20">
     <!-- Min Gap [11] -->
     <g transform="translate(78.3 89.129531) scale(0.09 -0.09)">
      <use xlink:href="#DejaVuSans-4d"/>
      <use xlink:href="#DejaVuSans-69" x="86.279297"/>
      <use xlink:href="#DejaVuSans-6e" x="114.0625"/>
      <use xlink:href="#DejaVuSans-20" x="177.441406"/>
      <use xlink:href="#DejaVuSans-47" x="209.228516"/>
      <use xlink:href="#DejaVuSans-61" x="286.71875"/>
      <use xlink:href="#DejaVuSans-70" x="347.998047"/>
      <use xlink:href="#DejaVuSans-20" x="411.474609"/>
      <use xlink:href="#DejaVuSans-5b" x="443.261719"/>
      <use xlink:href="#DejaVuSans-31" x="482.275391"/>
      <use xlink:href="#DejaVuSans-31" x="545.898438"/>
      <use xlink:href="#DejaVuSans-5d" x="609.521484"/>
     </g>
    </g>
   </g>
  </g>
 </g>
 <defs>
  <clipPath id="p415d537819">
   <rect x="45" y="34.56" width="279" height="221.76"/>
  </clipPath>
 </defs>
</svg>
